<?xml version="1.0" encoding="utf-8"?>
<!-- Generator: Adobe Illustrator 26.0.3, SVG Export Plug-In . SVG Version: 6.00 Build 0)  -->
<svg version="1.1" id="Ebene_1" xmlns="http://www.w3.org/2000/svg" xmlns:xlink="http://www.w3.org/1999/xlink" x="0px" y="0px"
	 viewBox="0 0 640 26" style="enable-background:new 0 0 640 26;" xml:space="preserve">
<style type="text/css">
	.st0{fill:#FFFFFF;}
</style>
<g>
	<path class="st0" d="M4.8,10.1c-0.5,0-1.3,0-1.7,0.1V18c0,0.2-0.2,0.4-0.4,0.4H0.4C0.2,18.4,0,18.2,0,18V8.7c0-0.3,0.1-0.4,0.6-0.6
		C1.9,7.7,3,7.5,4.8,7.5c0.2,0,0.5,0.1,0.5,0.4v1.8C5.3,9.9,5.1,10.1,4.8,10.1z"/>
	<path class="st0" d="M10.9,18.5c-3,0-4.7-1.9-4.7-4.8v-1.3c0-3,1.7-4.8,4.7-4.8s4.7,1.9,4.7,4.8v1.3C15.6,16.7,13.9,18.5,10.9,18.5
		z M12.6,12.4c0-1.5-0.6-2.3-1.7-2.3s-1.7,0.8-1.7,2.3v1.3c0,1.5,0.6,2.3,1.7,2.3s1.7-0.8,1.7-2.3V12.4z"/>
	<path class="st0" d="M33.1,18.5c-3,0-4.7-1.9-4.7-4.8v-1.3c0-3,1.7-4.9,4.7-4.9s4.7,1.9,4.7,4.8v1.3C37.7,16.7,36.1,18.5,33.1,18.5
		z M34.7,12.4c0-1.5-0.6-2.3-1.7-2.3c-1.1,0-1.7,0.8-1.7,2.3v1.3c0,1.5,0.6,2.3,1.7,2.3c1.1,0,1.7-0.8,1.7-2.3V12.4z"/>
	<path class="st0" d="M46.3,18.3c-0.5,0.1-1.4,0.3-2.5,0.3c-2.6,0-4.3-1.7-4.3-4.7v-1.6c0-3,1.7-4.7,4.3-4.7c1.1,0,2,0.1,2.5,0.3
		C46.6,8,46.7,8,46.7,8.3V10c0,0.2-0.2,0.3-0.4,0.3l0,0c-0.7-0.1-1.2-0.1-2.3-0.1c-0.8,0-1.5,0.5-1.5,2.2V14c0,1.7,0.7,2.2,1.5,2.2
		c1.1,0,1.6-0.1,2.3-0.1l0,0c0.2,0,0.4,0.1,0.4,0.3v1.7C46.7,18.1,46.6,18.2,46.3,18.3z"/>
	<path class="st0" d="M57,14h-5.9l0,0c0,1.1,0.4,2,1.9,2c1.2,0,2.8-0.1,3.6-0.2c0,0,0,0,0.1,0c0.2,0,0.4,0.1,0.4,0.3v1.4
		c0,0.3-0.1,0.4-0.4,0.5c-1.2,0.3-2.2,0.4-3.8,0.4c-2.3,0-4.7-1.2-4.7-4.8v-1.3c0-3,1.8-4.9,4.7-4.9c3.1,0,4.6,2.1,4.6,4.9v1.2
		C57.4,13.8,57.2,14,57,14z M54.4,12c0-1.4-0.6-2.1-1.7-2.1c-1,0-1.7,0.7-1.7,2.1v0.1L54.4,12L54.4,12z"/>
	<path class="st0" d="M63.9,18.5c-0.4,0-1-0.1-1.5-0.1v3.7c0,0.2-0.2,0.4-0.4,0.4h-2.3c-0.2,0-0.4-0.2-0.4-0.4V8.6
		c0-0.3,0.1-0.4,0.6-0.5c1.1-0.3,2.5-0.5,4-0.5c3,0,4.7,1.8,4.7,4.8v1.5C68.6,16.7,67.1,18.5,63.9,18.5z M65.6,12.3
		c0-1.3-0.3-2.3-1.7-2.3c-0.6,0-1.2,0-1.5,0.1v5.8c0.4,0.1,1.1,0.1,1.5,0.1c1.3,0,1.7-1,1.7-2.3V12.3z"/>
	<path class="st0" d="M88.3,18.5c-3,0-4.7-1.9-4.7-4.8v-1.3c0-3,1.7-4.8,4.7-4.8S93,9.5,93,12.4v1.3C93,16.7,91.3,18.5,88.3,18.5z
		 M90,12.4c0-1.5-0.6-2.3-1.7-2.3s-1.7,0.8-1.7,2.3v1.3c0,1.5,0.6,2.3,1.7,2.3s1.7-0.8,1.7-2.3V12.4z"/>
	<path class="st0" d="M103.6,18.4h-2.3c-0.2,0-0.4-0.2-0.4-0.4v-6.6c0-0.8-0.1-1.4-1.1-1.4h-0.9c-1,0-1.1,0.6-1.1,1.4V18
		c0,0.2-0.2,0.4-0.4,0.4h-2.3c-0.2,0-0.4-0.2-0.4-0.4v-6.6c0-2.6,1.4-3.9,4.1-3.9h0.9c2.7,0,4.1,1.3,4.1,3.9V18
		C104,18.2,103.8,18.4,103.6,18.4z"/>
	<g>
		<path class="st0" d="M22,7.5c-0.4,0-1,0.1-1.5,0.1V3.9c0-0.2-0.2-0.4-0.4-0.4c-0.6,0-1.4,0.2-2.1,0.4c-0.4,0.2-0.6,0.4-0.6,0.7
			v12.7c0,0.3,0.1,1,0.7,1c7.1,1,8.5-1.5,8.5-4.5v-1.5C26.7,9.4,25.1,7.5,22,7.5z M23.7,13.8c0,1.3-0.3,2.1-1.7,2.3
			c-0.6,0.1-1.2,0.1-1.5,0v-6C20.9,10,21.6,10,22,10c1.3,0,1.7,1,1.7,2.3V13.8z"/>
	</g>
	<path class="st0" d="M70.5,4.8v10.7c0,2.4,1.2,3.1,3.3,3.1c0.8,0,1.7-0.1,2.2-0.2c0.2,0,0.4-0.2,0.4-0.4v-1.4
		c0-0.2-0.1-0.3-0.4-0.3h-1.4c-0.8,0-1.1-0.1-1.1-0.8V10h2.6c0.2,0,0.4-0.2,0.4-0.4V8.1c0-0.2-0.2-0.4-0.4-0.4h-2.6V4.1
		c0-0.2-0.2-0.4-0.4-0.4c-0.6,0-1.4,0.2-2.1,0.4C70.7,4.3,70.5,4.6,70.5,4.8z"/>
	<path class="st0" d="M81.6,8.1c0-0.2-0.2-0.4-0.4-0.4c-0.6,0-1.4,0.2-2.1,0.4c-0.4,0.2-0.6,0.4-0.6,0.7V18c0,0.2,0.2,0.4,0.4,0.4
		h2.3c0.2,0,0.4-0.2,0.4-0.4C81.6,18,81.6,8.1,81.6,8.1z"/>
</g>
</svg>
