<svg id="Ebene_1" data-name="Ebene 1" xmlns="http://www.w3.org/2000/svg" viewBox="0 0 432 74"><defs><style>.cls-1{fill:#fff;}</style></defs><title>KUKA-Logo-White-RGB-L-Clear-@2x</title><path class="cls-1" d="M97.2,146.6H74V74H97.2v72.6Zm75,0-44.8-36.8L172.2,74H139.4L97.2,109.8l42.2,37h32.8v-0.2Zm105.6-25.4V74H254.6v43c0,9.2-3.4,12-13,12h-23c-9.6,0-13-2.8-13-12V74h-23v47.2c0,18,9.8,26.8,31,26.8h33.2C268.2,148,277.8,139.4,277.8,121.2Zm41.4,25.4H296V74h23.2v72.6h0Zm75.2,0-44.8-37L394.4,74H361.6l-42.2,35.8,42.2,37h32.8v-0.2h0Zm66-72.6H440l-45.6,72.6H421l7.6-12.6h43l7.6,12.6H506Zm-23.8,45.6,13.6-23.2,13.6,23.2H436.6Z" transform="translate(-74 -74)"/></svg>