<?xml version="1.0" encoding="UTF-8" standalone="no"?>
<svg
   xmlns:dc="http://purl.org/dc/elements/1.1/"
   xmlns:cc="http://creativecommons.org/ns#"
   xmlns:rdf="http://www.w3.org/1999/02/22-rdf-syntax-ns#"
   xmlns:svg="http://www.w3.org/2000/svg"
   xmlns="http://www.w3.org/2000/svg"
   xmlns:sodipodi="http://sodipodi.sourceforge.net/DTD/sodipodi-0.dtd"
   xmlns:inkscape="http://www.inkscape.org/namespaces/inkscape"
   viewBox="0 -0.5 180 50"
   height="50"
   width="180"
   xml:space="preserve"
   id="svg2"
   version="1.1"
   sodipodi:docname="logo_basler.svg"
   inkscape:version="0.92.3 (2405546, 2018-03-11)"><sodipodi:namedview
     pagecolor="#ffffff"
     bordercolor="#666666"
     borderopacity="1"
     objecttolerance="10"
     gridtolerance="10"
     guidetolerance="10"
     inkscape:pageopacity="0"
     inkscape:pageshadow="2"
     inkscape:window-width="1853"
     inkscape:window-height="1025"
     id="namedview15"
     showgrid="false"
     viewbox-y="-0.5"
     inkscape:zoom="3.8036624"
     inkscape:cx="106.32695"
     inkscape:cy="-15.442993"
     inkscape:window-x="67"
     inkscape:window-y="27"
     inkscape:window-maximized="1"
     inkscape:current-layer="svg2" /><metadata
     id="metadata8"><rdf:RDF><cc:Work
         rdf:about=""><dc:format>image/svg+xml</dc:format><dc:type
           rdf:resource="http://purl.org/dc/dcmitype/StillImage" /><dc:title></dc:title></cc:Work></rdf:RDF></metadata><defs
     id="defs6" /><g
     transform="matrix(0.3874378,0,0,-0.3874378,6.101792,40.285742)"
     id="g10"
     style="fill:#ffffff"><g
       transform="scale(0.1)"
       id="g12"
       style="fill:#ffffff"><path
         id="path14"
         style="fill:#ffffff;fill-opacity:1;fill-rule:nonzero;stroke:none"
         d="m 1837.85,142.078 v 351.215 c 0,25.828 -34.86,33.23 -34.86,33.23 h -75.11 V 0.496094 h 411.5 c 0,0 34.17,-4.402344 34.17,36.281206 v 67.1287 h -292.79 c -49.93,0 -42.91,38.172 -42.91,38.172"
         inkscape:connector-curvature="0" /><path
         id="path16"
         style="fill:#ffffff;fill-opacity:1;fill-rule:nonzero;stroke:none"
         d="m 447.742,120.566 c -13.887,-14.648 -36.824,-16.66 -57.422,-16.66 H 109.883 v 118.008 h 245.898 c 61.082,0 81.297,-11.914 87.93,-19.101 l 2.375,-2.258 c 2.477,-2.227 15.066,-14.617 15.066,-42.235 0,-22.004 -10.246,-34.472 -13.41,-37.754 z M 109.883,397.012 c 0,24.394 21.457,27.375 41.125,27.375 h 215.203 c 31.191,0 44.894,-4.641 50.781,-8.41 9.309,-6.055 19.297,-20.071 19.297,-40.832 0,-9.54 -1.555,-22.079 -13.098,-32.926 -16.179,-14.953 -41.609,-16.223 -64.175,-16.223 H 109.883 c 0,0 0,53.34 0,71.016 z M 512.129,282.871 c 2.91,3.067 5.879,6.516 8.738,10.176 17.375,23.242 27.414,54.344 27.414,85.383 0,44.031 -19.16,84.84 -52.09,111.699 -42.988,36.394 -91.589,36.394 -130.664,36.394 H 56.1133 C 5.82031,526.523 0,490.996 0,490.996 V 0.496094 h 391.68 c 54.023,0 96.191,11.808606 125.468,35.156206 34.668,27.793 54.582,72.7457 54.582,123.3317 0,51.7 -22.082,96.719 -59.601,123.887"
         inkscape:connector-curvature="0" /><path
         id="path18"
         style="fill:#ffffff;fill-opacity:1;fill-rule:nonzero;stroke:none"
         d="m 2321.45,223.203 h 340.23 c 29.08,0 26.16,25.496 26.16,25.496 v 77.949 h -366.39 v 56.25 3.665 c 0,3.488 0,6.628 0,9.089 0,24.348 21.39,27.309 41,27.309 h 13.57 l 9.18,0.113 h 302.77 c 0,0 29.96,-1.668 29.96,28.379 v 75.07 H 2260.8 c -52.97,0 -49.32,-36.511 -49.32,-36.511 V 0.496094 h 497.14 c 0,0 28.22,-1.523434 28.22,28.527306 v 74.8826 h -415.39 v 119.297"
         inkscape:connector-curvature="0" /><path
         id="path20"
         style="fill:#ffffff;fill-opacity:1;fill-rule:nonzero;stroke:none"
         d="m 1208.53,96.5938 c 67.37,0.1328 169.92,0.2539 209.39,0.2539 4.1,0 9.23,0.0273 14.95,0.2812 41.18,1.2383 137.79,-1.8086 146.97,51.8441 0.63,3.285 1.18,5.746 0.94,8.371 -1.8,21.094 -11.73,58.664 -153.55,65.105 -78.03,3.235 -133.53,5.766 -180.74,23.645 -56.85,21.258 -86.56,60.984 -88.31,118.008 l -0.42,5.019 c 0,97.129 79.99,151.387 223.88,157.598 8.13,0.301 16.43,0.586 24.99,0.586 l 10.18,-0.149 4.27,0.149 c 66.67,0 131.98,-0.403 244.29,-0.664 v -66.465 c 0,-35.789 -41.55,-32.696 -41.55,-32.696 -92.04,0.165 -151.01,0.333 -193.87,0.333 -3.97,0 -9.17,-0.079 -14.89,-0.286 l -5.88,0.325 c -6.71,0 -16.25,-0.137 -27.35,-0.887 -42.85,-2.461 -111.69,-8.695 -111.69,-49.809 0,-3.133 0.24,-5.855 0.86,-8.457 3.84,-15.351 20.71,-34.832 138.36,-39.91 l 7.01,-0.332 c 79.63,-3.047 142.58,-14.531 192.38,-35.977 57.98,-24.941 87.26,-69.609 87.26,-132.589 0,-3.164 -0.06,-6.649 -0.25,-10.262 v -1.223 l -0.69,-5.574 C 1689.68,84.6563 1661.27,5.58594 1454.01,0.566406 L 1453.09,0 1446.33,0.195313 1438.51,0 c -71.78,0 -143.69,0.351563 -229.28,0.46875 0,-0.039062 -33.74,68.25395 -33.74,68.25395 0,0 -12.08,27.6562 33.04,27.8711"
         inkscape:connector-curvature="0" /><path
         id="path22"
         style="fill:#ffffff;fill-opacity:1;fill-rule:nonzero;stroke:none"
         d="m 3564.34,702.852 c -48.29,47.968 -111.49,53.171 -111.49,53.171 -125.52,-53.55 -251.69,-129.96 -251.69,-129.96 0,0 189.06,85.265 383.55,45.617 0,0 -10.92,21.765 -20.37,31.172"
         inkscape:connector-curvature="0" /><path
         id="path24"
         style="fill:#ffffff;fill-opacity:1;fill-rule:nonzero;stroke:none"
         d="m 3799.43,759.871 c -55.4,83.645 -205.04,54.633 -301.02,25.129 27.5,-7.527 179.84,-20.254 124.63,-251.77 -32.82,-137.488 -131.42,-299.324 -127.14,-307.449 5.96,-11.211 400.32,387.981 303.53,534.09"
         inkscape:connector-curvature="0" /><path
         id="path26"
         style="fill:#ffffff;fill-opacity:1;fill-rule:nonzero;stroke:none"
         d="m 2891.67,310.344 v 83.836 c 0,0 -3.97,29.531 35.53,29.531 h 207.63 c 22.52,0 43.85,0 59.12,-11.797 8.43,-6.25 18.29,-21.016 18.29,-41.953 0,-15.586 -5.22,-30.938 -13.59,-39.961 -16.99,-18.301 -48.87,-19.656 -91.77,-19.656 z m 306.77,-96.914 c 23.75,5.172 48.59,14.343 70.16,31.101 13.39,10.547 24.44,23.125 33.25,37.235 0.55,0.968 1.24,1.996 1.79,2.961 14.14,23.972 21.7,52.332 21.7,83.289 0,57.875 -28.52,110.207 -74.77,136.789 -39.39,21.718 -84.24,21.718 -116.98,21.718 h -309.77 c -39.44,0 -41.49,-30.976 -41.49,-30.976 V 0.496094 h 80.93 c 0,0 28.41,-0.5664065 28.41,33.234406 V 206.211 h 134.88 c 0,0 2.11,0.066 5.39,-0.313 1.01,-0.019 10.72,-0.207 25.1,-0.253 l 143.14,-162.8911 0.23,0.0977 c 10.3,-11.6797 17.16,-19.4532 17.16,-19.4532 0,0 18.7,-23.3007437 58.79,-22.902306 h 111.01 L 3198.44,213.43"
         inkscape:connector-curvature="0" /><path
         id="path28"
         style="fill:#ffffff;fill-opacity:1;fill-rule:nonzero;stroke:none"
         d="m 899.133,526.453 h -43.899 c -46.582,0 -50.066,-7 -64.57,-37.637 -30.019,-63.308 -93.457,-176.464 -146.484,-283.855 28.476,22.43 73.8,45.469 141.152,49.133 l 69.27,125.64 79.187,-158.339 H 777.023 l 0.184,0.371 C 684.434,214.082 638.477,166.434 622.852,145.859 586.68,72.9883 559.836,18.8477 559.836,18.8477 c 0,0 -10.793,-18.418012 12.227,-18.418012 h 96.675 L 709.109,82.2969 c 0,0 17.922,37.7031 64.504,37.7031 h 210.852 c 0,0 35.605,-70.1484 45.965,-90.7891 7.99,-15.9687 13.75,-28.781212 43.34,-28.781212 h 17.92 c 27.05,0 50.6,-0.03125 71.7,-0.03125 L 899.133,526.453"
         inkscape:connector-curvature="0" /></g></g></svg>