<?xml version="1.0" encoding="UTF-8" standalone="no"?>
<!-- Generator: Adobe Illustrator 19.1.0, SVG Export Plug-In . SVG Version: 6.00 Build 0)  -->

<svg
   xmlns:dc="http://purl.org/dc/elements/1.1/"
   xmlns:cc="http://creativecommons.org/ns#"
   xmlns:rdf="http://www.w3.org/1999/02/22-rdf-syntax-ns#"
   xmlns:svg="http://www.w3.org/2000/svg"
   xmlns="http://www.w3.org/2000/svg"
   xmlns:sodipodi="http://sodipodi.sourceforge.net/DTD/sodipodi-0.dtd"
   xmlns:inkscape="http://www.inkscape.org/namespaces/inkscape"
   version="1.1"
   id="Ebene_1"
   x="0px"
   y="0px"
   viewBox="44 8 128 26"
   style="enable-background:new 44 8 128 26;"
   xml:space="preserve"
   sodipodi:docname="logo_balluff.svg"
   inkscape:version="0.92.5 (2060ec1f9f, 2020-04-08)"><metadata
   id="metadata35"><rdf:RDF><cc:Work
       rdf:about=""><dc:format>image/svg+xml</dc:format><dc:type
         rdf:resource="http://purl.org/dc/dcmitype/StillImage" /><dc:title></dc:title></cc:Work></rdf:RDF></metadata><defs
   id="defs33"><clipPath
     id="clip0_267_3232"><rect
       style="fill:#ffffff"
       y="0"
       x="0"
       width="100"
       height="12.9771"
       id="rect22" /></clipPath></defs><sodipodi:namedview
   pagecolor="#ffffff"
   bordercolor="#666666"
   borderopacity="1"
   objecttolerance="10"
   gridtolerance="10"
   guidetolerance="10"
   inkscape:pageopacity="0"
   inkscape:pageshadow="2"
   inkscape:window-width="1440"
   inkscape:window-height="773"
   id="namedview31"
   showgrid="false"
   inkscape:zoom="4.2315921"
   inkscape:cx="39.659178"
   inkscape:cy="-4.1586739"
   inkscape:window-x="0"
   inkscape:window-y="0"
   inkscape:window-maximized="1"
   inkscape:current-layer="Ebene_1" />
<style
   type="text/css"
   id="style2">
	.st0{fill:#FFFFFF;}
</style>

<g
   transform="translate(43.675438,14.68173)"
   clip-path="url(#clip0_267_3232)"
   id="g20"><path
     style="fill:#ffffff"
     inkscape:connector-curvature="0"
     d="m 12.7977,6.21827 c 0.9776,-0.43522 1.664,-1.63725 1.664,-2.86 0,-1.80305 -1.4144,-3.253778 -3.4529,-3.253778 -0.0624,0 -10.795665,0 -10.795665,0 V 2.8816 H 9.38632 c 0.60322,0.02072 1.08168,0.49739 1.08168,1.09841 0,0.60101 -0.49926,1.0984 -1.10248,1.0984 -0.0208,0 -9.152385,0 -9.152385,0 V 12.788 c 0,0 11.190865,0 11.253265,0 1.9553,0 3.4321,-1.5336 3.4321,-3.41958 C 14.9193,7.95914 14.0041,6.67421 12.7977,6.21827 Z M 9.73993,10.156 c -0.0208,0 -0.43682,0 -0.43682,0 H 3.95729 V 7.79335 c 0,0 5.61623,0 5.63704,0 0.0832,0 0.1872,0 0.2288,0.02072 0.58247,0.0829 1.01927,0.58029 1.01927,1.16058 0,0.62174 -0.4784,1.13985 -1.10247,1.18135 z"
     id="path2" /><path
     style="fill:#ffffff"
     inkscape:connector-curvature="0"
     d="M 22.2621,0.104492 16.3962,12.8087 h 3.973 l 4.1394,-9.63696 2.9121,6.81842 h -2.9121 v 2.81854 h 8.1123 L 26.7551,0.104492 Z"
     id="path4-3" /><path
     style="fill:#ffffff"
     inkscape:connector-curvature="0"
     d="M 35.2417,0.104492 V 12.8087 h 9.4228 V 9.96944 H 38.9859 V 0.104492 Z"
     id="path6-6" /><path
     style="fill:#ffffff"
     inkscape:connector-curvature="0"
     d="M 47.8887,0.104492 V 12.8087 h 9.4436 V 9.96944 H 51.6328 V 0.104492 Z"
     id="path8-7" /><path
     style="fill:#ffffff"
     inkscape:connector-curvature="0"
     d="M 59.9741,0.104492 V 9.90726 c 0,1.61654 1.3521,2.88074 3.0785,2.88074 h 6.6979 c 1.7265,0 3.0786,-1.2642 3.0786,-2.88074 V 0.104492 H 69.0849 V 9.49277 c 0,0.26942 -0.208,0.47667 -0.4784,0.47667 h -4.4098 c -0.2704,0 -0.4784,-0.20725 -0.4784,-0.47667 V 0.104492 Z"
     id="path10-5" /><path
     style="fill:#ffffff"
     inkscape:connector-curvature="0"
     d="m 76.469,5.6377 v 7.1707 h 3.7441 V 8.31118 h 5.6995 V 5.6377 Z"
     id="path12-3" /><path
     style="fill:#ffffff"
     inkscape:connector-curvature="0"
     d="M 86.703,0.104492 H 76.469 V 2.98522 h 10.234 z"
     id="path14-5" /><path
     style="fill:#ffffff"
     inkscape:connector-curvature="0"
     d="m 89.7192,5.6377 v 7.1707 h 3.7442 V 8.31118 H 99.35 V 5.6377 Z"
     id="path16-6" /><path
     style="fill:#ffffff"
     inkscape:connector-curvature="0"
     d="M 99.9533,0.104492 H 89.7192 V 2.98522 h 10.2341 z"
     id="path18-2" /></g></svg>