<?xml version="1.0" standalone="no"?><!DOCTYPE svg PUBLIC "-//W3C//DTD SVG 1.1//EN" "http://www.w3.org/Graphics/SVG/1.1/DTD/svg11.dtd" ><svg version="1.1" xmlns="http://www.w3.org/2000/svg"><defs><font horiz-adv-x="0" id="font"><font-face ascent="623" bbox="-141 -250 2366 956" cap-height="646" descent="-377" font-family="KUKA Bulo" font-stretch="normal" font-style="normal" font-weight="400" units-per-em="1000" x-height="488" /><missing-glyph d="M530 0H91V646H530ZM169 578V68H452V578Z" horiz-adv-x="621" /><glyph d="M120 0H18V11L222 648H351L553 12V0H444L395 160H169ZM282 533 195 248H369Z" glyph-name="A" horiz-adv-x="573" unicode="A" /><glyph d="M80 0H-16V11L287 646H735V556H438V374H644V285H438V90H746V0H332V161H157ZM332 539 195 248H332Z" glyph-name="AE" horiz-adv-x="781" unicode="&#198;" /><glyph d="M80 0H-16V11L287 646H735V556H438V374H644V285H438V90H746V0H332V161H157ZM332 539 195 248H332ZM358 695H345V758L568 856H582V769Z" glyph-name="AEacute" horiz-adv-x="781" unicode="&#508;" /><glyph d="M80 0H-16V11L287 646H735V556H438V374H644V285H438V90H746V0H332V161H157ZM332 539 195 248H332ZM567 720H268V794H567Z" glyph-name="AEmacron" horiz-adv-x="781" unicode="&#482;" /><glyph d="M120 0H18V11L222 648H351L553 12V0H444L395 160H169ZM282 533 195 248H369ZM193 695H180V758L403 856H417V769Z" glyph-name="Aacute" horiz-adv-x="573" unicode="&#193;" /><glyph d="M120 0H18V11L222 648H351L553 12V0H444L395 160H169ZM282 533 195 248H369ZM420 845V808Q420 756 386 729.5Q352 703 286 703Q220 703 186 729.5Q152 756 152 808V845H212Q214 801 231 784Q248 767 286 767Q324 767 341.5 784.5Q359 802 362 845Z" glyph-name="Abreve" horiz-adv-x="573" unicode="&#258;" /><glyph d="M120 0H18V11L222 648H351L553 12V0H444L395 160H169ZM282 533 195 248H369ZM301 702H264L139 783V851H151L283 774L415 851H427V783Z" glyph-name="Acaron" horiz-adv-x="573" unicode="&#461;" /><glyph d="M120 0H18V11L222 648H351L553 12V0H444L395 160H169ZM282 533 195 248H369ZM154 697H142V765L267 847H304L430 765V697H418L286 774Z" glyph-name="Acircumflex" horiz-adv-x="573" unicode="&#194;" /><glyph d="M120 0H18V11L222 648H351L553 12V0H444L395 160H169ZM282 533 195 248H369ZM374 823Q402 823 415.5 809.5Q429 796 429 769Q429 743 415 729.5Q401 716 374 716Q347 716 333 729.5Q319 743 319 769Q319 796 332.5 809.5Q346 823 374 823ZM201 823Q229 823 243 809.5Q257 796 257 769Q257 743 243 729.5Q229 716 201 716Q174 716 160.5 729Q147 742 147 769Q147 796 160.5 809.5Q174 823 201 823Z" glyph-name="Adieresis" horiz-adv-x="573" unicode="&#196;" /><glyph d="M436 865H137V939H436ZM371 813Q399 813 412.5 799.5Q426 786 426 759Q426 733 412 719.5Q398 706 371 706Q344 706 330 719.5Q316 733 316 759Q316 786 329.5 799.5Q343 813 371 813ZM198 813Q226 813 240 799.5Q254 786 254 759Q254 733 240 719.5Q226 706 198 706Q171 706 157.5 719Q144 732 144 759Q144 786 157.5 799.5Q171 813 198 813ZM120 0H18V11L222 648H351L553 12V0H444L395 160H169ZM282 533 195 248H369Z" glyph-name="Adieresismacron" horiz-adv-x="573" unicode="&#478;" /><glyph d="M120 0H18V11L222 648H351L553 12V0H444L395 160H169ZM282 533 195 248H369ZM284 827Q312 827 326 812.5Q340 798 340 770Q340 742 326 728.5Q312 715 284 715Q256 715 242.5 729Q229 743 229 770Q229 798 243 812.5Q257 827 284 827Z" glyph-name="Adotabove" horiz-adv-x="573" /><glyph d="M120 0H18V11L222 648H351L553 12V0H444L395 160H169ZM282 533 195 248H369ZM407 706H338L170 834V846H274L407 718ZM256 706H188L19 834V846H123L256 718Z" glyph-name="Adoublegrave" horiz-adv-x="573" /><glyph d="M120 0H18V11L222 648H351L553 12V0H444L395 160H169ZM282 533 195 248H369ZM394 695H380L157 769V856H170L394 758Z" glyph-name="Agrave" horiz-adv-x="573" unicode="&#192;" /><glyph d="M120 0H18V11L222 648H351L553 12V0H444L395 160H169ZM282 533 195 248H369ZM212 703H152V739Q152 791 186 818Q220 845 286 845Q352 845 386 818Q420 791 420 739V703H362Q359 746 341.5 763Q324 780 286 780Q248 780 231 763Q214 746 212 703Z" glyph-name="Ainvertedbreve" horiz-adv-x="573" unicode="&#514;" /><glyph d="M120 0H18V11L222 648H351L553 12V0H444L395 160H169ZM282 533 195 248H369ZM434 720H135V794H434Z" glyph-name="Amacron" horiz-adv-x="573" unicode="&#256;" /><glyph d="M120 0H18V11L222 648H351L553 12V0H444L282 533Z" glyph-name="Anocross" horiz-adv-x="573" /><glyph d="M120 0H18V11L222 648H351L553 12V0H515Q481 -19 467.5 -38Q454 -57 454 -82Q454 -105 466 -118Q478 -131 499 -131Q515 -131 529.5 -125Q544 -119 560 -106L589 -150Q564 -175 538.5 -185Q513 -195 476 -195Q429 -195 402 -168Q375 -141 375 -95Q375 -57 391 -28.5Q407 0 438 19L395 160H169ZM282 533 195 248H369Z" glyph-name="Aogonek" horiz-adv-x="573" unicode="&#260;" /><glyph d="M120 0H18V11L222 648H351L553 12V0H444L395 160H169ZM282 533 195 248H369ZM285 876Q335 876 360 853Q385 830 385 783Q385 739 358.5 715Q332 691 285 691Q235 691 209.5 714Q184 737 184 783Q184 827 211 851.5Q238 876 285 876ZM285 831Q264 831 255.5 820.5Q247 810 247 783Q247 757 256 745.5Q265 734 285 734Q306 734 314.5 745Q323 756 323 783Q323 809 314.5 820Q306 831 285 831Z" glyph-name="Aring" horiz-adv-x="573" unicode="&#197;" /><glyph d="M381 779Q381 736 357.5 713.5Q334 691 289 691Q242 691 219.5 712.5Q197 734 197 779Q197 810 210 830.5Q223 851 248 860L416 956H428V888L345 854Q363 844 372 825.5Q381 807 381 779ZM289 827Q268 827 259 816Q250 805 250 779Q250 753 259 741.5Q268 730 289 730Q310 730 318.5 741Q327 752 327 779Q327 804 318 815.5Q309 827 289 827ZM120 0H18V11L222 648H351L553 12V0H444L395 160H169ZM282 533 195 248H369Z" glyph-name="Aringacute" horiz-adv-x="573" unicode="&#506;" /><glyph d="M232 745Q219 745 207.5 736.5Q196 728 185 711L137 746Q155 782 178 799Q201 816 233 816Q242 816 253.5 813.5Q265 811 288 803Q311 795 322.5 792.5Q334 790 344 790Q360 790 372 797Q384 804 397 823L443 787Q428 752 403.5 735Q379 718 343 718Q329 718 316 721Q303 724 280 733Q261 740 251 742.5Q241 745 232 745ZM120 0H18V11L222 648H351L553 12V0H444L395 160H169ZM282 533 195 248H369Z" glyph-name="Atilde" horiz-adv-x="573" unicode="&#195;" /><glyph d="M314 0H90V646H300Q391 646 437.5 603Q484 560 484 477Q484 429 460 392Q436 355 398 341Q454 330 484.5 289.5Q515 249 515 184Q515 93 464 46.5Q413 0 314 0ZM196 557V373H281Q329 373 352.5 395.5Q376 418 376 464Q376 510 352 533.5Q328 557 281 557ZM196 287V89H298Q354 89 379.5 113Q405 137 405 188Q405 239 379 263Q353 287 298 287Z" glyph-name="B" horiz-adv-x="559" unicode="B" /><glyph d="M477 123 508 47Q473 19 426 4.5Q379 -10 326 -10Q188 -10 120.5 72.5Q53 155 53 323Q53 486 124 571Q195 656 328 656Q375 656 416 645Q457 634 493 612L462 529Q428 548 396.5 556.5Q365 565 331 565Q241 565 202.5 508Q164 451 164 323Q164 197 203 139Q242 81 330 81Q371 81 404.5 90.5Q438 100 477 123Z" glyph-name="C" horiz-adv-x="533" unicode="C" /><glyph d="M477 123 508 47Q473 19 426 4.5Q379 -10 326 -10Q188 -10 120.5 72.5Q53 155 53 323Q53 486 124 571Q195 656 328 656Q375 656 416 645Q457 634 493 612L462 529Q428 548 396.5 556.5Q365 565 331 565Q241 565 202.5 508Q164 451 164 323Q164 197 203 139Q242 81 330 81Q371 81 404.5 90.5Q438 100 477 123ZM203 695H190V758L413 856H427V769Z" glyph-name="Cacute" horiz-adv-x="533" unicode="&#262;" /><glyph d="M477 123 508 47Q473 19 426 4.5Q379 -10 326 -10Q188 -10 120.5 72.5Q53 155 53 323Q53 486 124 571Q195 656 328 656Q375 656 416 645Q457 634 493 612L462 529Q428 548 396.5 556.5Q365 565 331 565Q241 565 202.5 508Q164 451 164 323Q164 197 203 139Q242 81 330 81Q371 81 404.5 90.5Q438 100 477 123ZM333 702H296L171 783V851H183L315 774L447 851H459V783Z" glyph-name="Ccaron" horiz-adv-x="533" unicode="&#268;" /><glyph d="M296 -217Q268 -217 244.5 -206.5Q221 -196 201 -174L226 -136Q246 -151 259 -156Q272 -161 284 -161Q306 -161 317 -152Q328 -143 328 -125Q328 -104 310 -93Q292 -82 255 -81L275 -7Q163 7 108 89Q53 171 53 323Q53 486 124 571Q195 656 328 656Q375 656 416 645Q457 634 493 612L462 529Q428 548 396.5 556.5Q365 565 331 565Q241 565 202.5 508Q164 451 164 323Q164 197 203 139Q242 81 330 81Q371 81 404.5 90.5Q438 100 477 123L508 47Q475 21 430.5 6.5Q386 -8 335 -10L325 -46Q361 -52 380 -72Q399 -92 399 -125Q399 -166 371 -191.5Q343 -217 296 -217Z" glyph-name="Ccedilla" horiz-adv-x="533" unicode="&#199;" /><glyph d="M477 123 508 47Q473 19 426 4.5Q379 -10 326 -10Q188 -10 120.5 72.5Q53 155 53 323Q53 486 124 571Q195 656 328 656Q375 656 416 645Q457 634 493 612L462 529Q428 548 396.5 556.5Q365 565 331 565Q241 565 202.5 508Q164 451 164 323Q164 197 203 139Q242 81 330 81Q371 81 404.5 90.5Q438 100 477 123ZM178 697H166V765L291 847H328L454 765V697H442L310 774Z" glyph-name="Ccircumflex" horiz-adv-x="533" unicode="&#264;" /><glyph d="M477 123 508 47Q473 19 426 4.5Q379 -10 326 -10Q188 -10 120.5 72.5Q53 155 53 323Q53 486 124 571Q195 656 328 656Q375 656 416 645Q457 634 493 612L462 529Q428 548 396.5 556.5Q365 565 331 565Q241 565 202.5 508Q164 451 164 323Q164 197 203 139Q242 81 330 81Q371 81 404.5 90.5Q438 100 477 123ZM310 827Q338 827 352 812.5Q366 798 366 770Q366 742 352 728.5Q338 715 310 715Q282 715 268.5 729Q255 743 255 770Q255 798 269 812.5Q283 827 310 827Z" glyph-name="Cdotaccent" horiz-adv-x="533" unicode="&#266;" /><glyph d="M284 0H90V646H284Q422 646 493 564.5Q564 483 564 323Q564 163 492.5 81.5Q421 0 284 0ZM197 556V90H266Q368 90 411 145.5Q454 201 454 323Q454 445 411 500.5Q368 556 266 556Z" glyph-name="D" horiz-adv-x="617" unicode="D" /><glyph d="M284 0H90V646H284Q422 646 493 564.5Q564 483 564 323Q564 163 492.5 81.5Q421 0 284 0ZM197 556V90H266Q368 90 411 145.5Q454 201 454 323Q454 445 411 500.5Q368 556 266 556ZM300 702H263L138 783V851H150L282 774L414 851H426V783Z" glyph-name="Dcaron" horiz-adv-x="617" unicode="&#270;" /><glyph d="M247 0H90V646H284Q422 646 493 564.5Q564 483 564 323Q564 171 499.5 89.5Q435 8 310 1L296 -46Q332 -52 351 -72Q370 -92 370 -125Q370 -166 342 -191.5Q314 -217 267 -217Q239 -217 215.5 -206.5Q192 -196 172 -174L197 -136Q217 -151 230 -156Q243 -161 255 -161Q277 -161 288 -152Q299 -143 299 -125Q299 -104 281 -93Q263 -82 226 -81ZM197 556V90H266Q368 90 411 145.5Q454 201 454 323Q454 445 411 500.5Q368 556 266 556Z" glyph-name="Dcedilla" horiz-adv-x="617" unicode="&#7696;" /><glyph d="M284 0H90V289H22V370H90V646H284Q422 646 493 564.5Q564 483 564 323Q564 163 492.5 81.5Q421 0 284 0ZM197 289V90H266Q368 90 411 145.5Q454 201 454 323Q454 445 411 500.5Q368 556 266 556H197V370H301V289Z" glyph-name="Dcroat" horiz-adv-x="617" unicode="&#272;" /><glyph d="M284 0H90V646H284Q422 646 493 564.5Q564 483 564 323Q564 163 492.5 81.5Q421 0 284 0ZM197 556V90H266Q368 90 411 145.5Q454 201 454 323Q454 445 411 500.5Q368 556 266 556ZM294 -181Q267 -181 253 -167Q239 -153 239 -125Q239 -97 253 -83Q267 -69 294 -69Q322 -69 336.5 -83Q351 -97 351 -125Q351 -153 336.5 -167Q322 -181 294 -181Z" glyph-name="Ddotbelow" horiz-adv-x="617" unicode="&#7692;" /><glyph d="M562 0H16V20L249 649H328L562 20ZM287 501 139 79H436Z" glyph-name="Delta" horiz-adv-x="578" unicode="&#8710;" /><glyph d="M504 0H90V646H491V556H196V374H402V285H196V90H504Z" glyph-name="E" horiz-adv-x="539" unicode="E" /><glyph d="M504 0H90V646H491V556H196V374H402V285H196V90H504ZM192 695H179V758L402 856H416V769Z" glyph-name="Eacute" horiz-adv-x="539" unicode="&#201;" /><glyph d="M504 0H90V646H491V556H196V374H402V285H196V90H504ZM425 845V808Q425 756 391 729.5Q357 703 291 703Q225 703 191 729.5Q157 756 157 808V845H217Q219 801 236 784Q253 767 291 767Q329 767 346.5 784.5Q364 802 367 845Z" glyph-name="Ebreve" horiz-adv-x="539" unicode="&#276;" /><glyph d="M504 0H90V646H491V556H196V374H402V285H196V90H504ZM301 702H264L139 783V851H151L283 774L415 851H427V783Z" glyph-name="Ecaron" horiz-adv-x="539" unicode="&#282;" /><glyph d="M504 0H90V646H491V556H196V374H402V285H196V90H504ZM162 697H150V765L275 847H312L438 765V697H426L294 774Z" glyph-name="Ecircumflex" horiz-adv-x="539" unicode="&#202;" /><glyph d="M504 0H90V646H491V556H196V374H402V285H196V90H504ZM379 823Q407 823 420.5 809.5Q434 796 434 769Q434 743 420 729.5Q406 716 379 716Q352 716 338 729.5Q324 743 324 769Q324 796 337.5 809.5Q351 823 379 823ZM206 823Q234 823 248 809.5Q262 796 262 769Q262 743 248 729.5Q234 716 206 716Q179 716 165.5 729Q152 742 152 769Q152 796 165.5 809.5Q179 823 206 823Z" glyph-name="Edieresis" horiz-adv-x="539" unicode="&#203;" /><glyph d="M504 0H90V646H491V556H196V374H402V285H196V90H504ZM289 827Q317 827 331 812.5Q345 798 345 770Q345 742 331 728.5Q317 715 289 715Q261 715 247.5 729Q234 743 234 770Q234 798 248 812.5Q262 827 289 827Z" glyph-name="Edotaccent" horiz-adv-x="539" unicode="&#278;" /><glyph d="M504 0H90V646H491V556H196V374H402V285H196V90H504ZM419 706H350L182 834V846H286L419 718ZM268 706H200L31 834V846H135L268 718Z" glyph-name="Edoublegrave" horiz-adv-x="539" /><glyph d="M504 0H90V646H491V556H196V374H402V285H196V90H504ZM381 695H367L144 769V856H157L381 758Z" glyph-name="Egrave" horiz-adv-x="539" unicode="&#200;" /><glyph d="M504 0H90V646H491V556H196V374H402V285H196V90H504ZM217 703H157V739Q157 791 191 818Q225 845 291 845Q357 845 391 818Q425 791 425 739V703H367Q364 746 346.5 763Q329 780 291 780Q253 780 236 763Q219 746 217 703Z" glyph-name="Einvertedbreve" horiz-adv-x="539" unicode="&#518;" /><glyph d="M504 0H90V646H491V556H196V374H402V285H196V90H504ZM436 720H137V794H436Z" glyph-name="Emacron" horiz-adv-x="539" unicode="&#274;" /><glyph d="M190 0H90V646H195L480 180V646H580V32Q580 -89 527 -139Q474 -189 357 -189Q335 -189 312 -184.5Q289 -180 272 -173L286 -89Q301 -94 318 -96.5Q335 -99 349 -99Q412 -99 442 -74Q472 -49 477 7L190 477Z" glyph-name="Eng" horiz-adv-x="670" unicode="&#330;" /><glyph d="M368 0H90V646H491V556H196V374H402V285H196V90H504V0H470Q436 -19 422.5 -38Q409 -57 409 -82Q409 -105 421 -118Q433 -131 454 -131Q470 -131 484.5 -125Q499 -119 515 -106L544 -150Q519 -175 493.5 -185Q468 -195 431 -195Q384 -195 357 -168Q330 -141 330 -95Q330 -66 339.5 -42Q349 -18 368 0Z" glyph-name="Eogonek" horiz-adv-x="539" unicode="&#280;" /><glyph d="M284 0H90V289H22V370H90V646H284Q422 646 493 564.5Q564 483 564 323Q564 163 492.5 81.5Q421 0 284 0ZM197 289V90H266Q368 90 411 145.5Q454 201 454 323Q454 445 411 500.5Q368 556 266 556H197V370H301V289Z" glyph-name="Eth" horiz-adv-x="617" unicode="&#208;" /><glyph d="M113 232H43L48 298H108V326V353H52L56 419H115Q133 535 197.5 595.5Q262 656 365 656Q409 656 447.5 645Q486 634 519 612L488 529Q458 547 429 556Q400 565 369 565Q305 565 271.5 530Q238 495 227 419H413L408 353H221V298H405L400 232H226Q237 154 271 117.5Q305 81 368 81Q406 81 437 90.5Q468 100 502 123L533 47Q499 19 455.5 4.5Q412 -10 364 -10Q254 -10 191.5 50Q129 110 113 232Z" glyph-name="Euro" horiz-adv-x="573" unicode="&#8364;" /><glyph d="M179 -10Q137 -10 95.5 -0.5Q54 9 25 26L55 107Q96 91 123.5 85Q151 79 179 79Q236 79 264 105.5Q292 132 292 186Q292 240 256 264.5Q220 289 122 291V348L263 556H37V646H387V571L231 353V350Q313 344 355.5 302Q398 260 398 185Q398 90 340.5 40Q283 -10 179 -10Z" glyph-name="Ezh" horiz-adv-x="439" unicode="&#439;" /><glyph d="M179 -10Q137 -10 95.5 -0.5Q54 9 25 26L55 107Q96 91 123.5 85Q151 79 179 79Q236 79 264 105.5Q292 132 292 186Q292 240 256 264.5Q220 289 122 291V348L263 556H37V646H387V571L231 353V350Q313 344 355.5 302Q398 260 398 185Q398 90 340.5 40Q283 -10 179 -10ZM221 702H184L59 783V851H71L203 774L335 851H347V783Z" glyph-name="Ezhcaron" horiz-adv-x="439" unicode="&#494;" /><glyph d="M196 0H90V646H479V556H196V358H389V269H196Z" glyph-name="F" horiz-adv-x="491" unicode="F" /><glyph d="M463 -7 457 43Q433 18 395 4Q357 -10 316 -10Q183 -10 118 72.5Q53 155 53 323Q53 486 124.5 571Q196 656 330 656Q386 656 430 645Q474 634 512 611L479 527Q442 547 407.5 556Q373 565 333 565Q242 565 203 507.5Q164 450 164 323Q164 197 202.5 138.5Q241 80 326 80Q359 80 386.5 88Q414 96 440 113V248H339V330H543V-7Z" glyph-name="G" horiz-adv-x="611" unicode="G" /><glyph d="M462 -7 456 43Q432 18 394 4Q356 -10 315 -10Q182 -10 117 72.5Q52 155 52 323Q52 486 123.5 571Q195 656 329 656Q385 656 429 645Q473 634 511 611L478 527Q441 547 406.5 556Q372 565 332 565Q241 565 202 507.5Q163 450 163 323Q163 197 201.5 138.5Q240 80 325 80Q358 80 385.5 88Q413 96 439 113V248H338V330H542V-7ZM223 695H210V758L433 856H447V769Z" glyph-name="Gacute" horiz-adv-x="610" unicode="&#500;" /><glyph d="M462 -7 456 43Q432 18 394 4Q356 -10 315 -10Q182 -10 117 72.5Q52 155 52 323Q52 486 123.5 571Q195 656 329 656Q385 656 429 645Q473 634 511 611L478 527Q441 547 406.5 556Q372 565 332 565Q241 565 202 507.5Q163 450 163 323Q163 197 201.5 138.5Q240 80 325 80Q358 80 385.5 88Q413 96 439 113V248H338V330H542V-7ZM458 845V808Q458 756 424 729.5Q390 703 324 703Q258 703 224 729.5Q190 756 190 808V845H250Q252 801 269 784Q286 767 324 767Q362 767 379.5 784.5Q397 802 400 845Z" glyph-name="Gbreve" horiz-adv-x="610" unicode="&#286;" /><glyph d="M462 -7 456 43Q432 18 394 4Q356 -10 315 -10Q182 -10 117 72.5Q52 155 52 323Q52 486 123.5 571Q195 656 329 656Q385 656 429 645Q473 634 511 611L478 527Q441 547 406.5 556Q372 565 332 565Q241 565 202 507.5Q163 450 163 323Q163 197 201.5 138.5Q240 80 325 80Q358 80 385.5 88Q413 96 439 113V248H338V330H542V-7ZM334 702H297L172 783V851H184L316 774L448 851H460V783Z" glyph-name="Gcaron" horiz-adv-x="610" unicode="&#486;" /><glyph d="M462 -7 456 43Q432 18 394 4Q356 -10 315 -10Q182 -10 117 72.5Q52 155 52 323Q52 486 123.5 571Q195 656 329 656Q385 656 429 645Q473 634 511 611L478 527Q441 547 406.5 556Q372 565 332 565Q241 565 202 507.5Q163 450 163 323Q163 197 201.5 138.5Q240 80 325 80Q358 80 385.5 88Q413 96 439 113V248H338V330H542V-7ZM189 697H177V765L302 847H339L465 765V697H453L321 774Z" glyph-name="Gcircumflex" horiz-adv-x="610" unicode="&#284;" /><glyph d="M318 -134H311Q290 -134 280.5 -124Q271 -114 271 -94Q271 -75 283 -64Q295 -53 315 -53Q344 -53 357.5 -70.5Q371 -88 371 -125Q371 -163 345.5 -188.5Q320 -214 272 -224L259 -191Q294 -180 306 -169Q318 -158 318 -142ZM462 -7 456 43Q432 18 394 4Q356 -10 315 -10Q182 -10 117 72.5Q52 155 52 323Q52 486 123.5 571Q195 656 329 656Q385 656 429 645Q473 634 511 611L478 527Q441 547 406.5 556Q372 565 332 565Q241 565 202 507.5Q163 450 163 323Q163 197 201.5 138.5Q240 80 325 80Q358 80 385.5 88Q413 96 439 113V248H338V330H542V-7Z" glyph-name="Gcommaaccent" horiz-adv-x="610" unicode="&#290;" /><glyph d="M462 -7 456 43Q432 18 394 4Q356 -10 315 -10Q182 -10 117 72.5Q52 155 52 323Q52 486 123.5 571Q195 656 329 656Q385 656 429 645Q473 634 511 611L478 527Q441 547 406.5 556Q372 565 332 565Q241 565 202 507.5Q163 450 163 323Q163 197 201.5 138.5Q240 80 325 80Q358 80 385.5 88Q413 96 439 113V248H338V330H542V-7Z" glyph-name="Gcommaturnedabove" horiz-adv-x="610" /><glyph d="M462 -7 456 43Q432 18 394 4Q356 -10 315 -10Q182 -10 117 72.5Q52 155 52 323Q52 486 123.5 571Q195 656 329 656Q385 656 429 645Q473 634 511 611L478 527Q441 547 406.5 556Q372 565 332 565Q241 565 202 507.5Q163 450 163 323Q163 197 201.5 138.5Q240 80 325 80Q358 80 385.5 88Q413 96 439 113V248H338V330H542V-7ZM318 827Q346 827 360 812.5Q374 798 374 770Q374 742 360 728.5Q346 715 318 715Q290 715 276.5 729Q263 743 263 770Q263 798 277 812.5Q291 827 318 827Z" glyph-name="Gdotaccent" horiz-adv-x="610" unicode="&#288;" /><glyph d="M462 -7 456 43Q432 18 394 4Q356 -10 315 -10Q182 -10 117 72.5Q52 155 52 323Q52 486 123.5 571Q195 656 329 656Q385 656 429 645Q473 634 511 611L478 527Q441 547 406.5 556Q372 565 332 565Q241 565 202 507.5Q163 450 163 323Q163 197 201.5 138.5Q240 80 325 80Q358 80 385.5 88Q413 96 439 113V147H338V195H439V248H338V330H542V195H599V147H542V-7Z" glyph-name="Gstroke" horiz-adv-x="610" unicode="&#484;" /><glyph d="M264 745Q251 745 239.5 736.5Q228 728 217 711L169 746Q187 782 210 799Q233 816 265 816Q274 816 285.5 813.5Q297 811 320 803Q343 795 354.5 792.5Q366 790 376 790Q392 790 404 797Q416 804 429 823L475 787Q460 752 435.5 735Q411 718 375 718Q361 718 348 721Q335 724 312 733Q293 740 283 742.5Q273 745 264 745ZM462 -7 456 43Q432 18 394 4Q356 -10 315 -10Q182 -10 117 72.5Q52 155 52 323Q52 486 123.5 571Q195 656 329 656Q385 656 429 645Q473 634 511 611L478 527Q441 547 406.5 556Q372 565 332 565Q241 565 202 507.5Q163 450 163 323Q163 197 201.5 138.5Q240 80 325 80Q358 80 385.5 88Q413 96 439 113V248H338V330H542V-7Z" glyph-name="Gtilde" horiz-adv-x="610" /><glyph d="M196 0H90V646H196V379H452V646H559V0H452V288H196Z" glyph-name="H" horiz-adv-x="649" unicode="H" /><glyph d="M196 0H90V477H14V550H90V646H196V550H452V646H559V550H635V477H559V0H452V288H196ZM196 477V379H452V477Z" glyph-name="Hbar" horiz-adv-x="649" unicode="&#294;" /><glyph d="M196 0H90V646H196V379H452V646H559V0H452V288H196ZM345 702H308L183 783V851H195L327 774L459 851H471V783Z" glyph-name="Hcaron" horiz-adv-x="649" /><glyph d="M196 0H90V646H196V379H452V646H559V0H452V288H196ZM195 697H183V765L308 847H345L471 765V697H459L327 774Z" glyph-name="Hcircumflex" horiz-adv-x="649" unicode="&#292;" /><glyph d="M319 -181Q292 -181 278 -167Q264 -153 264 -125Q264 -97 278 -83Q292 -69 319 -69Q347 -69 361.5 -83Q376 -97 376 -125Q376 -153 361.5 -167Q347 -181 319 -181ZM196 0H90V646H196V379H452V646H559V0H452V288H196Z" glyph-name="Hdotbelow" horiz-adv-x="649" unicode="&#7716;" /><glyph d="M196 0H90V646H196V379H452V646H559V0H452V288H196ZM470 -168H171V-94H470Z" glyph-name="Hmacronbelow" horiz-adv-x="649" /><glyph d="M198 0H92V646H198Z" glyph-name="I" horiz-adv-x="290" unicode="I" /><glyph d="M198 0H92V646H198ZM390 -10Q368 -10 344.5 -5.5Q321 -1 304 6L319 90Q333 86 352 83Q371 80 386 80Q455 80 481.5 112Q508 144 508 233V646H614V211Q614 91 560.5 40.5Q507 -10 390 -10Z" glyph-name="IJ" horiz-adv-x="697" unicode="&#306;" /><glyph d="M198 0H92V646H198ZM84 695H71V758L294 856H308V769Z" glyph-name="Iacute" horiz-adv-x="290" unicode="&#205;" /><glyph d="M198 0H92V646H198ZM279 845V808Q279 756 245 729.5Q211 703 145 703Q79 703 45 729.5Q11 756 11 808V845H71Q73 801 90 784Q107 767 145 767Q183 767 200.5 784.5Q218 802 221 845Z" glyph-name="Ibreve" horiz-adv-x="290" unicode="&#300;" /><glyph d="M198 0H92V646H198ZM163 702H126L1 783V851H13L145 774L277 851H289V783Z" glyph-name="Icaron" horiz-adv-x="290" unicode="&#463;" /><glyph d="M198 0H92V646H198ZM13 697H1V765L126 847H163L289 765V697H277L145 774Z" glyph-name="Icircumflex" horiz-adv-x="290" unicode="&#206;" /><glyph d="M198 0H92V646H198ZM231 823Q259 823 272.5 809.5Q286 796 286 769Q286 743 272 729.5Q258 716 231 716Q204 716 190 729.5Q176 743 176 769Q176 796 189.5 809.5Q203 823 231 823ZM58 823Q86 823 100 809.5Q114 796 114 769Q114 743 100 729.5Q86 716 58 716Q31 716 17.5 729Q4 742 4 769Q4 796 17.5 809.5Q31 823 58 823Z" glyph-name="Idieresis" horiz-adv-x="290" unicode="&#207;" /><glyph d="M198 0H92V646H198ZM145 827Q173 827 187 812.5Q201 798 201 770Q201 742 187 728.5Q173 715 145 715Q117 715 103.5 729Q90 743 90 770Q90 798 104 812.5Q118 827 145 827Z" glyph-name="Idotaccent" horiz-adv-x="290" unicode="&#304;" /><glyph d="M144 -181Q117 -181 103 -167Q89 -153 89 -125Q89 -97 103 -83Q117 -69 144 -69Q172 -69 186.5 -83Q201 -97 201 -125Q201 -153 186.5 -167Q172 -181 144 -181ZM198 0H92V646H198Z" glyph-name="Idotbelow" horiz-adv-x="290" unicode="&#7882;" /><glyph d="M198 0H92V646H198ZM267 706H198L30 834V846H134L267 718ZM116 706H48L-121 834V846H-17L116 718Z" glyph-name="Idoublegrave" horiz-adv-x="290" /><glyph d="M198 0H92V646H198ZM216 695H202L-21 769V856H-8L216 758Z" glyph-name="Igrave" horiz-adv-x="290" unicode="&#204;" /><glyph d="M71 703H11V739Q11 791 45 818Q79 845 145 845Q211 845 245 818Q279 791 279 739V703H221Q218 746 200.5 763Q183 780 145 780Q107 780 90 763Q73 746 71 703ZM198 0H92V646H198Z" glyph-name="Iinvertedbreve" horiz-adv-x="290" unicode="&#522;" /><glyph d="M198 0H92V646H198ZM295 720H-4V794H295Z" glyph-name="Imacron" horiz-adv-x="290" unicode="&#298;" /><glyph d="M51 -95Q51 -65 61.5 -40.5Q72 -16 92 2V646H198V0H191Q157 -19 143.5 -38Q130 -57 130 -82Q130 -105 142 -118Q154 -131 175 -131Q191 -131 205.5 -125Q220 -119 236 -106L265 -150Q240 -175 214.5 -185Q189 -195 152 -195Q105 -195 78 -168Q51 -141 51 -95Z" glyph-name="Iogonek" horiz-adv-x="290" unicode="&#302;" /><glyph d="M87 745Q74 745 62.5 736.5Q51 728 40 711L-8 746Q10 782 33 799Q56 816 88 816Q97 816 108.5 813.5Q120 811 143 803Q166 795 177.5 792.5Q189 790 199 790Q215 790 227 797Q239 804 252 823L298 787Q283 752 258.5 735Q234 718 198 718Q184 718 171 721Q158 724 135 733Q116 740 106 742.5Q96 745 87 745ZM198 0H92V646H198Z" glyph-name="Itilde" horiz-adv-x="290" unicode="&#296;" /><glyph d="M100 -10Q78 -10 54.5 -5.5Q31 -1 14 6L29 90Q43 86 62 83Q81 80 96 80Q165 80 191.5 112Q218 144 218 233V646H324V211Q324 91 270.5 40.5Q217 -10 100 -10Z" glyph-name="J" horiz-adv-x="407" unicode="J" /><glyph d="M100 -10Q78 -10 54.5 -5.5Q31 -1 14 6L29 90Q43 86 62 83Q81 80 96 80Q165 80 191.5 112Q218 144 218 233V646H324V211Q324 91 270.5 40.5Q217 -10 100 -10ZM286 702H249L124 783V851H136L268 774L400 851H412V783Z" glyph-name="Jcaron" horiz-adv-x="407" /><glyph d="M100 -10Q78 -10 54.5 -5.5Q31 -1 14 6L29 90Q43 86 62 83Q81 80 96 80Q165 80 191.5 112Q218 144 218 233V646H324V211Q324 91 270.5 40.5Q217 -10 100 -10ZM137 697H125V765L250 847H287L413 765V697H401L269 774Z" glyph-name="Jcircumflex" horiz-adv-x="407" unicode="&#308;" /><glyph d="M196 0H90V646H196V355L462 646H585V635L332 358L578 11V0H453L257 280L196 216Z" glyph-name="K" horiz-adv-x="588" unicode="K" /><glyph d="M196 0H90V646H196V355L462 646H585V635L332 358L578 11V0H453L257 280L196 216ZM915 -10Q786 -10 732.5 49Q679 108 679 240V646H785V256Q785 157 811.5 119.5Q838 82 915 82Q991 82 1017.5 120.5Q1044 159 1044 260V646H1150V245Q1150 115 1093 52.5Q1036 -10 915 -10ZM1406 0H1300V646H1406V355L1672 646H1795V635L1542 358L1788 11V0H1663L1467 280L1406 216ZM1933 0H1831V11L2035 648H2164L2366 12V0H2257L2208 160H1982ZM2095 533 2008 248H2182Z" glyph-name="KUKA" horiz-adv-x="2386" /><glyph d="M196 0H90V646H196V355L462 646H585V635L332 358L578 11V0H453L257 280L196 216ZM337 702H300L175 783V851H187L319 774L451 851H463V783Z" glyph-name="Kcaron" horiz-adv-x="588" unicode="&#488;" /><glyph d="M120 0H90V646H196V355L462 646H585V635L332 358L578 11V0H453L257 280L196 216V0H182L169 -46Q205 -52 224 -72Q243 -92 243 -125Q243 -166 215 -191.5Q187 -217 140 -217Q112 -217 88.5 -206.5Q65 -196 45 -174L70 -136Q90 -151 103 -156Q116 -161 128 -161Q150 -161 161 -152Q172 -143 172 -125Q172 -104 154 -93Q136 -82 99 -81Z" glyph-name="Kcedilla" horiz-adv-x="588" unicode="&#57613;" /><glyph d="M303 -124H296Q275 -124 265.5 -114Q256 -104 256 -84Q256 -65 268 -54Q280 -43 300 -43Q329 -43 342.5 -60.5Q356 -78 356 -115Q356 -153 330.5 -178.5Q305 -204 257 -214L244 -181Q279 -170 291 -159Q303 -148 303 -132ZM196 0H90V646H196V355L462 646H585V635L332 358L578 11V0H453L257 280L196 216Z" glyph-name="Kcommaaccent" horiz-adv-x="588" unicode="&#310;" /><glyph d="M196 0H90V646H196V353L403 594Q435 631 460 643.5Q485 656 518 656Q541 656 566 648.5Q591 641 609 629L568 546Q555 554 546.5 557Q538 560 530 560Q515 560 502.5 552.5Q490 545 469 521L328 363L578 11V0H453L256 282L196 215Z" glyph-name="Khook" horiz-adv-x="588" unicode="&#408;" /><glyph d="M464 0H90V646H196V92H464Z" glyph-name="L" horiz-adv-x="481" unicode="L" /><glyph d="M464 0H90V646H196V92H464ZM98 695H85V758L308 856H322V769Z" glyph-name="Lacute" horiz-adv-x="481" unicode="&#313;" /><glyph d="M321 461H273V472L316 646H392V635ZM464 0H90V646H196V92H464Z" glyph-name="Lcaron" horiz-adv-x="481" unicode="&#317;" /><glyph d="M240 0H90V646H196V92H464V0H302L289 -46Q325 -52 344 -72Q363 -92 363 -125Q363 -166 335 -191.5Q307 -217 260 -217Q232 -217 208.5 -206.5Q185 -196 165 -174L190 -136Q210 -151 223 -156Q236 -161 248 -161Q270 -161 281 -152Q292 -143 292 -125Q292 -104 274 -93Q256 -82 219 -81Z" glyph-name="Lcedilla" horiz-adv-x="481" unicode="&#57615;" /><glyph d="M283 -124H276Q255 -124 245.5 -114Q236 -104 236 -84Q236 -65 248 -54Q260 -43 280 -43Q309 -43 322.5 -60.5Q336 -78 336 -115Q336 -153 310.5 -178.5Q285 -204 237 -214L224 -181Q259 -170 271 -159Q283 -148 283 -132ZM464 0H90V646H196V92H464Z" glyph-name="Lcommaaccent" horiz-adv-x="481" unicode="&#315;" /><glyph d="M464 0H90V646H196V92H464ZM931 0H557V646H663V92H931Z" glyph-name="Ldot" horiz-adv-x="948" unicode="&#319;" /><glyph d="M262 -181Q235 -181 221 -167Q207 -153 207 -125Q207 -97 221 -83Q235 -69 262 -69Q290 -69 304.5 -83Q319 -97 319 -125Q319 -153 304.5 -167Q290 -181 262 -181ZM464 0H90V646H196V92H464Z" glyph-name="Ldotbelow" horiz-adv-x="481" unicode="&#7734;" /><glyph d="M297 720H-2V794H297ZM321 -142Q321 -170 306.5 -184Q292 -198 264 -198Q237 -198 223 -184Q209 -170 209 -142Q209 -114 223 -100Q237 -86 264 -86Q292 -86 306.5 -100Q321 -114 321 -142ZM464 0H90V646H196V92H464Z" glyph-name="Ldotbelowmacron" horiz-adv-x="481" unicode="&#7736;" /><glyph d="M464 0H90V261L27 221H17V298L90 346V646H196V415L278 469H287V389L196 330V92H464Z" glyph-name="Lslash" horiz-adv-x="481" unicode="&#321;" /><glyph d="M191 0H90V646H241L407 227L575 646H718V0H617V519L440 93H366L191 519Z" glyph-name="M" horiz-adv-x="808" unicode="M" /><glyph d="M191 0H90V646H241L407 227L575 646H718V0H617V519L440 93H366L191 519ZM410 -135Q410 -114 393 -104Q376 -94 336 -93L348 -45Q352 -45 357 -44.5Q362 -44 367 -44Q421 -44 451 -68Q481 -92 481 -135Q481 -177 453 -202Q425 -227 378 -227Q350 -227 325.5 -216Q301 -205 283 -184L308 -146Q325 -160 338.5 -165.5Q352 -171 366 -171Q388 -171 399 -162Q410 -153 410 -135Z" glyph-name="Mcedilla" horiz-adv-x="808" /><glyph d="M403 -181Q376 -181 362 -167Q348 -153 348 -125Q348 -97 362 -83Q376 -69 403 -69Q431 -69 445.5 -83Q460 -97 460 -125Q460 -153 445.5 -167Q431 -181 403 -181ZM191 0H90V646H241L407 227L575 646H718V0H617V519L440 93H366L191 519Z" glyph-name="Mdotbelow" horiz-adv-x="808" unicode="&#7746;" /><glyph d="M191 0H90V646H241L407 227L575 646H718V0H617V519L440 93H366L191 519ZM555 720H256V794H555Z" glyph-name="Mmacron" horiz-adv-x="808" /><glyph d="M188 0H90V646H194L479 180V646H578V0H481L188 477Z" glyph-name="N" horiz-adv-x="668" unicode="N" /><glyph glyph-name="NULL" horiz-adv-x="0" /><glyph d="M188 0H90V646H194L479 180V646H578V0H481L188 477ZM254 695H241V758L464 856H478V769Z" glyph-name="Nacute" horiz-adv-x="668" unicode="&#323;" /><glyph d="M188 0H90V646H194L479 180V646H578V0H481L188 477ZM353 702H316L191 783V851H203L335 774L467 851H479V783Z" glyph-name="Ncaron" horiz-adv-x="668" unicode="&#327;" /><glyph d="M347 -135Q347 -114 330 -104Q313 -94 273 -93L285 -45Q289 -45 294 -44.5Q299 -44 304 -44Q358 -44 388 -68Q418 -92 418 -135Q418 -177 390 -202Q362 -227 315 -227Q287 -227 262.5 -216Q238 -205 220 -184L245 -146Q262 -160 275.5 -165.5Q289 -171 303 -171Q325 -171 336 -162Q347 -153 347 -135ZM188 0H90V646H194L479 180V646H578V0H481L188 477Z" glyph-name="Ncedilla" horiz-adv-x="668" unicode="&#57625;" /><glyph d="M328 -124H321Q300 -124 290.5 -114Q281 -104 281 -84Q281 -65 293 -54Q305 -43 325 -43Q354 -43 367.5 -60.5Q381 -78 381 -115Q381 -153 355.5 -178.5Q330 -204 282 -214L269 -181Q304 -170 316 -159Q328 -148 328 -132ZM188 0H90V646H194L479 180V646H578V0H481L188 477Z" glyph-name="Ncommaaccent" horiz-adv-x="668" unicode="&#325;" /><glyph d="M188 0H90V646H194L479 180V646H578V-142H491V0H481L188 477Z" glyph-name="Ndescender" horiz-adv-x="668" /><glyph d="M188 0H90V646H194L479 180V646H578V0H481L188 477ZM427 823Q455 823 468.5 809.5Q482 796 482 769Q482 743 468 729.5Q454 716 427 716Q400 716 386 729.5Q372 743 372 769Q372 796 385.5 809.5Q399 823 427 823ZM254 823Q282 823 296 809.5Q310 796 310 769Q310 743 296 729.5Q282 716 254 716Q227 716 213.5 729Q200 742 200 769Q200 796 213.5 809.5Q227 823 254 823Z" glyph-name="Ndieresis" horiz-adv-x="668" /><glyph d="M188 0H90V646H194L479 180V646H578V0H481L188 477ZM336 827Q364 827 378 812.5Q392 798 392 770Q392 742 378 728.5Q364 715 336 715Q308 715 294.5 729Q281 743 281 770Q281 798 295 812.5Q309 827 336 827Z" glyph-name="Ndotaccent" horiz-adv-x="668" unicode="&#7748;" /><glyph d="M336 -181Q309 -181 295 -167Q281 -153 281 -125Q281 -97 295 -83Q309 -69 336 -69Q364 -69 378.5 -83Q393 -97 393 -125Q393 -153 378.5 -167Q364 -181 336 -181ZM188 0H90V646H194L479 180V646H578V0H481L188 477Z" glyph-name="Ndotbelow" horiz-adv-x="668" unicode="&#7750;" /><glyph d="M188 0H90V646H194L479 180V646H578V0H481L188 477ZM433 695H419L196 769V856H209L433 758Z" glyph-name="Ngrave" horiz-adv-x="668" /><glyph d="M188 0H90V646H194L479 180V646H578V0H481L188 477ZM484 720H185V794H484Z" glyph-name="Nmacron" horiz-adv-x="668" /><glyph d="M283 745Q270 745 258.5 736.5Q247 728 236 711L188 746Q206 782 229 799Q252 816 284 816Q293 816 304.5 813.5Q316 811 339 803Q362 795 373.5 792.5Q385 790 395 790Q411 790 423 797Q435 804 448 823L494 787Q479 752 454.5 735Q430 718 394 718Q380 718 367 721Q354 724 331 733Q312 740 302 742.5Q292 745 283 745ZM188 0H90V646H194L479 180V646H578V0H481L188 477Z" glyph-name="Ntilde" horiz-adv-x="668" unicode="&#209;" /><glyph d="M313 656Q444 656 508.5 573Q573 490 573 323Q573 160 505.5 75Q438 -10 313 -10Q182 -10 117.5 73Q53 156 53 323Q53 486 120.5 571Q188 656 313 656ZM313 566Q230 566 197 510.5Q164 455 164 323Q164 195 198.5 137.5Q233 80 313 80Q396 80 429.5 136Q463 192 463 323Q463 451 428.5 508.5Q394 566 313 566Z" glyph-name="O" horiz-adv-x="627" unicode="O" /><glyph d="M832 0H438Q418 -4 380.5 -7Q343 -10 313 -10Q182 -10 117.5 73Q53 156 53 322Q53 484 121 570Q189 656 313 656Q348 656 378.5 653.5Q409 651 430 646H821V556H524V374H730V285H524V90H832ZM313 567Q231 567 197.5 510.5Q164 454 164 322Q164 194 198.5 136.5Q233 79 313 79Q345 79 374.5 81.5Q404 84 418 88V557Q401 562 372 564.5Q343 567 313 567Z" glyph-name="OE" horiz-adv-x="867" unicode="&#338;" /><glyph d="M313 656Q444 656 508.5 573Q573 490 573 323Q573 160 505.5 75Q438 -10 313 -10Q182 -10 117.5 73Q53 156 53 323Q53 486 120.5 571Q188 656 313 656ZM313 566Q230 566 197 510.5Q164 455 164 323Q164 195 198.5 137.5Q233 80 313 80Q396 80 429.5 136Q463 192 463 323Q463 451 428.5 508.5Q394 566 313 566ZM226 695H213V758L436 856H450V769Z" glyph-name="Oacute" horiz-adv-x="627" unicode="&#211;" /><glyph d="M313 656Q444 656 508.5 573Q573 490 573 323Q573 160 505.5 75Q438 -10 313 -10Q182 -10 117.5 73Q53 156 53 323Q53 486 120.5 571Q188 656 313 656ZM313 566Q230 566 197 510.5Q164 455 164 323Q164 195 198.5 137.5Q233 80 313 80Q396 80 429.5 136Q463 192 463 323Q463 451 428.5 508.5Q394 566 313 566ZM447 845V808Q447 756 413 729.5Q379 703 313 703Q247 703 213 729.5Q179 756 179 808V845H239Q241 801 258 784Q275 767 313 767Q351 767 368.5 784.5Q386 802 389 845Z" glyph-name="Obreve" horiz-adv-x="627" unicode="&#334;" /><glyph d="M313 656Q444 656 508.5 573Q573 490 573 323Q573 160 505.5 75Q438 -10 313 -10Q182 -10 117.5 73Q53 156 53 323Q53 486 120.5 571Q188 656 313 656ZM313 566Q230 566 197 510.5Q164 455 164 323Q164 195 198.5 137.5Q233 80 313 80Q396 80 429.5 136Q463 192 463 323Q463 451 428.5 508.5Q394 566 313 566ZM331 702H294L169 783V851H181L313 774L445 851H457V783Z" glyph-name="Ocaron" horiz-adv-x="627" unicode="&#465;" /><glyph d="M293 -217Q265 -217 241.5 -206.5Q218 -196 198 -174L223 -136Q243 -151 256 -156Q269 -161 281 -161Q303 -161 314 -152Q325 -143 325 -125Q325 -104 307 -93Q289 -82 252 -81L271 -7Q161 5 107 87.5Q53 170 53 323Q53 486 120.5 571Q188 656 313 656Q444 656 508.5 573Q573 490 573 323Q573 167 511 82Q449 -3 332 -9L322 -46Q358 -52 377 -72Q396 -92 396 -125Q396 -166 368 -191.5Q340 -217 293 -217ZM313 566Q230 566 197 510.5Q164 455 164 323Q164 195 198.5 137.5Q233 80 313 80Q396 80 429.5 136Q463 192 463 323Q463 451 428.5 508.5Q394 566 313 566Z" glyph-name="Ocedilla" horiz-adv-x="627" /><glyph d="M313 656Q444 656 508.5 573Q573 490 573 323Q573 160 505.5 75Q438 -10 313 -10Q182 -10 117.5 73Q53 156 53 323Q53 486 120.5 571Q188 656 313 656ZM313 566Q230 566 197 510.5Q164 455 164 323Q164 195 198.5 137.5Q233 80 313 80Q396 80 429.5 136Q463 192 463 323Q463 451 428.5 508.5Q394 566 313 566ZM181 697H169V765L294 847H331L457 765V697H445L313 774Z" glyph-name="Ocircumflex" horiz-adv-x="627" unicode="&#212;" /><glyph d="M313 656Q444 656 508.5 573Q573 490 573 323Q573 160 505.5 75Q438 -10 313 -10Q182 -10 117.5 73Q53 156 53 323Q53 486 120.5 571Q188 656 313 656ZM313 566Q230 566 197 510.5Q164 455 164 323Q164 195 198.5 137.5Q233 80 313 80Q396 80 429.5 136Q463 192 463 323Q463 451 428.5 508.5Q394 566 313 566Z" glyph-name="Ocommaturnedabove" horiz-adv-x="627" /><glyph d="M313 656Q444 656 508.5 573Q573 490 573 323Q573 160 505.5 75Q438 -10 313 -10Q182 -10 117.5 73Q53 156 53 323Q53 486 120.5 571Q188 656 313 656ZM313 566Q230 566 197 510.5Q164 455 164 323Q164 195 198.5 137.5Q233 80 313 80Q396 80 429.5 136Q463 192 463 323Q463 451 428.5 508.5Q394 566 313 566ZM399 823Q427 823 440.5 809.5Q454 796 454 769Q454 743 440 729.5Q426 716 399 716Q372 716 358 729.5Q344 743 344 769Q344 796 357.5 809.5Q371 823 399 823ZM226 823Q254 823 268 809.5Q282 796 282 769Q282 743 268 729.5Q254 716 226 716Q199 716 185.5 729Q172 742 172 769Q172 796 185.5 809.5Q199 823 226 823Z" glyph-name="Odieresis" horiz-adv-x="627" unicode="&#214;" /><glyph d="M313 656Q444 656 508.5 573Q573 490 573 323Q573 160 505.5 75Q438 -10 313 -10Q182 -10 117.5 73Q53 156 53 323Q53 486 120.5 571Q188 656 313 656ZM313 566Q230 566 197 510.5Q164 455 164 323Q164 195 198.5 137.5Q233 80 313 80Q396 80 429.5 136Q463 192 463 323Q463 451 428.5 508.5Q394 566 313 566ZM313 827Q341 827 355 812.5Q369 798 369 770Q369 742 355 728.5Q341 715 313 715Q285 715 271.5 729Q258 743 258 770Q258 798 272 812.5Q286 827 313 827Z" glyph-name="Odotabove" horiz-adv-x="627" /><glyph d="M463 863H164V937H463ZM314 819Q342 819 356 804.5Q370 790 370 762Q370 734 356 720.5Q342 707 314 707Q286 707 272.5 721Q259 735 259 762Q259 790 273 804.5Q287 819 314 819ZM313 656Q444 656 508.5 573Q573 490 573 323Q573 160 505.5 75Q438 -10 313 -10Q182 -10 117.5 73Q53 156 53 323Q53 486 120.5 571Q188 656 313 656ZM313 566Q230 566 197 510.5Q164 455 164 323Q164 195 198.5 137.5Q233 80 313 80Q396 80 429.5 136Q463 192 463 323Q463 451 428.5 508.5Q394 566 313 566Z" glyph-name="Odotabovemacron" horiz-adv-x="627" /><glyph d="M312 -181Q285 -181 271 -167Q257 -153 257 -125Q257 -97 271 -83Q285 -69 312 -69Q340 -69 354.5 -83Q369 -97 369 -125Q369 -153 354.5 -167Q340 -181 312 -181ZM313 656Q444 656 508.5 573Q573 490 573 323Q573 160 505.5 75Q438 -10 313 -10Q182 -10 117.5 73Q53 156 53 323Q53 486 120.5 571Q188 656 313 656ZM313 566Q230 566 197 510.5Q164 455 164 323Q164 195 198.5 137.5Q233 80 313 80Q396 80 429.5 136Q463 192 463 323Q463 451 428.5 508.5Q394 566 313 566Z" glyph-name="Odotbelow" horiz-adv-x="627" unicode="&#7884;" /><glyph d="M313 656Q444 656 508.5 573Q573 490 573 323Q573 160 505.5 75Q438 -10 313 -10Q182 -10 117.5 73Q53 156 53 323Q53 486 120.5 571Q188 656 313 656ZM313 566Q230 566 197 510.5Q164 455 164 323Q164 195 198.5 137.5Q233 80 313 80Q396 80 429.5 136Q463 192 463 323Q463 451 428.5 508.5Q394 566 313 566ZM452 706H383L215 834V846H319L452 718ZM301 706H233L64 834V846H168L301 718Z" glyph-name="Odoublegrave" horiz-adv-x="627" /><glyph d="M313 656Q444 656 508.5 573Q573 490 573 323Q573 160 505.5 75Q438 -10 313 -10Q182 -10 117.5 73Q53 156 53 323Q53 486 120.5 571Q188 656 313 656ZM313 566Q230 566 197 510.5Q164 455 164 323Q164 195 198.5 137.5Q233 80 313 80Q396 80 429.5 136Q463 192 463 323Q463 451 428.5 508.5Q394 566 313 566ZM418 695H404L181 769V856H194L418 758Z" glyph-name="Ograve" horiz-adv-x="627" unicode="&#210;" /><glyph d="M313 656Q444 656 508.5 573Q573 490 573 323Q573 160 505.5 75Q438 -10 313 -10Q182 -10 117.5 73Q53 156 53 323Q53 486 120.5 571Q188 656 313 656ZM313 566Q230 566 197 510.5Q164 455 164 323Q164 195 198.5 137.5Q233 80 313 80Q396 80 429.5 136Q463 192 463 323Q463 451 428.5 508.5Q394 566 313 566ZM418 706H349V718L482 846H586V834ZM267 706H198V718L332 846H435V834Z" glyph-name="Ohungarumlaut" horiz-adv-x="627" unicode="&#336;" /><glyph d="M313 656Q444 656 508.5 573Q573 490 573 323Q573 160 505.5 75Q438 -10 313 -10Q182 -10 117.5 73Q53 156 53 323Q53 486 120.5 571Q188 656 313 656ZM313 566Q230 566 197 510.5Q164 455 164 323Q164 195 198.5 137.5Q233 80 313 80Q396 80 429.5 136Q463 192 463 323Q463 451 428.5 508.5Q394 566 313 566ZM239 703H179V739Q179 791 213 818Q247 845 313 845Q379 845 413 818Q447 791 447 739V703H389Q386 746 368.5 763Q351 780 313 780Q275 780 258 763Q241 746 239 703Z" glyph-name="Oinvertedbreve" horiz-adv-x="627" unicode="&#526;" /><glyph d="M313 656Q444 656 508.5 573Q573 490 573 323Q573 160 505.5 75Q438 -10 313 -10Q182 -10 117.5 73Q53 156 53 323Q53 486 120.5 571Q188 656 313 656ZM313 566Q230 566 197 510.5Q164 455 164 323Q164 195 198.5 137.5Q233 80 313 80Q396 80 429.5 136Q463 192 463 323Q463 451 428.5 508.5Q394 566 313 566ZM463 720H164V794H463Z" glyph-name="Omacron" horiz-adv-x="627" unicode="&#332;" /><glyph d="M382 -185Q335 -185 308 -158Q281 -131 281 -85Q281 -63 286.5 -44Q292 -25 302 -10Q300 -10 297.5 -10Q295 -10 293 -10Q172 -3 112.5 79.5Q53 162 53 323Q53 486 120.5 571Q188 656 313 656Q444 656 508.5 573Q573 490 573 323Q573 202 535 123.5Q497 45 423 10Q391 -5 375.5 -25.5Q360 -46 360 -72Q360 -95 372 -108Q384 -121 405 -121Q421 -121 435.5 -115Q450 -109 466 -96L495 -140Q470 -165 444.5 -175Q419 -185 382 -185ZM164 323Q164 195 198.5 137.5Q233 80 313 80Q396 80 429.5 136Q463 192 463 323Q463 451 428.5 508.5Q394 566 313 566Q230 566 197 510.5Q164 455 164 323Z" glyph-name="Oogonek" horiz-adv-x="627" unicode="&#490;" /><glyph d="M382 -185Q335 -185 308 -158Q281 -131 281 -85Q281 -63 286.5 -44Q292 -25 302 -10Q300 -10 297.5 -10Q295 -10 293 -10Q172 -3 112.5 79.5Q53 162 53 323Q53 486 120.5 571Q188 656 313 656Q444 656 508.5 573Q573 490 573 323Q573 202 535 123.5Q497 45 423 10Q391 -5 375.5 -25.5Q360 -46 360 -72Q360 -95 372 -108Q384 -121 405 -121Q421 -121 435.5 -115Q450 -109 466 -96L495 -140Q470 -165 444.5 -175Q419 -185 382 -185ZM164 323Q164 195 198.5 137.5Q233 80 313 80Q396 80 429.5 136Q463 192 463 323Q463 451 428.5 508.5Q394 566 313 566Q230 566 197 510.5Q164 455 164 323ZM463 720H164V794H463Z" glyph-name="Oogonekmacron" horiz-adv-x="627" unicode="&#492;" /><glyph d="M55 -50V-39L121 69Q87 110 70 173.5Q53 237 53 323Q53 486 120.5 571Q188 656 313 656Q356 656 392.5 646.5Q429 637 458 619L505 696H573V685L506 575Q540 533 556.5 470.5Q573 408 573 323Q573 160 505.5 75Q438 -10 313 -10Q269 -10 233.5 -1.5Q198 7 170 25L124 -50ZM164 323Q164 273 168.5 235Q173 197 183 170L406 535Q389 551 366 558.5Q343 566 313 566Q230 566 197 510.5Q164 455 164 323ZM463 323Q463 369 458.5 407Q454 445 444 474L221 109Q237 94 259.5 87Q282 80 313 80Q396 80 429.5 136Q463 192 463 323Z" glyph-name="Oslash" horiz-adv-x="627" unicode="&#216;" /><glyph d="M226 695H213V758L436 856H450V769ZM55 -50V-39L121 69Q87 110 70 173.5Q53 237 53 323Q53 486 120.5 571Q188 656 313 656Q356 656 392.5 646.5Q429 637 458 619L505 696H573V685L506 575Q540 533 556.5 470.5Q573 408 573 323Q573 160 505.5 75Q438 -10 313 -10Q269 -10 233.5 -1.5Q198 7 170 25L124 -50ZM164 323Q164 273 168.5 235Q173 197 183 170L406 535Q389 551 366 558.5Q343 566 313 566Q230 566 197 510.5Q164 455 164 323ZM463 323Q463 369 458.5 407Q454 445 444 474L221 109Q237 94 259.5 87Q282 80 313 80Q396 80 429.5 136Q463 192 463 323Z" glyph-name="Oslashacute" horiz-adv-x="627" unicode="&#510;" /><glyph d="M255 745Q242 745 230.5 736.5Q219 728 208 711L160 746Q178 782 201 799Q224 816 256 816Q265 816 276.5 813.5Q288 811 311 803Q334 795 345.5 792.5Q357 790 367 790Q383 790 395 797Q407 804 420 823L466 787Q451 752 426.5 735Q402 718 366 718Q352 718 339 721Q326 724 303 733Q284 740 274 742.5Q264 745 255 745ZM313 656Q444 656 508.5 573Q573 490 573 323Q573 160 505.5 75Q438 -10 313 -10Q182 -10 117.5 73Q53 156 53 323Q53 486 120.5 571Q188 656 313 656ZM313 566Q230 566 197 510.5Q164 455 164 323Q164 195 198.5 137.5Q233 80 313 80Q396 80 429.5 136Q463 192 463 323Q463 451 428.5 508.5Q394 566 313 566Z" glyph-name="Otilde" horiz-adv-x="627" unicode="&#213;" /><glyph d="M313 656Q444 656 508.5 573Q573 490 573 323Q573 160 505.5 75Q438 -10 313 -10Q182 -10 117.5 73Q53 156 53 323Q53 486 120.5 571Q188 656 313 656ZM313 566Q230 566 197 510.5Q164 455 164 323Q164 195 198.5 137.5Q233 80 313 80Q396 80 429.5 136Q463 192 463 323Q463 451 428.5 508.5Q394 566 313 566ZM256 740Q243 740 231.5 731.5Q220 723 209 706L161 741Q179 777 202 794Q225 811 257 811Q266 811 277.5 808.5Q289 806 312 798Q335 790 346.5 787.5Q358 785 368 785Q384 785 396 792Q408 799 421 818L467 782Q452 747 427.5 730Q403 713 367 713Q353 713 340 716Q327 719 304 728Q285 735 275 737.5Q265 740 256 740ZM464 863H165V937H464Z" glyph-name="Otildemacron" horiz-adv-x="627" /><glyph d="M313 656Q444 656 508.5 573Q573 490 573 323Q573 160 505.5 75Q438 -10 313 -10Q182 -10 117.5 73Q53 156 53 323Q53 486 120.5 571Q188 656 313 656ZM313 566Q230 566 197 510.5Q164 455 164 323Q164 195 198.5 137.5Q233 80 313 80Q396 80 429.5 136Q463 192 463 323Q463 451 428.5 508.5Q394 566 313 566ZM463 -169H164V-95H463Z" glyph-name="Ounderlineaccent" horiz-adv-x="627" /><glyph d="M196 0H90V646H294Q399 646 452 595Q505 544 505 443Q505 342 452 290.5Q399 239 294 239H196ZM196 556V328H275Q339 328 367 355Q395 382 395 443Q395 503 367 529.5Q339 556 275 556Z" glyph-name="P" horiz-adv-x="535" unicode="P" /><glyph d="M196 0H90V646H294Q399 646 452 595Q505 544 505 443Q505 342 452 290.5Q399 239 294 239H196ZM196 556V328H275Q339 328 367 355Q395 382 395 443Q395 503 367 529.5Q339 556 275 556ZM424 720H125V794H424Z" glyph-name="Pmacron" horiz-adv-x="535" /><glyph d="M534 -181H419L298 -9Q174 -5 113.5 78Q53 161 53 323Q53 486 120.5 571Q188 656 313 656Q444 656 508.5 573Q573 490 573 323Q573 192 529.5 111.5Q486 31 402 5L534 -170ZM313 566Q230 566 197 510.5Q164 455 164 323Q164 195 198.5 137.5Q233 80 313 80Q396 80 429.5 136Q463 192 463 323Q463 451 428.5 508.5Q394 566 313 566Z" glyph-name="Q" horiz-adv-x="627" unicode="Q" /><glyph d="M196 0H90V646H284Q390 646 444.5 595Q499 544 499 444Q499 377 472 331.5Q445 286 392 264L547 12V0H432L290 243H243H196ZM196 557V332H265Q331 332 360 358.5Q389 385 389 444Q389 503 359.5 530Q330 557 265 557Z" glyph-name="R" horiz-adv-x="574" unicode="R" /><glyph d="M196 0H90V646H284Q390 646 444.5 595Q499 544 499 444Q499 377 472 331.5Q445 286 392 264L547 12V0H432L290 243H243H196ZM196 557V332H265Q331 332 360 358.5Q389 385 389 444Q389 503 359.5 530Q330 557 265 557ZM182 695H169V758L392 856H406V769Z" glyph-name="Racute" horiz-adv-x="574" unicode="&#340;" /><glyph d="M196 0H90V646H284Q390 646 444.5 595Q499 544 499 444Q499 377 472 331.5Q445 286 392 264L547 12V0H432L290 243H243H196ZM196 557V332H265Q331 332 360 358.5Q389 385 389 444Q389 503 359.5 530Q330 557 265 557ZM302 702H265L140 783V851H152L284 774L416 851H428V783Z" glyph-name="Rcaron" horiz-adv-x="574" unicode="&#344;" /><glyph d="M112 0H90V646H284Q390 646 444.5 595Q499 544 499 444Q499 377 472 331.5Q445 286 392 264L547 12V0H432L290 243H243H196V0H174L161 -46Q197 -52 216 -72Q235 -92 235 -125Q235 -166 207 -191.5Q179 -217 132 -217Q104 -217 80.5 -206.5Q57 -196 37 -174L62 -136Q82 -151 95 -156Q108 -161 120 -161Q142 -161 153 -152Q164 -143 164 -125Q164 -104 146 -93Q128 -82 91 -81ZM196 557V332H265Q331 332 360 358.5Q389 385 389 444Q389 503 359.5 530Q330 557 265 557Z" glyph-name="Rcedilla" horiz-adv-x="574" unicode="&#57639;" /><glyph d="M296 -124H289Q268 -124 258.5 -114Q249 -104 249 -84Q249 -65 261 -54Q273 -43 293 -43Q322 -43 335.5 -60.5Q349 -78 349 -115Q349 -153 323.5 -178.5Q298 -204 250 -214L237 -181Q272 -170 284 -159Q296 -148 296 -132ZM196 0H90V646H284Q390 646 444.5 595Q499 544 499 444Q499 377 472 331.5Q445 286 392 264L547 12V0H432L290 243H243H196ZM196 557V332H265Q331 332 360 358.5Q389 385 389 444Q389 503 359.5 530Q330 557 265 557Z" glyph-name="Rcommaaccent" horiz-adv-x="574" unicode="&#342;" /><glyph d="M287 -181Q260 -181 246 -167Q232 -153 232 -125Q232 -97 246 -83Q260 -69 287 -69Q315 -69 329.5 -83Q344 -97 344 -125Q344 -153 329.5 -167Q315 -181 287 -181ZM196 0H90V646H284Q390 646 444.5 595Q499 544 499 444Q499 377 472 331.5Q445 286 392 264L547 12V0H432L290 243H243H196ZM196 557V332H265Q331 332 360 358.5Q389 385 389 444Q389 503 359.5 530Q330 557 265 557Z" glyph-name="Rdotbelow" horiz-adv-x="574" unicode="&#7770;" /><glyph d="M289 -181Q262 -181 248 -167Q234 -153 234 -125Q234 -97 248 -83Q262 -69 289 -69Q317 -69 331.5 -83Q346 -97 346 -125Q346 -153 331.5 -167Q317 -181 289 -181ZM196 0H90V646H284Q390 646 444.5 595Q499 544 499 444Q499 377 472 331.5Q445 286 392 264L547 12V0H432L290 243H243H196ZM196 557V332H265Q331 332 360 358.5Q389 385 389 444Q389 503 359.5 530Q330 557 265 557ZM429 720H130V794H429Z" glyph-name="Rdotbelowmacron" horiz-adv-x="574" unicode="&#7772;" /><glyph d="M185 0H79V646H273Q379 646 433.5 595Q488 544 488 444Q488 377 461 331.5Q434 286 381 264L536 12V0H421L279 243H232H185ZM185 557V332H254Q320 332 349 358.5Q378 385 378 444Q378 503 348.5 530Q319 557 254 557ZM386 706H317L149 834V846H253L386 718ZM235 706H167L-2 834V846H102L235 718Z" glyph-name="Rdoublegrave" horiz-adv-x="574" /><glyph d="M196 0H90V646H284Q390 646 444.5 595Q499 544 499 444Q499 377 472 331.5Q445 286 392 264L547 12V0H432L290 243H243H196ZM196 557V332H265Q331 332 360 358.5Q389 385 389 444Q389 503 359.5 530Q330 557 265 557ZM201 703H141V739Q141 791 175 818Q209 845 275 845Q341 845 375 818Q409 791 409 739V703H351Q348 746 330.5 763Q313 780 275 780Q237 780 220 763Q203 746 201 703Z" glyph-name="Rinvertedbreve" horiz-adv-x="574" unicode="&#530;" /><glyph d="M227 -10Q172 -10 121 4.5Q70 19 36 43L68 126Q110 102 148.5 91Q187 80 226 80Q278 80 306.5 102.5Q335 125 336 168Q336 203 319 224Q302 245 255 262L192 286Q117 315 81.5 360Q46 405 46 471Q46 557 101 606.5Q156 656 248 656Q298 656 345 645.5Q392 635 425 616L394 528Q363 544 322.5 555Q282 566 249 566Q203 566 179 545.5Q155 525 155 486Q155 450 173 427.5Q191 405 235 388L319 355Q387 327 418 286.5Q449 246 449 185Q449 93 390.5 41.5Q332 -10 227 -10Z" glyph-name="S" horiz-adv-x="496" unicode="S" /><glyph d="M227 -10Q172 -10 121 4.5Q70 19 36 43L68 126Q110 102 148.5 91Q187 80 226 80Q278 80 306.5 102.5Q335 125 336 168Q336 203 319 224Q302 245 255 262L192 286Q117 315 81.5 360Q46 405 46 471Q46 557 101 606.5Q156 656 248 656Q298 656 345 645.5Q392 635 425 616L394 528Q363 544 322.5 555Q282 566 249 566Q203 566 179 545.5Q155 525 155 486Q155 450 173 427.5Q191 405 235 388L319 355Q387 327 418 286.5Q449 246 449 185Q449 93 390.5 41.5Q332 -10 227 -10ZM137 695H124V758L347 856H361V769Z" glyph-name="Sacute" horiz-adv-x="496" unicode="&#346;" /><glyph d="M227 -10Q172 -10 121 4.5Q70 19 36 43L68 126Q110 102 148.5 91Q187 80 226 80Q278 80 306.5 102.5Q335 125 336 168Q336 203 319 224Q302 245 255 262L192 286Q117 315 81.5 360Q46 405 46 471Q46 557 101 606.5Q156 656 248 656Q298 656 345 645.5Q392 635 425 616L394 528Q363 544 322.5 555Q282 566 249 566Q203 566 179 545.5Q155 525 155 486Q155 450 173 427.5Q191 405 235 388L319 355Q387 327 418 286.5Q449 246 449 185Q449 93 390.5 41.5Q332 -10 227 -10ZM259 702H222L97 783V851H109L241 774L373 851H385V783Z" glyph-name="Scaron" horiz-adv-x="496" unicode="&#352;" /><glyph d="M36 43 68 126Q110 102 148.5 91Q187 80 226 80Q278 80 306.5 102.5Q335 125 336 168Q336 203 319 224Q302 245 255 262L192 286Q117 315 81.5 360Q46 405 46 471Q46 557 101 606.5Q156 656 248 656Q298 656 345 645.5Q392 635 425 616L394 528Q363 544 322.5 555Q282 566 249 566Q203 566 179 545.5Q155 525 155 486Q155 450 173 427.5Q191 405 235 388L319 355Q387 327 418 286.5Q449 246 449 185Q449 100 399.5 50Q350 0 260 -8L249 -46Q285 -52 304 -72Q323 -92 323 -125Q323 -166 295 -191.5Q267 -217 220 -217Q192 -217 168.5 -206.5Q145 -196 125 -174L150 -136Q170 -151 183 -156Q196 -161 208 -161Q230 -161 241 -152Q252 -143 252 -125Q252 -104 234 -93Q216 -82 179 -81L198 -9Q150 -6 107 8Q64 22 36 43Z" glyph-name="Scedilla" horiz-adv-x="496" unicode="&#350;" /><glyph d="M302 656Q435 656 502 572Q569 488 569 322Q569 160 501 75Q433 -10 308 -10Q182 -10 124.5 63.5Q67 137 67 292Q67 301 68 313.5Q69 326 70 341H458Q457 449 411.5 503.5Q366 558 278 558Q233 558 195 542.5Q157 527 127 496L78 570Q121 614 176 635Q231 656 302 656ZM308 78Q380 78 415.5 122Q451 166 455 259H172Q174 165 206.5 121.5Q239 78 308 78Z" glyph-name="Schwa" horiz-adv-x="623" unicode="&#399;" /><glyph d="M227 -10Q172 -10 121 4.5Q70 19 36 43L68 126Q110 102 148.5 91Q187 80 226 80Q278 80 306.5 102.5Q335 125 336 168Q336 203 319 224Q302 245 255 262L192 286Q117 315 81.5 360Q46 405 46 471Q46 557 101 606.5Q156 656 248 656Q298 656 345 645.5Q392 635 425 616L394 528Q363 544 322.5 555Q282 566 249 566Q203 566 179 545.5Q155 525 155 486Q155 450 173 427.5Q191 405 235 388L319 355Q387 327 418 286.5Q449 246 449 185Q449 93 390.5 41.5Q332 -10 227 -10ZM109 697H97V765L222 847H259L385 765V697H373L241 774Z" glyph-name="Scircumflex" horiz-adv-x="496" unicode="&#348;" /><glyph d="M232 -124H225Q204 -124 194.5 -114Q185 -104 185 -84Q185 -65 197 -54Q209 -43 229 -43Q258 -43 271.5 -60.5Q285 -78 285 -115Q285 -153 259.5 -178.5Q234 -204 186 -214L173 -181Q208 -170 220 -159Q232 -148 232 -132ZM227 -10Q172 -10 121 4.5Q70 19 36 43L68 126Q110 102 148.5 91Q187 80 226 80Q278 80 306.5 102.5Q335 125 336 168Q336 203 319 224Q302 245 255 262L192 286Q117 315 81.5 360Q46 405 46 471Q46 557 101 606.5Q156 656 248 656Q298 656 345 645.5Q392 635 425 616L394 528Q363 544 322.5 555Q282 566 249 566Q203 566 179 545.5Q155 525 155 486Q155 450 173 427.5Q191 405 235 388L319 355Q387 327 418 286.5Q449 246 449 185Q449 93 390.5 41.5Q332 -10 227 -10Z" glyph-name="Scommaaccent" horiz-adv-x="496" unicode="&#536;" /><glyph d="M244 -181Q217 -181 203 -167Q189 -153 189 -125Q189 -97 203 -83Q217 -69 244 -69Q272 -69 286.5 -83Q301 -97 301 -125Q301 -153 286.5 -167Q272 -181 244 -181ZM227 -10Q172 -10 121 4.5Q70 19 36 43L68 126Q110 102 148.5 91Q187 80 226 80Q278 80 306.5 102.5Q335 125 336 168Q336 203 319 224Q302 245 255 262L192 286Q117 315 81.5 360Q46 405 46 471Q46 557 101 606.5Q156 656 248 656Q298 656 345 645.5Q392 635 425 616L394 528Q363 544 322.5 555Q282 566 249 566Q203 566 179 545.5Q155 525 155 486Q155 450 173 427.5Q191 405 235 388L319 355Q387 327 418 286.5Q449 246 449 185Q449 93 390.5 41.5Q332 -10 227 -10Z" glyph-name="Sdotbelow" horiz-adv-x="496" unicode="&#7778;" /><glyph d="M292 0H185V555H13V646H467V555H292Z" glyph-name="T" horiz-adv-x="480" unicode="T" /><glyph d="M292 0H185V236H76V314H185V555H13V646H467V555H292V314H405V236H292Z" glyph-name="Tbar" horiz-adv-x="480" unicode="&#358;" /><glyph d="M292 0H185V555H13V646H467V555H292ZM258 702H221L96 783V851H108L240 774L372 851H384V783Z" glyph-name="Tcaron" horiz-adv-x="480" unicode="&#356;" /><glyph d="M210 0H185V555H13V646H467V555H292V0H272L259 -46Q295 -52 314 -72Q333 -92 333 -125Q333 -166 305 -191.5Q277 -217 230 -217Q202 -217 178.5 -206.5Q155 -196 135 -174L160 -136Q180 -151 193 -156Q206 -161 218 -161Q240 -161 251 -152Q262 -143 262 -125Q262 -104 244 -93Q226 -82 189 -81Z" glyph-name="Tcedilla" horiz-adv-x="480" unicode="&#57641;" /><glyph d="M210 0H185V555H13V646H467V555H292V0H272L259 -46Q295 -52 314 -72Q333 -92 333 -125Q333 -166 305 -191.5Q277 -217 230 -217Q202 -217 178.5 -206.5Q155 -196 135 -174L160 -136Q180 -151 193 -156Q206 -161 218 -161Q240 -161 251 -152Q262 -143 262 -125Q262 -104 244 -93Q226 -82 189 -81Z" glyph-name="Tcommaaccent" horiz-adv-x="480" unicode="&#354;" /><glyph d="M239 -181Q212 -181 198 -167Q184 -153 184 -125Q184 -97 198 -83Q212 -69 239 -69Q267 -69 281.5 -83Q296 -97 296 -125Q296 -153 281.5 -167Q267 -181 239 -181ZM292 0H185V555H13V646H467V555H292Z" glyph-name="Tdotbelow" horiz-adv-x="480" unicode="&#7788;" /><glyph d="M196 0H90V646H196V533H294Q399 533 452.5 481.5Q506 430 506 329Q506 228 452.5 176.5Q399 125 294 125H196ZM196 443V215H275Q339 215 367 242Q395 269 395 329Q395 390 367 416.5Q339 443 275 443Z" glyph-name="Thorn" horiz-adv-x="538" unicode="&#222;" /><glyph d="M317 -10Q188 -10 134.5 49Q81 108 81 240V646H187V256Q187 157 213.5 119.5Q240 82 317 82Q393 82 419.5 120.5Q446 159 446 260V646H552V245Q552 115 495 52.5Q438 -10 317 -10Z" glyph-name="U" horiz-adv-x="633" unicode="U" /><glyph d="M317 -10Q188 -10 134.5 49Q81 108 81 240V646H187V256Q187 157 213.5 119.5Q240 82 317 82Q393 82 419.5 120.5Q446 159 446 260V646H552V245Q552 115 495 52.5Q438 -10 317 -10ZM224 695H211V758L434 856H448V769Z" glyph-name="Uacute" horiz-adv-x="633" unicode="&#218;" /><glyph d="M317 -10Q188 -10 134.5 49Q81 108 81 240V646H187V256Q187 157 213.5 119.5Q240 82 317 82Q393 82 419.5 120.5Q446 159 446 260V646H552V245Q552 115 495 52.5Q438 -10 317 -10ZM450 845V808Q450 756 416 729.5Q382 703 316 703Q250 703 216 729.5Q182 756 182 808V845H242Q244 801 261 784Q278 767 316 767Q354 767 371.5 784.5Q389 802 392 845Z" glyph-name="Ubreve" horiz-adv-x="633" unicode="&#364;" /><glyph d="M317 -10Q188 -10 134.5 49Q81 108 81 240V646H187V256Q187 157 213.5 119.5Q240 82 317 82Q393 82 419.5 120.5Q446 159 446 260V646H552V245Q552 115 495 52.5Q438 -10 317 -10ZM335 702H298L173 783V851H185L317 774L449 851H461V783Z" glyph-name="Ucaron" horiz-adv-x="633" unicode="&#467;" /><glyph d="M317 -10Q188 -10 134.5 49Q81 108 81 240V646H187V256Q187 157 213.5 119.5Q240 82 317 82Q393 82 419.5 120.5Q446 159 446 260V646H552V245Q552 115 495 52.5Q438 -10 317 -10ZM185 697H173V765L298 847H335L461 765V697H449L317 774Z" glyph-name="Ucircumflex" horiz-adv-x="633" unicode="&#219;" /><glyph d="M317 -10Q188 -10 134.5 49Q81 108 81 240V646H187V256Q187 157 213.5 119.5Q240 82 317 82Q393 82 419.5 120.5Q446 159 446 260V646H552V245Q552 115 495 52.5Q438 -10 317 -10ZM402 823Q430 823 443.5 809.5Q457 796 457 769Q457 743 443 729.5Q429 716 402 716Q375 716 361 729.5Q347 743 347 769Q347 796 360.5 809.5Q374 823 402 823ZM229 823Q257 823 271 809.5Q285 796 285 769Q285 743 271 729.5Q257 716 229 716Q202 716 188.5 729Q175 742 175 769Q175 796 188.5 809.5Q202 823 229 823Z" glyph-name="Udieresis" horiz-adv-x="633" unicode="&#220;" /><glyph d="M315 -181Q288 -181 274 -167Q260 -153 260 -125Q260 -97 274 -83Q288 -69 315 -69Q343 -69 357.5 -83Q372 -97 372 -125Q372 -153 357.5 -167Q343 -181 315 -181ZM317 -10Q188 -10 134.5 49Q81 108 81 240V646H187V256Q187 157 213.5 119.5Q240 82 317 82Q393 82 419.5 120.5Q446 159 446 260V646H552V245Q552 115 495 52.5Q438 -10 317 -10Z" glyph-name="Udotbelow" horiz-adv-x="633" unicode="&#7908;" /><glyph d="M299 -10Q170 -10 116.5 49Q63 108 63 240V646H169V256Q169 157 195.5 119.5Q222 82 299 82Q375 82 401.5 120.5Q428 159 428 260V646H534V245Q534 115 477 52.5Q420 -10 299 -10ZM422 706H353L185 834V846H289L422 718ZM271 706H203L34 834V846H138L271 718Z" glyph-name="Udoublegrave" horiz-adv-x="633" /><glyph d="M317 -10Q188 -10 134.5 49Q81 108 81 240V646H187V256Q187 157 213.5 119.5Q240 82 317 82Q393 82 419.5 120.5Q446 159 446 260V646H552V245Q552 115 495 52.5Q438 -10 317 -10ZM414 695H400L177 769V856H190L414 758Z" glyph-name="Ugrave" horiz-adv-x="633" unicode="&#217;" /><glyph d="M317 -10Q188 -10 134.5 49Q81 108 81 240V646H187V256Q187 157 213.5 119.5Q240 82 317 82Q393 82 419.5 120.5Q446 159 446 260V646H552V245Q552 115 495 52.5Q438 -10 317 -10ZM412 706H343V718L476 846H580V834ZM261 706H192V718L326 846H429V834Z" glyph-name="Uhungarumlaut" horiz-adv-x="633" unicode="&#368;" /><glyph d="M317 -10Q188 -10 134.5 49Q81 108 81 240V646H187V256Q187 157 213.5 119.5Q240 82 317 82Q393 82 419.5 120.5Q446 159 446 260V646H552V245Q552 115 495 52.5Q438 -10 317 -10ZM242 703H182V739Q182 791 216 818Q250 845 316 845Q382 845 416 818Q450 791 450 739V703H392Q389 746 371.5 763Q354 780 316 780Q278 780 261 763Q244 746 242 703Z" glyph-name="Uinvertedbreve" horiz-adv-x="633" unicode="&#534;" /><glyph d="M317 -10Q188 -10 134.5 49Q81 108 81 240V646H187V256Q187 157 213.5 119.5Q240 82 317 82Q393 82 419.5 120.5Q446 159 446 260V646H552V245Q552 115 495 52.5Q438 -10 317 -10ZM466 720H167V794H466Z" glyph-name="Umacron" horiz-adv-x="633" unicode="&#362;" /><glyph d="M317 -10Q188 -10 134.5 49Q81 108 81 240V646H187V256Q187 157 213.5 119.5Q240 82 317 82Q393 82 419.5 120.5Q446 159 446 260V646H552V245Q552 115 495 52.5Q438 -10 317 -10ZM466 -169H167V-95H466Z" glyph-name="Umacronbelow" horiz-adv-x="633" /><glyph d="M81 240V646H187V256Q187 157 213.5 119.5Q240 82 317 82Q393 82 419.5 120.5Q446 159 446 260V646H552V245Q552 155 525.5 98.5Q499 42 443 13Q410 -3 395 -23Q380 -43 380 -69Q380 -92 392 -105Q404 -118 425 -118Q441 -118 455.5 -112Q470 -106 486 -93L515 -137Q490 -162 464.5 -172Q439 -182 402 -182Q355 -182 328 -155Q301 -128 301 -82Q301 -62 306 -44Q311 -26 320 -10H317Q188 -10 134.5 49Q81 108 81 240Z" glyph-name="Uogonek" horiz-adv-x="633" unicode="&#370;" /><glyph d="M317 -10Q188 -10 134.5 49Q81 108 81 240V646H187V256Q187 157 213.5 119.5Q240 82 317 82Q393 82 419.5 120.5Q446 159 446 260V646H552V245Q552 115 495 52.5Q438 -10 317 -10ZM317 876Q367 876 392 853Q417 830 417 783Q417 739 390.5 715Q364 691 317 691Q267 691 241.5 714Q216 737 216 783Q216 827 243 851.5Q270 876 317 876ZM317 831Q296 831 287.5 820.5Q279 810 279 783Q279 757 288 745.5Q297 734 317 734Q338 734 346.5 745Q355 756 355 783Q355 809 346.5 820Q338 831 317 831Z" glyph-name="Uring" horiz-adv-x="633" unicode="&#366;" /><glyph d="M257 745Q244 745 232.5 736.5Q221 728 210 711L162 746Q180 782 203 799Q226 816 258 816Q267 816 278.5 813.5Q290 811 313 803Q336 795 347.5 792.5Q359 790 369 790Q385 790 397 797Q409 804 422 823L468 787Q453 752 428.5 735Q404 718 368 718Q354 718 341 721Q328 724 305 733Q286 740 276 742.5Q266 745 257 745ZM317 -10Q188 -10 134.5 49Q81 108 81 240V646H187V256Q187 157 213.5 119.5Q240 82 317 82Q393 82 419.5 120.5Q446 159 446 260V646H552V245Q552 115 495 52.5Q438 -10 317 -10Z" glyph-name="Utilde" horiz-adv-x="633" unicode="&#360;" /><glyph d="M349 -3H225L22 635V646H132L289 133L446 646H553V635Z" glyph-name="V" horiz-adv-x="576" unicode="V" /><glyph d="M327 -3H207L32 635V646H140L273 139L415 646H514L658 140L790 646H895V635L721 -3H597L461 479Z" glyph-name="W" horiz-adv-x="929" unicode="W" /><glyph d="M327 -3H207L32 635V646H140L273 139L415 646H514L658 140L790 646H895V635L721 -3H597L461 479ZM377 695H364V758L587 856H601V769Z" glyph-name="Wacute" horiz-adv-x="929" unicode="&#7810;" /><glyph d="M327 -3H207L32 635V646H140L273 139L415 646H514L658 140L790 646H895V635L721 -3H597L461 479ZM332 697H320V765L445 847H482L608 765V697H596L464 774Z" glyph-name="Wcircumflex" horiz-adv-x="929" unicode="&#372;" /><glyph d="M327 -3H207L32 635V646H140L273 139L415 646H514L658 140L790 646H895V635L721 -3H597L461 479ZM550 823Q578 823 591.5 809.5Q605 796 605 769Q605 743 591 729.5Q577 716 550 716Q523 716 509 729.5Q495 743 495 769Q495 796 508.5 809.5Q522 823 550 823ZM377 823Q405 823 419 809.5Q433 796 433 769Q433 743 419 729.5Q405 716 377 716Q350 716 336.5 729Q323 742 323 769Q323 796 336.5 809.5Q350 823 377 823Z" glyph-name="Wdieresis" horiz-adv-x="929" unicode="&#7812;" /><glyph d="M327 -3H207L32 635V646H140L273 139L415 646H514L658 140L790 646H895V635L721 -3H597L461 479ZM561 695H547L324 769V856H337L561 758Z" glyph-name="Wgrave" horiz-adv-x="929" unicode="&#7808;" /><glyph d="M120 0H8V11L214 332L25 635V646H140L285 416L432 646H543V635L345 334L551 11V0H430L275 246Z" glyph-name="X" horiz-adv-x="564" unicode="X" /><glyph d="M317 0H211V254L3 634V646H114L267 358L416 646H523V634L317 254Z" glyph-name="Y" horiz-adv-x="530" unicode="Y" /><glyph d="M317 0H211V254L3 634V646H114L267 358L416 646H523V634L317 254ZM186 695H173V758L396 856H410V769Z" glyph-name="Yacute" horiz-adv-x="530" unicode="&#221;" /><glyph d="M133 697H121V765L246 847H283L409 765V697H397L265 774ZM317 0H211V254L3 634V646H114L267 358L416 646H523V634L317 254Z" glyph-name="Ycircumflex" horiz-adv-x="530" unicode="&#374;" /><glyph d="M317 0H211V254L3 634V646H114L267 358L416 646H523V634L317 254ZM351 823Q379 823 392.5 809.5Q406 796 406 769Q406 743 392 729.5Q378 716 351 716Q324 716 310 729.5Q296 743 296 769Q296 796 309.5 809.5Q323 823 351 823ZM178 823Q206 823 220 809.5Q234 796 234 769Q234 743 220 729.5Q206 716 178 716Q151 716 137.5 729Q124 742 124 769Q124 796 137.5 809.5Q151 823 178 823Z" glyph-name="Ydieresis" horiz-adv-x="530" unicode="&#376;" /><glyph d="M317 0H211V254L3 634V646H114L267 358L416 646H523V634L317 254ZM358 695H344L121 769V856H134L358 758Z" glyph-name="Ygrave" horiz-adv-x="530" unicode="&#7922;" /><glyph d="M317 0H211V254L3 634V646H114L267 358L416 646H523V634L317 254ZM413 720H114V794H413Z" glyph-name="Ymacron" horiz-adv-x="530" /><glyph d="M208 745Q195 745 183.5 736.5Q172 728 161 711L113 746Q131 782 154 799Q177 816 209 816Q218 816 229.5 813.5Q241 811 264 803Q287 795 298.5 792.5Q310 790 320 790Q336 790 348 797Q360 804 373 823L419 787Q404 752 379.5 735Q355 718 319 718Q305 718 292 721Q279 724 256 733Q237 740 227 742.5Q217 745 208 745ZM317 0H211V254L3 634V646H114L267 358L416 646H523V634L317 254Z" glyph-name="Ytilde" horiz-adv-x="530" unicode="&#7928;" /><glyph d="M482 0H36V70L340 556H44V646H476V572L168 90H482Z" glyph-name="Z" horiz-adv-x="518" unicode="Z" /><glyph d="M482 0H36V70L340 556H44V646H476V572L168 90H482ZM167 695H154V758L377 856H391V769Z" glyph-name="Zacute" horiz-adv-x="518" unicode="&#377;" /><glyph d="M482 0H36V70L340 556H44V646H476V572L168 90H482ZM272 702H235L110 783V851H122L254 774L386 851H398V783Z" glyph-name="Zcaron" horiz-adv-x="518" unicode="&#381;" /><glyph d="M482 0H36V70L340 556H44V646H476V572L168 90H482ZM259 827Q287 827 301 812.5Q315 798 315 770Q315 742 301 728.5Q287 715 259 715Q231 715 217.5 729Q204 743 204 770Q204 798 218 812.5Q232 827 259 827Z" glyph-name="Zdotaccent" horiz-adv-x="518" unicode="&#379;" /><glyph d="M311 47Q285 19 249.5 4.5Q214 -10 172 -10Q109 -10 73.5 25.5Q38 61 38 124Q38 184 77 219.5Q116 255 208 274L301 293V326Q301 375 278.5 396Q256 417 201 417Q175 417 147.5 410Q120 403 79 385L57 458Q90 477 134.5 487.5Q179 498 225 498Q315 498 358.5 459Q402 420 402 341V108Q402 85 406.5 52Q411 19 417 0L325 -9Q320 4 316 19.5Q312 35 311 47ZM301 222 231 208Q176 196 155 178.5Q134 161 134 129Q134 98 152 82Q170 66 205 66Q230 66 257 77.5Q284 89 301 106Z" glyph-name="a" horiz-adv-x="481" unicode="a" /><glyph d="M311 47Q285 19 249.5 4.5Q214 -10 172 -10Q109 -10 73.5 25.5Q38 61 38 124Q38 184 77 219.5Q116 255 208 274L301 293V326Q301 375 278.5 396Q256 417 201 417Q175 417 147.5 410Q120 403 79 385L57 458Q90 477 134.5 487.5Q179 498 225 498Q315 498 358.5 459Q402 420 402 341V108Q402 85 406.5 52Q411 19 417 0L325 -9Q320 4 316 19.5Q312 35 311 47ZM301 222 231 208Q176 196 155 178.5Q134 161 134 129Q134 98 152 82Q170 66 205 66Q230 66 257 77.5Q284 89 301 106ZM134 560H120V618L315 720H328V633Z" glyph-name="aacute" horiz-adv-x="481" unicode="&#225;" /><glyph d="M311 47Q285 19 249.5 4.5Q214 -10 172 -10Q109 -10 73.5 25.5Q38 61 38 124Q38 184 77 219.5Q116 255 208 274L301 293V326Q301 375 278.5 396Q256 417 201 417Q175 417 147.5 410Q120 403 79 385L57 458Q90 477 134.5 487.5Q179 498 225 498Q315 498 358.5 459Q402 420 402 341V108Q402 85 406.5 52Q411 19 417 0L325 -9Q320 4 316 19.5Q312 35 311 47ZM301 222 231 208Q176 196 155 178.5Q134 161 134 129Q134 98 152 82Q170 66 205 66Q230 66 257 77.5Q284 89 301 106ZM360 686V663Q360 606 327.5 579Q295 552 228 552Q163 552 130 580Q97 608 97 663V686H158Q159 645 175 628Q191 611 228 611Q265 611 281 627.5Q297 644 299 686Z" glyph-name="abreve" horiz-adv-x="481" unicode="&#259;" /><glyph d="M311 47Q285 19 249.5 4.5Q214 -10 172 -10Q109 -10 73.5 25.5Q38 61 38 124Q38 184 77 219.5Q116 255 208 274L301 293V326Q301 375 278.5 396Q256 417 201 417Q175 417 147.5 410Q120 403 79 385L57 458Q90 477 134.5 487.5Q179 498 225 498Q315 498 358.5 459Q402 420 402 341V108Q402 85 406.5 52Q411 19 417 0L325 -9Q320 4 316 19.5Q312 35 311 47ZM301 222 231 208Q176 196 155 178.5Q134 161 134 129Q134 98 152 82Q170 66 205 66Q230 66 257 77.5Q284 89 301 106ZM237 561H200L85 645V708H99L219 628L339 708H353V645Z" glyph-name="acaron" horiz-adv-x="481" unicode="&#462;" /><glyph d="M311 47Q285 19 249.5 4.5Q214 -10 172 -10Q109 -10 73.5 25.5Q38 61 38 124Q38 184 77 219.5Q116 255 208 274L301 293V326Q301 375 278.5 396Q256 417 201 417Q175 417 147.5 410Q120 403 79 385L57 458Q90 477 134.5 487.5Q179 498 225 498Q315 498 358.5 459Q402 420 402 341V108Q402 85 406.5 52Q411 19 417 0L325 -9Q320 4 316 19.5Q312 35 311 47ZM301 222 231 208Q176 196 155 178.5Q134 161 134 129Q134 98 152 82Q170 66 205 66Q230 66 257 77.5Q284 89 301 106ZM105 557H91V621L206 705H243L359 621V557H345L225 637Z" glyph-name="acircumflex" horiz-adv-x="481" unicode="&#226;" /><glyph d="M85 560H71V618L266 720H279V633Z" glyph-name="acute" horiz-adv-x="350" unicode="&#180;" /><glyph d="M67 695H54V758L277 856H291V769Z" glyph-name="acute.cap" horiz-adv-x="345" /><glyph d="M311 47Q285 19 249.5 4.5Q214 -10 172 -10Q109 -10 73.5 25.5Q38 61 38 124Q38 184 77 219.5Q116 255 208 274L301 293V326Q301 375 278.5 396Q256 417 201 417Q175 417 147.5 410Q120 403 79 385L57 458Q90 477 134.5 487.5Q179 498 225 498Q315 498 358.5 459Q402 420 402 341V108Q402 85 406.5 52Q411 19 417 0L325 -9Q320 4 316 19.5Q312 35 311 47ZM301 222 231 208Q176 196 155 178.5Q134 161 134 129Q134 98 152 82Q170 66 205 66Q230 66 257 77.5Q284 89 301 106ZM307 685Q332 685 345.5 671Q359 657 359 631Q359 605 345.5 591.5Q332 578 307 578Q283 578 270 591.5Q257 605 257 631Q257 658 270 671.5Q283 685 307 685ZM145 685Q171 685 184.5 671Q198 657 198 631Q198 605 184 591.5Q170 578 145 578Q121 578 108.5 591.5Q96 605 96 631Q96 657 108.5 671Q121 685 145 685Z" glyph-name="adieresis" horiz-adv-x="481" unicode="&#228;" /><glyph d="M311 47Q285 19 249.5 4.5Q214 -10 172 -10Q109 -10 73.5 25.5Q38 61 38 124Q38 184 77 219.5Q116 255 208 274L301 293V326Q301 375 278.5 396Q256 417 201 417Q175 417 147.5 410Q120 403 79 385L57 458Q90 477 134.5 487.5Q179 498 225 498Q315 498 358.5 459Q402 420 402 341V108Q402 85 406.5 52Q411 19 417 0L325 -9Q320 4 316 19.5Q312 35 311 47ZM301 222 231 208Q176 196 155 178.5Q134 161 134 129Q134 98 152 82Q170 66 205 66Q230 66 257 77.5Q284 89 301 106ZM307 676Q332 676 345.5 662Q359 648 359 622Q359 596 345.5 582.5Q332 569 307 569Q283 569 270 582.5Q257 596 257 622Q257 649 270 662.5Q283 676 307 676ZM145 676Q171 676 184.5 662Q198 648 198 622Q198 596 184 582.5Q170 569 145 569Q121 569 108.5 582.5Q96 596 96 622Q96 648 108.5 662Q121 676 145 676ZM355 727H103V799H355Z" glyph-name="adieresismacron" horiz-adv-x="481" unicode="&#479;" /><glyph d="M311 47Q285 19 249.5 4.5Q214 -10 172 -10Q109 -10 73.5 25.5Q38 61 38 124Q38 184 77 219.5Q116 255 208 274L301 293V326Q301 375 278.5 396Q256 417 201 417Q175 417 147.5 410Q120 403 79 385L57 458Q90 477 134.5 487.5Q179 498 225 498Q315 498 358.5 459Q402 420 402 341V108Q402 85 406.5 52Q411 19 417 0L325 -9Q320 4 316 19.5Q312 35 311 47ZM301 222 231 208Q176 196 155 178.5Q134 161 134 129Q134 98 152 82Q170 66 205 66Q230 66 257 77.5Q284 89 301 106ZM279 631Q279 603 265 589Q251 575 223 575Q196 575 182 589Q168 603 168 631Q168 659 182 673Q196 687 223 687Q251 687 265 673Q279 659 279 631Z" glyph-name="adotabove" horiz-adv-x="481" /><glyph d="M311 47Q285 19 249.5 4.5Q214 -10 172 -10Q109 -10 73.5 25.5Q38 61 38 124Q38 184 77 219.5Q116 255 208 274L301 293V326Q301 375 278.5 396Q256 417 201 417Q175 417 147.5 410Q120 403 79 385L57 458Q90 477 134.5 487.5Q179 498 225 498Q315 498 358.5 459Q402 420 402 341V108Q402 85 406.5 52Q411 19 417 0L325 -9Q320 4 316 19.5Q312 35 311 47ZM301 222 231 208Q176 196 155 178.5Q134 161 134 129Q134 98 152 82Q170 66 205 66Q230 66 257 77.5Q284 89 301 106ZM346 558H293L174 685V697H252L346 570ZM208 558H155L36 685V697H114L208 570Z" glyph-name="adoublegrave" horiz-adv-x="481" /><glyph d="M343 72Q310 32 266 11Q222 -10 172 -10Q110 -10 74.5 25.5Q39 61 39 124Q39 184 78 219.5Q117 255 209 274L302 293V326Q302 375 279.5 396Q257 417 203 417Q176 417 146.5 409.5Q117 402 80 385L58 458Q91 477 135.5 487.5Q180 498 227 498Q279 498 315 483Q351 468 370 438Q397 468 433.5 483Q470 498 515 498Q599 498 643 446.5Q687 395 687 296Q687 282 686 265Q685 248 683 225H403Q403 138 431.5 105Q460 72 530 72Q561 72 593.5 84Q626 96 654 117L688 54Q652 20 610.5 5Q569 -10 514 -10Q455 -10 412 10.5Q369 31 343 72ZM509 421Q460 421 434.5 391.5Q409 362 405 299H595V314Q595 370 574 395.5Q553 421 509 421ZM303 223 232 208Q176 196 155.5 179Q135 162 135 129Q135 97 153 81.5Q171 66 207 66Q235 66 265 80.5Q295 95 320 120Q313 141 309 166.5Q305 192 303 223Z" glyph-name="ae" horiz-adv-x="734" unicode="&#230;" /><glyph d="M343 72Q310 32 266 11Q222 -10 172 -10Q110 -10 74.5 25.5Q39 61 39 124Q39 184 78 219.5Q117 255 209 274L302 293V326Q302 375 279.5 396Q257 417 203 417Q176 417 146.5 409.5Q117 402 80 385L58 458Q91 477 135.5 487.5Q180 498 227 498Q279 498 315 483Q351 468 370 438Q397 468 433.5 483Q470 498 515 498Q599 498 643 446.5Q687 395 687 296Q687 282 686 265Q685 248 683 225H403Q403 138 431.5 105Q460 72 530 72Q561 72 593.5 84Q626 96 654 117L688 54Q652 20 610.5 5Q569 -10 514 -10Q455 -10 412 10.5Q369 31 343 72ZM509 421Q460 421 434.5 391.5Q409 362 405 299H595V314Q595 370 574 395.5Q553 421 509 421ZM303 223 232 208Q176 196 155.5 179Q135 162 135 129Q135 97 153 81.5Q171 66 207 66Q235 66 265 80.5Q295 95 320 120Q313 141 309 166.5Q305 192 303 223ZM310 560H296V618L491 720H504V633Z" glyph-name="aeacute" horiz-adv-x="734" unicode="&#509;" /><glyph d="M343 72Q310 32 266 11Q222 -10 172 -10Q110 -10 74.5 25.5Q39 61 39 124Q39 184 78 219.5Q117 255 209 274L302 293V326Q302 375 279.5 396Q257 417 203 417Q176 417 146.5 409.5Q117 402 80 385L58 458Q91 477 135.5 487.5Q180 498 227 498Q279 498 315 483Q351 468 370 438Q397 468 433.5 483Q470 498 515 498Q599 498 643 446.5Q687 395 687 296Q687 282 686 265Q685 248 683 225H403Q403 138 431.5 105Q460 72 530 72Q561 72 593.5 84Q626 96 654 117L688 54Q652 20 610.5 5Q569 -10 514 -10Q455 -10 412 10.5Q369 31 343 72ZM509 421Q460 421 434.5 391.5Q409 362 405 299H595V314Q595 370 574 395.5Q553 421 509 421ZM303 223 232 208Q176 196 155.5 179Q135 162 135 129Q135 97 153 81.5Q171 66 207 66Q235 66 265 80.5Q295 95 320 120Q313 141 309 166.5Q305 192 303 223ZM498 589H246V661H498Z" glyph-name="aemacron" horiz-adv-x="734" unicode="&#483;" /><glyph d="M116 168 69 133 44 206 116 262V495Q116 577 151 616.5Q186 656 259 656Q322 656 355 622Q388 588 388 525Q388 451 350.5 386Q313 321 218 236V136Q218 102 231 87.5Q244 73 276 73Q289 73 304 79Q319 85 335 97L363 33Q339 12 306.5 1Q274 -10 235 -10Q179 -10 147.5 19.5Q116 49 116 103ZM259 581Q237 581 227.5 563Q218 545 218 504V336Q256 386 275.5 435.5Q295 485 295 531Q295 556 286 568.5Q277 581 259 581Z" glyph-name="afii61289" horiz-adv-x="436" unicode="&#8467;" /><glyph d="M979 475Q979 389 937.5 342.5Q896 296 824 296Q747 296 708.5 341Q670 386 670 475Q670 561 711 607.5Q752 654 824 654Q901 654 940 609Q979 564 979 475ZM188 0H90V646H194L479 180V646H578V0H481L188 477ZM895 475Q895 537 879.5 563Q864 589 824 589Q785 589 770 563Q755 537 755 475Q755 414 770.5 388Q786 362 824 362Q863 362 879 388Q895 414 895 475Z" glyph-name="afii61352" horiz-adv-x="1036" unicode="&#8470;" /><glyph d="M311 47Q285 19 249.5 4.5Q214 -10 172 -10Q109 -10 73.5 25.5Q38 61 38 124Q38 184 77 219.5Q116 255 208 274L301 293V326Q301 375 278.5 396Q256 417 201 417Q175 417 147.5 410Q120 403 79 385L57 458Q90 477 134.5 487.5Q179 498 225 498Q315 498 358.5 459Q402 420 402 341V108Q402 85 406.5 52Q411 19 417 0L325 -9Q320 4 316 19.5Q312 35 311 47ZM301 222 231 208Q176 196 155 178.5Q134 161 134 129Q134 98 152 82Q170 66 205 66Q230 66 257 77.5Q284 89 301 106ZM325 560H312L117 633V720H131L325 618Z" glyph-name="agrave" horiz-adv-x="481" unicode="&#224;" /><glyph d="M311 47Q285 19 249.5 4.5Q214 -10 172 -10Q109 -10 73.5 25.5Q38 61 38 124Q38 184 77 219.5Q116 255 208 274L301 293V326Q301 375 278.5 396Q256 417 201 417Q175 417 147.5 410Q120 403 79 385L57 458Q90 477 134.5 487.5Q179 498 225 498Q315 498 358.5 459Q402 420 402 341V108Q402 85 406.5 52Q411 19 417 0L325 -9Q320 4 316 19.5Q312 35 311 47ZM301 222 231 208Q176 196 155 178.5Q134 161 134 129Q134 98 152 82Q170 66 205 66Q230 66 257 77.5Q284 89 301 106ZM150 563H89V586Q89 641 122 669Q155 697 220 697Q287 697 319.5 670Q352 643 352 586V563H291Q289 605 273.5 621.5Q258 638 220 638Q183 638 167 621.5Q151 605 150 563Z" glyph-name="ainvertedbreve" horiz-adv-x="481" unicode="&#515;" /><glyph d="M207 -135Q207 -114 190 -104Q173 -94 133 -93L145 -45Q149 -45 154 -44.5Q159 -44 164 -44Q218 -44 248 -68Q278 -92 278 -135Q278 -177 250 -202Q222 -227 175 -227Q147 -227 122.5 -216Q98 -205 80 -184L105 -146Q122 -160 135.5 -165.5Q149 -171 163 -171Q185 -171 196 -162Q207 -153 207 -135Z" glyph-name="altcedilla" horiz-adv-x="364" /><glyph d="M311 47Q285 19 249.5 4.5Q214 -10 172 -10Q109 -10 73.5 25.5Q38 61 38 124Q38 184 77 219.5Q116 255 208 274L301 293V326Q301 375 278.5 396Q256 417 201 417Q175 417 147.5 410Q120 403 79 385L57 458Q90 477 134.5 487.5Q179 498 225 498Q315 498 358.5 459Q402 420 402 341V108Q402 85 406.5 52Q411 19 417 0L325 -9Q320 4 316 19.5Q312 35 311 47ZM301 222 231 208Q176 196 155 178.5Q134 161 134 129Q134 98 152 82Q170 66 205 66Q230 66 257 77.5Q284 89 301 106ZM356 589H104V661H356Z" glyph-name="amacron" horiz-adv-x="481" unicode="&#257;" /><glyph d="M474 87Q427 39 372 14.5Q317 -10 256 -10Q170 -10 118.5 38Q67 86 67 163Q67 223 104 271.5Q141 320 210 350Q170 398 156 430.5Q142 463 142 500Q142 570 189.5 613Q237 656 313 656Q353 656 386.5 647.5Q420 639 450 622L418 539Q393 554 370 560Q347 566 318 566Q283 566 265.5 548.5Q248 531 248 496Q248 478 256 458.5Q264 439 280 418Q284 411 298.5 395Q313 379 337 353Q354 333 388.5 298.5Q423 264 468 221Q492 261 512.5 309.5Q533 358 548 408H646V391Q620 320 592.5 263Q565 206 534 160Q587 111 633 72.5Q679 34 708 14V0H584Q561 14 532.5 37Q504 60 474 87ZM409 145Q368 183 328.5 222.5Q289 262 259 294Q208 265 188.5 238.5Q169 212 169 178Q169 130 197.5 104.5Q226 79 280 79Q312 79 344.5 95.5Q377 112 409 145Z" glyph-name="ampersand" horiz-adv-x="764" unicode="&amp;" /><glyph d="M311 47Q285 19 249.5 4.5Q214 -10 172 -10Q109 -10 73.5 25.5Q38 61 38 124Q38 184 77 219.5Q116 255 208 274L301 293V326Q301 375 278.5 396Q256 417 201 417Q175 417 147.5 410Q120 403 79 385L57 458Q90 477 134.5 487.5Q179 498 225 498Q315 498 358.5 459Q402 420 402 341V108Q402 85 406.5 52Q411 19 417 0H414Q381 -19 367.5 -38Q354 -57 354 -82Q354 -105 366 -118Q378 -131 399 -131Q415 -131 429.5 -125Q444 -119 460 -106L489 -150Q464 -175 438.5 -185Q413 -195 376 -195Q329 -195 302 -168Q275 -141 275 -95Q275 -64 286 -38.5Q297 -13 319 6Q316 15 314 26Q312 37 311 47ZM301 222 231 208Q176 196 155 178.5Q134 161 134 129Q134 98 152 82Q170 66 205 66Q230 66 257 77.5Q284 89 301 106Z" glyph-name="aogonek" horiz-adv-x="481" unicode="&#261;" /><glyph d="M170 402Q138 402 110 386Q82 370 62 340L13 398Q38 445 76 468Q114 491 168 491Q190 491 213.5 484Q237 477 280 455Q320 435 341 428.5Q362 422 381 422Q415 422 443.5 438.5Q472 455 489 485L533 429Q507 379 469.5 355.5Q432 332 378 332Q356 332 332.5 339Q309 346 266 369Q227 389 207.5 395.5Q188 402 170 402ZM170 194Q138 194 110 178Q82 162 62 132L13 190Q38 237 76 260Q114 283 168 283Q190 283 213.5 276Q237 269 280 247Q320 227 341 220.5Q362 214 381 214Q415 214 443.5 230.5Q472 247 489 277L533 221Q507 171 469.5 147.5Q432 124 378 124Q356 124 332.5 131Q309 138 266 161Q227 181 207.5 187.5Q188 194 170 194Z" glyph-name="approxequal" horiz-adv-x="546" unicode="&#8776;" /><glyph d="M311 47Q285 19 249.5 4.5Q214 -10 172 -10Q109 -10 73.5 25.5Q38 61 38 124Q38 184 77 219.5Q116 255 208 274L301 293V326Q301 375 278.5 396Q256 417 201 417Q175 417 147.5 410Q120 403 79 385L57 458Q90 477 134.5 487.5Q179 498 225 498Q315 498 358.5 459Q402 420 402 341V108Q402 85 406.5 52Q411 19 417 0L325 -9Q320 4 316 19.5Q312 35 311 47ZM301 222 231 208Q176 196 155 178.5Q134 161 134 129Q134 98 152 82Q170 66 205 66Q230 66 257 77.5Q284 89 301 106ZM236 740Q289 740 314.5 716Q340 692 340 642Q340 593 313.5 568Q287 543 236 543Q183 543 157.5 567.5Q132 592 132 642Q132 690 159 715Q186 740 236 740ZM236 692Q214 692 205 680.5Q196 669 196 642Q196 615 205.5 603Q215 591 236 591Q258 591 267 602.5Q276 614 276 642Q276 668 266.5 680Q257 692 236 692Z" glyph-name="aring" horiz-adv-x="481" unicode="&#229;" /><glyph d="M325 638Q325 593 300 569.5Q275 546 228 546Q179 546 155.5 568.5Q132 591 132 638Q132 671 145.5 692.5Q159 714 185 723L363 825H375V753L288 717Q306 707 315.5 687.5Q325 668 325 638ZM228 688Q207 688 198 676.5Q189 665 189 638Q189 612 198 600Q207 588 228 588Q250 588 259 599.5Q268 611 268 638Q268 664 258.5 676Q249 688 228 688ZM311 47Q285 19 249.5 4.5Q214 -10 172 -10Q109 -10 73.5 25.5Q38 61 38 124Q38 184 77 219.5Q116 255 208 274L301 293V326Q301 375 278.5 396Q256 417 201 417Q175 417 147.5 410Q120 403 79 385L57 458Q90 477 134.5 487.5Q179 498 225 498Q315 498 358.5 459Q402 420 402 341V108Q402 85 406.5 52Q411 19 417 0L325 -9Q320 4 316 19.5Q312 35 311 47ZM301 222 231 208Q176 196 155 178.5Q134 161 134 129Q134 98 152 82Q170 66 205 66Q230 66 257 77.5Q284 89 301 106Z" glyph-name="aringacute" horiz-adv-x="481" unicode="&#507;" /><glyph d="M148 211H68V223L244 650H325L502 223V211H418L283 551Z" glyph-name="asciicircum" horiz-adv-x="572" unicode="^" /><glyph d="M201 233Q168 233 143.5 218Q119 203 98 171L43 218Q68 270 108 296.5Q148 323 198 323Q222 323 247 316Q272 309 318 286Q360 266 382 259.5Q404 253 424 253Q456 253 481.5 269Q507 285 529 318L585 272Q563 219 522 191Q481 163 426 163Q403 163 377.5 170Q352 177 305 200Q262 220 241 226.5Q220 233 201 233Z" glyph-name="asciitilde" horiz-adv-x="624" unicode="~" /><glyph d="M201 374 129 398 179 535 34 530V605L179 600L130 737L202 760L241 621L356 710L400 649L281 568L400 486L356 426L242 515Z" glyph-name="asterisk" horiz-adv-x="452" unicode="*" /><glyph d="M384 -145Q230 -145 143 -50.5Q56 44 56 214Q56 408 164.5 516Q273 624 463 624Q615 624 700 544.5Q785 465 785 322Q785 193 713.5 120.5Q642 48 512 48Q488 48 475.5 64.5Q463 81 462 115L461 136Q443 105 413 82.5Q383 60 354 60Q307 60 283 95.5Q259 131 259 201Q259 309 303 370Q347 431 426 431Q438 431 451 429.5Q464 428 498 419L503 434L562 433L538 128Q611 132 646 179.5Q681 227 681 322Q681 426 623 482.5Q565 539 458 539Q309 539 234 457.5Q159 376 159 215Q159 75 221 9Q283 -57 411 -57Q450 -57 495.5 -46Q541 -35 566 -21L593 -96Q556 -120 503.5 -132.5Q451 -145 384 -145ZM426 369Q383 369 363.5 327.5Q344 286 344 197Q344 161 352.5 144.5Q361 128 379 128Q396 128 419.5 148Q443 168 460 195L472 359Q462 364 449.5 366.5Q437 369 426 369Z" glyph-name="at" horiz-adv-x="838" unicode="@" /><glyph d="M311 47Q285 19 249.5 4.5Q214 -10 172 -10Q109 -10 73.5 25.5Q38 61 38 124Q38 184 77 219.5Q116 255 208 274L301 293V326Q301 375 278.5 396Q256 417 201 417Q175 417 147.5 410Q120 403 79 385L57 458Q90 477 134.5 487.5Q179 498 225 498Q315 498 358.5 459Q402 420 402 341V108Q402 85 406.5 52Q411 19 417 0L325 -9Q320 4 316 19.5Q312 35 311 47ZM301 222 231 208Q176 196 155 178.5Q134 161 134 129Q134 98 152 82Q170 66 205 66Q230 66 257 77.5Q284 89 301 106ZM177 611Q163 611 152.5 603.5Q142 596 133 580L89 614Q105 648 126 664Q147 680 174 680Q185 680 197 677.5Q209 675 231 667Q252 660 262.5 657.5Q273 655 282 655Q296 655 308.5 663Q321 671 333 687L375 652Q361 620 337.5 602Q314 584 287 584Q274 584 259 587.5Q244 591 216 601Q198 607 190 609Q182 611 177 611Z" glyph-name="atilde" horiz-adv-x="481" unicode="&#227;" /><glyph d="M154 -6H79V701L181 704V442Q200 468 231 483Q262 498 297 498Q396 498 444 436Q492 374 492 248Q492 121 436 56Q380 -9 270 -9Q236 -9 207 -0.5Q178 8 160 23ZM275 416Q248 416 223 402.5Q198 389 181 366V95Q197 83 221.5 75.5Q246 68 272 68Q334 68 361 107.5Q388 147 388 242Q388 340 362.5 378Q337 416 275 416Z" glyph-name="b" horiz-adv-x="534" unicode="b" /><glyph d="M51 750H126L441 -107V-120H366L51 737Z" glyph-name="backslash" horiz-adv-x="492" unicode="\" /><glyph d="M194 -250H113V750H194Z" glyph-name="bar" horiz-adv-x="307" unicode="|" /><glyph d="M313 656Q444 656 508.5 573Q573 490 573 323Q573 160 505.5 75Q438 -10 313 -10Q182 -10 117.5 73Q53 156 53 323Q53 486 120.5 571Q188 656 313 656ZM313 566Q237 566 203.5 519.5Q170 473 165 366H462Q457 471 422 518.5Q387 566 313 566ZM462 294H164Q168 181 202.5 130.5Q237 80 313 80Q391 80 425 129.5Q459 179 462 294Z" glyph-name="barredO" horiz-adv-x="627" /><glyph d="M255 -10Q149 -10 95.5 53.5Q42 117 42 244Q42 366 98.5 432Q155 498 255 498Q362 498 415.5 434.5Q469 371 469 244Q469 122 412 56Q355 -10 255 -10ZM255 417Q200 417 174.5 385Q149 353 145 281H365Q360 353 334.5 385Q309 417 255 417ZM255 71Q311 71 336.5 105Q362 139 365 216H144Q147 139 172.5 105Q198 71 255 71Z" glyph-name="barredo" horiz-adv-x="510" /><glyph d="M148 -87V129Q148 180 131 204Q114 228 59 235V319Q114 326 131 349.5Q148 373 148 424V641Q148 715 193.5 746Q239 777 350 777V691Q293 691 273 672Q253 653 253 598V407Q253 352 236 322.5Q219 293 171 279V275Q219 261 236 231.5Q253 202 253 147V-44Q253 -99 273 -118Q293 -137 350 -137V-224Q239 -224 193.5 -192.5Q148 -161 148 -87Z" glyph-name="braceleft" horiz-adv-x="384" unicode="{" /><glyph d="M131 -44V147Q131 202 148 231.5Q165 261 213 275V279Q165 293 148 322.5Q131 352 131 407V598Q131 653 111 672Q91 691 34 691V777Q145 777 190.5 746Q236 715 236 641V424Q236 373 253 349.5Q270 326 325 319V235Q270 228 253 204Q236 180 236 129V-87Q236 -161 190.5 -192.5Q145 -224 34 -224V-137Q91 -137 111 -118Q131 -99 131 -44Z" glyph-name="braceright" horiz-adv-x="384" unicode="}" /><glyph d="M199 691V-137H325V-224H92V777H325V691Z" glyph-name="bracketleft" horiz-adv-x="355" unicode="[" /><glyph d="M30 -224V-137H156V691H30V777H263V-224Z" glyph-name="bracketright" horiz-adv-x="355" unicode="]" /><glyph d="M313 686V663Q313 606 280.5 579Q248 552 181 552Q116 552 83 580Q50 608 50 663V686H111Q112 645 128 628Q144 611 181 611Q218 611 234 627.5Q250 644 252 686Z" glyph-name="breve" horiz-adv-x="364" unicode="&#728;" /><glyph d="M322 845V808Q322 756 288 729.5Q254 703 188 703Q122 703 88 729.5Q54 756 54 808V845H114Q116 801 133 784Q150 767 188 767Q226 767 243.5 784.5Q261 802 264 845Z" glyph-name="breve.cap" horiz-adv-x="376" /><glyph d="M194 281H113V750H194ZM113 -250V219H194V-250Z" glyph-name="brokenbar" horiz-adv-x="307" unicode="&#166;" /><glyph d="M201 448Q256 448 284.5 420Q313 392 313 337Q313 282 284.5 254Q256 226 201 226Q146 226 118.5 254Q91 282 91 337Q91 393 118.5 420.5Q146 448 201 448Z" glyph-name="bullet" horiz-adv-x="403" unicode="&#8226;" /><glyph d="M261 -10Q155 -10 98.5 54.5Q42 119 42 244Q42 366 100.5 432Q159 498 261 498Q300 498 335.5 488Q371 478 401 459L369 390Q344 404 318.5 411Q293 418 265 418Q200 418 172.5 378Q145 338 145 244Q145 153 173.5 112Q202 71 268 71Q298 71 323 78.5Q348 86 381 107L412 43Q385 17 346 3.5Q307 -10 261 -10Z" glyph-name="c" horiz-adv-x="434" unicode="c" /><glyph d="M261 -10Q155 -10 98.5 54.5Q42 119 42 244Q42 366 100.5 432Q159 498 261 498Q300 498 335.5 488Q371 478 401 459L369 390Q344 404 318.5 411Q293 418 265 418Q200 418 172.5 378Q145 338 145 244Q145 153 173.5 112Q202 71 268 71Q298 71 323 78.5Q348 86 381 107L412 43Q385 17 346 3.5Q307 -10 261 -10ZM145 560H131V618L326 720H339V633Z" glyph-name="cacute" horiz-adv-x="434" unicode="&#263;" /><glyph d="M239 561H202L87 645V708H101L221 628L341 708H355V645Z" glyph-name="caron" horiz-adv-x="445" unicode="&#711;" /><glyph d="M216 702H179L54 783V851H66L198 774L330 851H342V783Z" glyph-name="caron.cap" horiz-adv-x="396" /><glyph d="M116 522H68V533L111 707H187V696Z" glyph-name="caronSlovak" horiz-adv-x="295" /><glyph d="M261 -10Q155 -10 98.5 54.5Q42 119 42 244Q42 366 100.5 432Q159 498 261 498Q300 498 335.5 488Q371 478 401 459L369 390Q344 404 318.5 411Q293 418 265 418Q200 418 172.5 378Q145 338 145 244Q145 153 173.5 112Q202 71 268 71Q298 71 323 78.5Q348 86 381 107L412 43Q385 17 346 3.5Q307 -10 261 -10ZM254 561H217L102 645V708H116L236 628L356 708H370V645Z" glyph-name="ccaron" horiz-adv-x="434" unicode="&#269;" /><glyph d="M258 -125Q258 -104 240 -93Q222 -82 185 -81L205 -5Q125 10 83.5 73.5Q42 137 42 244Q42 366 100.5 432Q159 498 261 498Q300 498 335.5 488Q371 478 401 459L369 390Q344 404 318.5 411Q293 418 265 418Q200 418 172.5 378Q145 338 145 244Q145 153 173.5 112Q202 71 268 71Q298 71 323 78.5Q348 86 381 107L412 43Q386 18 347.5 4.5Q309 -9 265 -10L255 -46Q291 -52 310 -72Q329 -92 329 -125Q329 -166 301 -191.5Q273 -217 226 -217Q198 -217 174.5 -206.5Q151 -196 131 -174L156 -136Q176 -151 189 -156Q202 -161 214 -161Q236 -161 247 -152Q258 -143 258 -125Z" glyph-name="ccedilla" horiz-adv-x="434" unicode="&#231;" /><glyph d="M261 -10Q155 -10 98.5 54.5Q42 119 42 244Q42 366 100.5 432Q159 498 261 498Q300 498 335.5 488Q371 478 401 459L369 390Q344 404 318.5 411Q293 418 265 418Q200 418 172.5 378Q145 338 145 244Q145 153 173.5 112Q202 71 268 71Q298 71 323 78.5Q348 86 381 107L412 43Q385 17 346 3.5Q307 -10 261 -10ZM118 557H104V621L219 705H256L372 621V557H358L238 637Z" glyph-name="ccircumflex" horiz-adv-x="434" unicode="&#265;" /><glyph d="M261 -10Q155 -10 98.5 54.5Q42 119 42 244Q42 366 100.5 432Q159 498 261 498Q300 498 335.5 488Q371 478 401 459L369 390Q344 404 318.5 411Q293 418 265 418Q200 418 172.5 378Q145 338 145 244Q145 153 173.5 112Q202 71 268 71Q298 71 323 78.5Q348 86 381 107L412 43Q385 17 346 3.5Q307 -10 261 -10ZM296 631Q296 603 282 589Q268 575 240 575Q213 575 199 589Q185 603 185 631Q185 659 199 673Q213 687 240 687Q268 687 282 673Q296 659 296 631Z" glyph-name="cdotaccent" horiz-adv-x="434" unicode="&#267;" /><glyph d="M207 -125Q207 -104 189 -93Q171 -82 134 -81L157 5H219L204 -46Q240 -52 259 -72Q278 -92 278 -125Q278 -166 250 -191.5Q222 -217 175 -217Q147 -217 123.5 -206.5Q100 -196 80 -174L105 -136Q125 -151 138 -156Q151 -161 163 -161Q185 -161 196 -152Q207 -143 207 -125Z" glyph-name="cedilla" horiz-adv-x="372" unicode="&#184;" /><glyph d="M358 0H271V77Q188 92 145 155Q102 218 102 327Q102 429 143 492Q184 555 261 574V646H349V580Q379 577 407 567.5Q435 558 461 542L429 473Q404 487 378.5 494Q353 501 325 501Q260 501 232.5 461Q205 421 205 327Q205 236 233.5 195Q262 154 328 154Q358 154 383 161.5Q408 169 441 190L472 126Q450 106 421 92.5Q392 79 358 75Z" glyph-name="cent" horiz-adv-x="573" unicode="&#162;" /><glyph d="M101 557H87V621L202 705H239L355 621V557H341L221 637Z" glyph-name="circumflex" horiz-adv-x="445" unicode="&#710;" /><glyph d="M66 697H54V765L179 847H216L342 765V697H330L198 774Z" glyph-name="circumflex.cap" horiz-adv-x="396" /><glyph d="M127 498Q159 498 175 482Q191 466 191 434Q191 402 175 386.5Q159 371 127 371Q96 371 80 387Q64 403 64 434Q64 466 80 482Q96 498 127 498ZM191 53Q191 21 175 5.5Q159 -10 127 -10Q96 -10 80 6Q64 22 64 53Q64 85 80 101Q96 117 127 117Q159 117 175 101Q191 85 191 53Z" glyph-name="colon" horiz-adv-x="255" unicode=":" /><glyph d="M129 4H120Q93 4 79 19Q65 34 65 62Q65 90 81 105Q97 120 126 120Q167 120 185 95Q203 70 203 17Q203 -47 166.5 -89.5Q130 -132 61 -149L40 -97Q86 -76 107.5 -54Q129 -32 129 -7Z" glyph-name="comma" horiz-adv-x="262" unicode="," /><glyph d="M143 -134H136Q115 -134 105.5 -124Q96 -114 96 -94Q96 -75 108 -64Q120 -53 140 -53Q169 -53 182.5 -70.5Q196 -88 196 -125Q196 -163 170.5 -188.5Q145 -214 97 -224L84 -191Q119 -180 131 -169Q143 -158 143 -142Z" glyph-name="commaaccent" horiz-adv-x="300" unicode="&#63171;" /><glyph d="M143 -124H136Q115 -124 105.5 -114Q96 -104 96 -84Q96 -65 108 -54Q120 -43 140 -43Q169 -43 182.5 -60.5Q196 -78 196 -115Q196 -153 170.5 -178.5Q145 -204 97 -214L84 -181Q119 -170 131 -159Q143 -148 143 -132Z" glyph-name="commaaccent.cap" horiz-adv-x="300" /><glyph d="M747 323Q747 163 656 68.5Q565 -26 408 -26Q250 -26 159.5 67.5Q69 161 69 323Q69 484 159.5 577.5Q250 671 408 671Q566 671 656.5 577Q747 483 747 323ZM665 323Q665 458 599 530Q533 602 408 602Q283 602 217 530Q151 458 151 323Q151 187 217 115Q283 43 408 43Q533 43 599 115Q665 187 665 323ZM420 140Q337 140 298 184.5Q259 229 259 322Q259 411 301.5 458Q344 505 421 505Q448 505 471 499.5Q494 494 516 482L496 424Q476 433 458.5 437Q441 441 423 441Q376 441 357.5 413.5Q339 386 339 322Q339 259 358 231.5Q377 204 423 204Q445 204 464 209Q483 214 505 225L524 171Q503 156 476 148Q449 140 420 140Z" glyph-name="copyright" horiz-adv-x="816" unicode="&#169;" /><glyph d="M269 384 291 331Q272 314 244.5 305Q217 296 184 296Q108 296 67 341.5Q26 387 26 475Q26 560 68.5 607Q111 654 184 654Q213 654 238.5 646.5Q264 639 283 626L258 571Q242 581 225 585.5Q208 590 188 590Q146 590 128.5 563Q111 536 111 475Q111 415 129 388Q147 361 190 361Q211 361 229 366Q247 371 269 384Z" glyph-name="cordinal" horiz-adv-x="353" /><glyph d="M199 148 129 79 64 144 134 213Q116 239 107 269Q98 299 98 329Q98 360 107 390Q116 420 134 446L64 515L129 580L199 511Q225 528 254.5 537Q284 546 315 546Q346 546 375.5 537Q405 528 431 511L501 580L566 515L497 446Q514 420 523 390.5Q532 361 532 329Q532 298 523 268.5Q514 239 497 213L566 144L501 79L431 148Q405 131 375.5 122Q346 113 315 113Q284 113 254.5 122Q225 131 199 148ZM315 456Q262 456 225.5 419Q189 382 189 329Q189 277 226 240Q263 203 315 203Q368 203 404.5 240Q441 277 441 329Q441 382 404.5 419Q368 456 315 456Z" glyph-name="currency" horiz-adv-x="630" unicode="&#164;" /><glyph d="M366 -6 360 51Q338 23 304.5 6.5Q271 -10 232 -10Q137 -10 89.5 52.5Q42 115 42 239Q42 366 96 431.5Q150 497 255 497Q279 497 301.5 494Q324 491 350 485V701L452 704V-6ZM258 420Q193 420 169 380Q145 340 145 246Q145 148 169.5 110Q194 72 257 72Q283 72 308 85Q333 98 350 119V401Q333 410 307.5 415Q282 420 258 420Z" glyph-name="d" horiz-adv-x="532" unicode="d" /><glyph d="M313 -181H207V396H56V487H207V646H313V487H465V396H313Z" glyph-name="dagger" horiz-adv-x="576" unicode="&#8224;" /><glyph d="M207 105H56V196H207V396H56V487H207V646H313V487H465V396H313V196H465V105H313V-181H207Z" glyph-name="daggerdbl" horiz-adv-x="576" unicode="&#8225;" /><glyph d="M527 516H479V527L522 701H598V690ZM366 -6 360 51Q338 23 304.5 6.5Q271 -10 232 -10Q137 -10 89.5 52.5Q42 115 42 239Q42 366 96 431.5Q150 497 255 497Q279 497 301.5 494Q324 491 350 485V701L452 704V-6ZM258 420Q193 420 169 380Q145 340 145 246Q145 148 169.5 110Q194 72 257 72Q283 72 308 85Q333 98 350 119V401Q333 410 307.5 415Q282 420 258 420Z" glyph-name="dcaron" horiz-adv-x="557" unicode="&#271;" /><glyph d="M269 -125Q269 -104 251 -93Q233 -82 196 -81L215 -9Q128 -4 85 58Q42 120 42 239Q42 366 96 431.5Q150 497 255 497Q279 497 301.5 494Q324 491 350 485V701L452 704V-6H366L360 51Q345 31 324 17Q303 3 278 -3L266 -46Q302 -52 321 -72Q340 -92 340 -125Q340 -166 312 -191.5Q284 -217 237 -217Q209 -217 185.5 -206.5Q162 -196 142 -174L167 -136Q187 -151 200 -156Q213 -161 225 -161Q247 -161 258 -152Q269 -143 269 -125ZM258 420Q193 420 169 380Q145 340 145 246Q145 148 169.5 110Q194 72 257 72Q283 72 308 85Q333 98 350 119V401Q333 410 307.5 415Q282 420 258 420Z" glyph-name="dcedilla" horiz-adv-x="531" unicode="&#7697;" /><glyph d="M366 -6 360 51Q338 23 304.5 6.5Q271 -10 232 -10Q137 -10 89.5 52.5Q42 115 42 239Q42 366 96 431.5Q150 497 255 497Q279 497 301.5 494Q324 491 350 485V570H265V625H350V701L452 704V625H514V570H452V-6ZM258 420Q193 420 169 380Q145 340 145 246Q145 148 169.5 110Q194 72 257 72Q283 72 308 85Q333 98 350 119V401Q333 410 307.5 415Q282 420 258 420Z" glyph-name="dcroat" horiz-adv-x="532" unicode="&#273;" /><glyph d="M366 -6 360 51Q338 23 304.5 6.5Q271 -10 232 -10Q137 -10 89.5 52.5Q42 115 42 239Q42 366 96 431.5Q150 497 255 497Q279 497 301.5 494Q324 491 350 485V701L452 704V-6ZM258 420Q193 420 169 380Q145 340 145 246Q145 148 169.5 110Q194 72 257 72Q283 72 308 85Q333 98 350 119V401Q333 410 307.5 415Q282 420 258 420ZM255 -181Q228 -181 214 -167Q200 -153 200 -125Q200 -97 214 -83Q228 -69 255 -69Q283 -69 297.5 -83Q312 -97 312 -125Q312 -153 297.5 -167Q283 -181 255 -181Z" glyph-name="ddotbelow" horiz-adv-x="531" unicode="&#7693;" /><glyph d="M194 654Q271 654 310 609Q349 564 349 475Q349 389 307.5 342.5Q266 296 194 296Q117 296 78.5 341Q40 386 40 475Q40 561 81 607.5Q122 654 194 654ZM194 589Q155 589 140 563Q125 537 125 475Q125 414 140.5 388Q156 362 194 362Q233 362 249 388Q265 414 265 475Q265 537 249.5 563Q234 589 194 589Z" glyph-name="degree" horiz-adv-x="389" unicode="&#176;" /><glyph d="M283 685Q308 685 321.5 671Q335 657 335 631Q335 605 321.5 591.5Q308 578 283 578Q259 578 246 591.5Q233 605 233 631Q233 658 246 671.5Q259 685 283 685ZM121 685Q147 685 160.5 671Q174 657 174 631Q174 605 160 591.5Q146 578 121 578Q97 578 84.5 591.5Q72 605 72 631Q72 657 84.5 671Q97 685 121 685Z" glyph-name="dieresis" horiz-adv-x="406" unicode="&#168;" /><glyph d="M291 823Q319 823 332.5 809.5Q346 796 346 769Q346 743 332 729.5Q318 716 291 716Q264 716 250 729.5Q236 743 236 769Q236 796 249.5 809.5Q263 823 291 823ZM118 823Q146 823 160 809.5Q174 796 174 769Q174 743 160 729.5Q146 716 118 716Q91 716 77.5 729Q64 742 64 769Q64 796 77.5 809.5Q91 823 118 823Z" glyph-name="dieresis.cap" horiz-adv-x="415" /><glyph d="M271 492Q298 492 313 477Q328 462 328 434Q328 407 313.5 392.5Q299 378 271 378Q244 378 229.5 392Q215 406 215 434Q215 462 229.5 477Q244 492 271 492ZM494 221H52V308H494ZM328 94Q328 66 313.5 51.5Q299 37 271 37Q243 37 229 51.5Q215 66 215 94Q215 122 229.5 136.5Q244 151 271 151Q298 151 313 136.5Q328 122 328 94Z" glyph-name="divide" horiz-adv-x="546" unicode="&#247;" /><glyph d="M80 43 112 126Q154 102 192.5 91Q231 80 270 80Q322 80 350.5 102.5Q379 125 380 168Q380 203 363 224Q346 245 299 262L236 286Q161 315 125.5 360Q90 405 90 471Q90 542 127.5 588.5Q165 635 234 650V750H322V655Q363 652 401.5 642Q440 632 469 616L438 528Q407 544 366.5 555Q326 566 293 566Q247 566 223 545.5Q199 525 199 486Q199 450 217 427.5Q235 405 279 388L363 355Q431 327 462 286.5Q493 246 493 185Q493 108 451.5 59Q410 10 334 -4V-119H246V-9Q198 -6 154 8Q110 22 80 43Z" glyph-name="dollar" horiz-adv-x="573" unicode="$" /><glyph d="M180 631Q180 603 166 589Q152 575 124 575Q97 575 83 589Q69 603 69 631Q69 659 83 673Q97 687 124 687Q152 687 166 673Q180 659 180 631Z" glyph-name="dotaccent" horiz-adv-x="249" unicode="&#729;" /><glyph d="M118 827Q146 827 160 812.5Q174 798 174 770Q174 742 160 728.5Q146 715 118 715Q90 715 76.5 729Q63 743 63 770Q63 798 77 812.5Q91 827 118 827Z" glyph-name="dotaccent.cap" horiz-adv-x="235" /><glyph d="M142 -181Q115 -181 101 -167Q87 -153 87 -125Q87 -97 101 -83Q115 -69 142 -69Q170 -69 184.5 -83Q199 -97 199 -125Q199 -153 184.5 -167Q170 -181 142 -181Z" glyph-name="dotbelow" horiz-adv-x="286" /><glyph d="M180 0H81V488H180Z" glyph-name="dotlessi" horiz-adv-x="261" unicode="&#305;" /><glyph d="M87 -39Q87 -34 87 -29.5Q87 -25 86 -19L82 33V488H184V-32Q184 -111 144 -150.5Q104 -190 23 -190Q-2 -190 -23.5 -186Q-45 -182 -61 -175L-45 -102Q-30 -106 -14.5 -108.5Q1 -111 14 -111Q52 -111 69.5 -93.5Q87 -76 87 -39Z" glyph-name="dotlessj" horiz-adv-x="264" unicode="&#567;" /><glyph d="M194 -250H113V750H194ZM344 -250H263V750H344Z" glyph-name="doublebar" horiz-adv-x="457" /><glyph d="M376 558H323L204 685V697H282L376 570ZM238 558H185L66 685V697H144L238 570Z" glyph-name="doublegrave" horiz-adv-x="447" /><glyph d="M426 706H357L189 834V846H293L426 718ZM275 706H207L38 834V846H142L275 718Z" glyph-name="doublegrave.cap" horiz-adv-x="455" /><glyph d="M254 -10Q149 -10 95.5 54.5Q42 119 42 244Q42 364 98.5 431Q155 498 255 498Q340 498 383.5 447Q427 396 427 299Q427 282 426 261Q425 240 424 225H143Q143 140 171.5 106Q200 72 270 72Q301 72 330 82.5Q359 93 393 117L429 54Q393 21 350 5.5Q307 -10 254 -10ZM249 421Q200 421 174.5 390.5Q149 360 145 298H335V314Q335 371 314.5 396Q294 421 249 421Z" glyph-name="e" horiz-adv-x="475" unicode="e" /><glyph d="M254 -10Q149 -10 95.5 54.5Q42 119 42 244Q42 364 98.5 431Q155 498 255 498Q340 498 383.5 447Q427 396 427 299Q427 282 426 261Q425 240 424 225H143Q143 140 171.5 106Q200 72 270 72Q301 72 330 82.5Q359 93 393 117L429 54Q393 21 350 5.5Q307 -10 254 -10ZM249 421Q200 421 174.5 390.5Q149 360 145 298H335V314Q335 371 314.5 396Q294 421 249 421ZM166 560H152V618L347 720H360V633Z" glyph-name="eacute" horiz-adv-x="475" unicode="&#233;" /><glyph d="M254 -10Q149 -10 95.5 54.5Q42 119 42 244Q42 364 98.5 431Q155 498 255 498Q340 498 383.5 447Q427 396 427 299Q427 282 426 261Q425 240 424 225H143Q143 140 171.5 106Q200 72 270 72Q301 72 330 82.5Q359 93 393 117L429 54Q393 21 350 5.5Q307 -10 254 -10ZM249 421Q200 421 174.5 390.5Q149 360 145 298H335V314Q335 371 314.5 396Q294 421 249 421ZM384 686V663Q384 606 351.5 579Q319 552 252 552Q187 552 154 580Q121 608 121 663V686H182Q183 645 199 628Q215 611 252 611Q289 611 305 627.5Q321 644 323 686Z" glyph-name="ebreve" horiz-adv-x="475" unicode="&#277;" /><glyph d="M254 -10Q149 -10 95.5 54.5Q42 119 42 244Q42 364 98.5 431Q155 498 255 498Q340 498 383.5 447Q427 396 427 299Q427 282 426 261Q425 240 424 225H143Q143 140 171.5 106Q200 72 270 72Q301 72 330 82.5Q359 93 393 117L429 54Q393 21 350 5.5Q307 -10 254 -10ZM249 421Q200 421 174.5 390.5Q149 360 145 298H335V314Q335 371 314.5 396Q294 421 249 421ZM268 561H231L116 645V708H130L250 628L370 708H384V645Z" glyph-name="ecaron" horiz-adv-x="475" unicode="&#283;" /><glyph d="M254 -10Q149 -10 95.5 54.5Q42 119 42 244Q42 364 98.5 431Q155 498 255 498Q340 498 383.5 447Q427 396 427 299Q427 282 426 261Q425 240 424 225H143Q143 140 171.5 106Q200 72 270 72Q301 72 330 82.5Q359 93 393 117L429 54Q393 21 350 5.5Q307 -10 254 -10ZM249 421Q200 421 174.5 390.5Q149 360 145 298H335V314Q335 371 314.5 396Q294 421 249 421ZM132 557H118V621L233 705H270L386 621V557H372L252 637Z" glyph-name="ecircumflex" horiz-adv-x="475" unicode="&#234;" /><glyph d="M254 -10Q149 -10 95.5 54.5Q42 119 42 244Q42 364 98.5 431Q155 498 255 498Q340 498 383.5 447Q427 396 427 299Q427 282 426 261Q425 240 424 225H143Q143 140 171.5 106Q200 72 270 72Q301 72 330 82.5Q359 93 393 117L429 54Q393 21 350 5.5Q307 -10 254 -10ZM249 421Q200 421 174.5 390.5Q149 360 145 298H335V314Q335 371 314.5 396Q294 421 249 421ZM334 685Q359 685 372.5 671Q386 657 386 631Q386 605 372.5 591.5Q359 578 334 578Q310 578 297 591.5Q284 605 284 631Q284 658 297 671.5Q310 685 334 685ZM172 685Q198 685 211.5 671Q225 657 225 631Q225 605 211 591.5Q197 578 172 578Q148 578 135.5 591.5Q123 605 123 631Q123 657 135.5 671Q148 685 172 685Z" glyph-name="edieresis" horiz-adv-x="475" unicode="&#235;" /><glyph d="M254 -10Q149 -10 95.5 54.5Q42 119 42 244Q42 364 98.5 431Q155 498 255 498Q340 498 383.5 447Q427 396 427 299Q427 282 426 261Q425 240 424 225H143Q143 140 171.5 106Q200 72 270 72Q301 72 330 82.5Q359 93 393 117L429 54Q393 21 350 5.5Q307 -10 254 -10ZM249 421Q200 421 174.5 390.5Q149 360 145 298H335V314Q335 371 314.5 396Q294 421 249 421ZM305 631Q305 603 291 589Q277 575 249 575Q222 575 208 589Q194 603 194 631Q194 659 208 673Q222 687 249 687Q277 687 291 673Q305 659 305 631Z" glyph-name="edotaccent" horiz-adv-x="475" unicode="&#279;" /><glyph d="M254 -10Q149 -10 95.5 54.5Q42 119 42 244Q42 364 98.5 431Q155 498 255 498Q340 498 383.5 447Q427 396 427 299Q427 282 426 261Q425 240 424 225H143Q143 140 171.5 106Q200 72 270 72Q301 72 330 82.5Q359 93 393 117L429 54Q393 21 350 5.5Q307 -10 254 -10ZM249 421Q200 421 174.5 390.5Q149 360 145 298H335V314Q335 371 314.5 396Q294 421 249 421ZM355 558H302L183 685V697H261L355 570ZM217 558H164L45 685V697H123L217 570Z" glyph-name="edoublegrave" horiz-adv-x="475" /><glyph d="M254 -10Q149 -10 95.5 54.5Q42 119 42 244Q42 364 98.5 431Q155 498 255 498Q340 498 383.5 447Q427 396 427 299Q427 282 426 261Q425 240 424 225H143Q143 140 171.5 106Q200 72 270 72Q301 72 330 82.5Q359 93 393 117L429 54Q393 21 350 5.5Q307 -10 254 -10ZM249 421Q200 421 174.5 390.5Q149 360 145 298H335V314Q335 371 314.5 396Q294 421 249 421ZM339 560H326L131 633V720H145L339 618Z" glyph-name="egrave" horiz-adv-x="475" unicode="&#232;" /><glyph d="M57 169Q57 221 82.5 260Q108 299 169 330L153 340Q112 361 89.5 397Q67 433 67 486Q67 523 78.5 554Q90 585 114.5 607.5Q139 630 176 642.5Q213 655 264 655Q312 655 348 643Q384 631 407 610Q430 589 441.5 560Q453 531 453 497Q453 446 430.5 407Q408 368 349 338L367 329Q423 303 446 264.5Q469 226 469 170Q469 135 456.5 102.5Q444 70 418.5 45Q393 20 353.5 5Q314 -10 260 -10Q155 -10 106 36Q57 82 57 169ZM271 373Q309 390 330.5 417.5Q352 445 352 483Q352 501 347.5 517Q343 533 332.5 545Q322 557 304.5 564.5Q287 572 260 572Q209 572 188 549.5Q167 527 167 485Q167 444 188.5 418Q210 392 271 373ZM159 177Q159 157 163.5 138.5Q168 120 179.5 105.5Q191 91 211 82.5Q231 74 263 74Q311 74 336 99.5Q361 125 361 172Q361 195 355.5 212.5Q350 230 337 244Q324 258 302 269.5Q280 281 248 291Q228 281 211.5 270.5Q195 260 183.5 247Q172 234 165.5 217Q159 200 159 177Z" glyph-name="eight" horiz-adv-x="526" unicode="8" /><glyph d="M254 -10Q149 -10 95.5 54.5Q42 119 42 244Q42 364 98.5 431Q155 498 255 498Q340 498 383.5 447Q427 396 427 299Q427 282 426 261Q425 240 424 225H143Q143 140 171.5 106Q200 72 270 72Q301 72 330 82.5Q359 93 393 117L429 54Q393 21 350 5.5Q307 -10 254 -10ZM249 421Q200 421 174.5 390.5Q149 360 145 298H335V314Q335 371 314.5 396Q294 421 249 421ZM176 563H115V586Q115 641 148 669Q181 697 246 697Q313 697 345.5 670Q378 643 378 586V563H317Q315 605 299.5 621.5Q284 638 246 638Q209 638 193 621.5Q177 605 176 563Z" glyph-name="einvertedbreve" horiz-adv-x="475" unicode="&#519;" /><glyph d="M618 53Q618 21 602 5.5Q586 -10 554 -10Q523 -10 507 6Q491 22 491 53Q491 85 507 101Q523 117 554 117Q586 117 602 101Q618 85 618 53ZM405 53Q405 21 389 5.5Q373 -10 341 -10Q309 -10 293 5.5Q277 21 277 53Q277 85 293 101Q309 117 341 117Q373 117 389 101Q405 85 405 53ZM191 53Q191 21 175 5.5Q159 -10 127 -10Q96 -10 80 6Q64 22 64 53Q64 85 80 101Q96 117 127 117Q159 117 175 101Q191 85 191 53Z" glyph-name="ellipsis" horiz-adv-x="682" unicode="&#8230;" /><glyph d="M254 -10Q149 -10 95.5 54.5Q42 119 42 244Q42 364 98.5 431Q155 498 255 498Q340 498 383.5 447Q427 396 427 299Q427 282 426 261Q425 240 424 225H143Q143 140 171.5 106Q200 72 270 72Q301 72 330 82.5Q359 93 393 117L429 54Q393 21 350 5.5Q307 -10 254 -10ZM249 421Q200 421 174.5 390.5Q149 360 145 298H335V314Q335 371 314.5 396Q294 421 249 421ZM375 589H123V661H375Z" glyph-name="emacron" horiz-adv-x="475" unicode="&#275;" /><glyph d="M973 228H53V302H973Z" glyph-name="emdash" horiz-adv-x="1026" unicode="&#8212;" /><glyph d="M473 228H53V302H473Z" glyph-name="endash" horiz-adv-x="526" unicode="&#8211;" /><glyph d="M181 0H80V488H176L179 412Q205 456 239 477.5Q273 499 315 499Q395 499 433 456.5Q471 414 471 324V-36Q471 -115 431 -154.5Q391 -194 309 -194Q287 -194 265 -190Q243 -186 226 -179L242 -106Q254 -110 270 -112.5Q286 -115 300 -115Q338 -115 356 -97.5Q374 -80 374 -42Q374 -41 373 -23Q372 -5 369 30V300Q369 373 351 396.5Q333 420 286 420Q254 420 226 399.5Q198 379 181 345Z" glyph-name="eng" horiz-adv-x="545" unicode="&#331;" /><glyph d="M313 -190Q266 -190 239 -163Q212 -136 212 -90Q212 -67 218.5 -46.5Q225 -26 237 -9Q141 -4 91.5 60Q42 124 42 244Q42 364 98.5 431Q155 498 255 498Q340 498 383.5 447Q427 396 427 299Q427 282 426 261Q425 240 424 225H143Q143 140 171.5 106Q200 72 270 72Q301 72 330 82.5Q359 93 393 117L429 54Q415 41 397.5 30Q380 19 353 5Q321 -11 306 -31Q291 -51 291 -77Q291 -100 303 -113Q315 -126 336 -126Q352 -126 366.5 -120Q381 -114 397 -101L426 -145Q401 -170 375.5 -180Q350 -190 313 -190ZM249 421Q200 421 174.5 390.5Q149 360 145 298H335V314Q335 371 314.5 396Q294 421 249 421Z" glyph-name="eogonek" horiz-adv-x="475" unicode="&#281;" /><glyph d="M496 365H50V452H496ZM496 174H50V261H496Z" glyph-name="equal" horiz-adv-x="546" unicode="=" /><glyph d="M185 274V156Q185 150 187 145Q189 140 193 136Q237 90 294 65Q351 40 414 40Q481 40 541 68Q601 96 646 147L714 129Q661 67 577.5 27Q494 -13 413 -13Q264 -13 158.5 82Q53 177 53 311Q53 445 158.5 540Q264 635 413 635Q562 635 667.5 540Q773 445 773 311V278H190Q187 278 186 277Q185 276 185 274ZM190 349H637Q639 349 640 350.5Q641 352 641 354V469Q641 475 639 480.5Q637 486 632 491Q588 535 531.5 558.5Q475 582 414 582Q352 582 295 557.5Q238 533 194 487Q190 483 187.5 477.5Q185 472 185 466V354Q185 352 186.5 350.5Q188 349 190 349Z" glyph-name="estimated" horiz-adv-x="826" unicode="&#8494;" /><glyph d="M468 238Q468 120 411 55Q354 -10 255 -10Q149 -10 95.5 53.5Q42 117 42 244Q42 366 98.5 432Q155 498 255 498Q273 498 290 494Q307 490 321 483Q315 504 307 526Q299 548 289 570H194V625H258Q245 645 232 661.5Q219 678 207 689V701L301 704Q315 690 330 669.5Q345 649 361 625H450V570H392Q430 495 449 411Q468 327 468 238ZM255 417Q194 417 169 377Q144 337 144 244Q144 151 169 111Q194 71 255 71Q316 71 341 111Q366 151 366 244Q366 337 341 377Q316 417 255 417Z" glyph-name="eth" horiz-adv-x="510" unicode="&#240;" /><glyph d="M212 179H140L110 619V646H241V619ZM241 52Q241 22 224.5 6.5Q208 -9 175 -9Q142 -9 126 6.5Q110 22 110 52Q110 83 126 98.5Q142 114 175 114Q208 114 224.5 98.5Q241 83 241 52Z" glyph-name="exclam" horiz-adv-x="351" unicode="!" /><glyph d="M146 497Q179 497 195.5 481.5Q212 466 212 436Q212 405 195.5 389.5Q179 374 146 374Q113 374 97 389.5Q81 405 81 436Q81 466 97 481.5Q113 497 146 497ZM81 -158V-131L111 309H183L212 -131V-158Z" glyph-name="exclamdown" horiz-adv-x="317" unicode="&#161;" /><glyph d="M192 -190Q147 -190 108 -176.5Q69 -163 40 -138L71 -71Q105 -91 131.5 -99.5Q158 -108 185 -108Q251 -108 281 -78Q311 -48 311 16Q311 70 271.5 97Q232 124 145 124H119V183L264 409H44V488H389V429L231 195Q328 186 374.5 142Q421 98 421 18Q421 -82 360 -136Q299 -190 192 -190Z" glyph-name="ezh" horiz-adv-x="441" unicode="&#658;" /><glyph d="M192 -190Q147 -190 108 -176.5Q69 -163 40 -138L71 -71Q105 -91 131.5 -99.5Q158 -108 185 -108Q251 -108 281 -78Q311 -48 311 16Q311 70 271.5 97Q232 124 145 124H119V183L264 409H44V488H389V429L231 195Q328 186 374.5 142Q421 98 421 18Q421 -82 360 -136Q299 -190 192 -190ZM204 561H167L52 645V708H66L186 628L306 708H320V645Z" glyph-name="ezhcaron" horiz-adv-x="470" unicode="&#495;" /><glyph d="M196 0H94V411H40V483L94 493V555Q94 629 136.5 668.5Q179 708 257 708Q281 708 302.5 704.5Q324 701 340 694L324 621Q312 625 294.5 627.5Q277 630 263 630Q225 630 208 612.5Q191 595 191 557Q191 554 191.5 548Q192 542 193 530Q193 527 193 524Q193 521 194 515Q195 504 195.5 498.5Q196 493 196 488H311V411H196Z" glyph-name="f" horiz-adv-x="325" unicode="f" /><glyph d="M196 0H94V411H40V483L94 493V555Q94 629 136.5 668.5Q179 708 257 708Q281 708 302.5 704.5Q324 701 340 694L324 621Q312 625 294.5 627.5Q277 630 263 630Q225 630 208 612.5Q191 595 191 557Q191 555 191.5 546Q192 537 194 521Q194 512 194.5 504Q195 496 196 488H390V555Q390 629 432.5 668.5Q475 708 553 708Q577 708 598.5 704.5Q620 701 636 694L620 621Q608 625 590.5 627.5Q573 630 559 630Q521 630 504 612.5Q487 595 487 557Q487 555 487.5 546Q488 537 490 521Q490 512 490.5 504Q491 496 492 488H607V411H492V0H390V411H196Z" glyph-name="ff" horiz-adv-x="620" unicode="&#64256;" /><glyph d="M196 0H94V411H40V483L94 493V555Q94 629 136.5 668.5Q179 708 257 708Q281 708 302.5 704.5Q324 701 340 694L324 621Q312 625 294.5 627.5Q277 630 263 630Q225 630 208 612.5Q191 595 191 557Q191 554 191.5 548Q192 542 193 530Q193 527 193 524Q193 521 194 515Q195 504 195.5 498.5Q196 493 196 488H311V411H196ZM450 694Q480 694 494.5 679.5Q509 665 509 636Q509 606 494.5 591.5Q480 577 450 577Q419 577 405 591.5Q391 606 391 636Q391 666 405 680Q419 694 450 694ZM500 0H399V488H500Z" glyph-name="fi" horiz-adv-x="580" unicode="&#64257;" /><glyph d="M58 114Q85 100 115.5 89.5Q146 79 178 79Q233 79 265 106Q297 133 297 194Q297 257 261.5 289Q226 321 150 321Q130 321 111 319.5Q92 318 70 316L86 646H375V555H183L175 405L216 404Q257 403 292.5 391.5Q328 380 354.5 356Q381 332 396.5 295.5Q412 259 412 207Q412 107 355 48.5Q298 -10 195 -10Q146 -10 100.5 3.5Q55 17 30 35Z" glyph-name="five" horiz-adv-x="470" unicode="5" /><glyph d="M196 0H94V411H40V483L94 493V555Q94 629 136.5 668.5Q179 708 257 708Q281 708 302.5 704.5Q324 701 340 694L324 621Q312 625 294.5 627.5Q277 630 263 630Q225 630 208 612.5Q191 595 191 557Q191 554 191.5 548Q192 542 193 530Q193 527 193 524Q193 521 194 515Q195 504 195.5 498.5Q196 493 196 488H311V411H196ZM500 0H399V701L500 704Z" glyph-name="fl" horiz-adv-x="580" unicode="&#64258;" /><glyph d="M126 -10Q102 -10 80.5 -6Q59 -2 44 5L72 77Q85 73 101 71Q117 69 131 69Q169 69 187 88.5Q205 108 212 162L241 385H186L192 445H248L257 502Q267 578 315 616.5Q363 655 448 655Q472 655 492.5 651.5Q513 648 529 641L503 567Q492 571 474.5 574Q457 577 443 577Q400 577 380 554.5Q360 532 359 484L358 445H485L474 385H349L314 144Q303 66 256.5 28Q210 -10 126 -10Z" glyph-name="florin" horiz-adv-x="573" unicode="&#402;" /><glyph d="M56 190Q69 244 96 301.5Q123 359 155 427Q188 497 211 550Q234 603 248 648H341V636Q336 614 326 587Q316 560 303 530.5Q290 501 275.5 471Q261 441 248 413Q218 352 193 295Q168 238 160 198H316V339H414V198H492V112H414V0H316V112H56Z" glyph-name="four" horiz-adv-x="538" unicode="4" /><glyph d="M285 633 -71 0H-141V13L214 646H285Z" glyph-name="fraction" horiz-adv-x="139" unicode="&#8260;" /><glyph d="M473 -38Q473 -112 408.5 -151Q344 -190 223 -190Q119 -190 71.5 -163Q24 -136 24 -77Q24 -39 54.5 -13.5Q85 12 136 20Q116 27 104.5 43Q93 59 93 81Q93 107 111.5 126Q130 145 163 153Q108 165 79.5 207.5Q51 250 51 318Q51 406 97 452Q143 498 232 498Q244 498 255.5 497Q267 496 279 494Q289 493 303.5 490Q318 487 324 486H471L470 415H390Q398 400 402.5 373.5Q407 347 407 319Q407 232 361 187Q315 142 227 142Q205 139 192.5 130Q180 121 180 109Q180 88 193.5 79.5Q207 71 244 71H334Q403 71 438 43.5Q473 16 473 -38ZM230 426Q184 426 165.5 401.5Q147 377 147 320Q147 264 165.5 239Q184 214 229 214Q275 214 293.5 238.5Q312 263 312 320Q312 350 307 375.5Q302 401 293 417Q282 421 263.5 423.5Q245 426 230 426ZM309 -9H179Q145 -15 129.5 -27.5Q114 -40 114 -61Q114 -95 141 -109Q168 -123 234 -123Q305 -123 339.5 -107Q374 -91 374 -58Q374 -33 358.5 -21Q343 -9 309 -9Z" glyph-name="g" horiz-adv-x="501" unicode="g" /><glyph d="M473 -38Q473 -112 408.5 -151Q344 -190 223 -190Q119 -190 71.5 -163Q24 -136 24 -77Q24 -39 54.5 -13.5Q85 12 136 20Q116 27 104.5 43Q93 59 93 81Q93 107 111.5 126Q130 145 163 153Q108 165 79.5 207.5Q51 250 51 318Q51 406 97 452Q143 498 232 498Q244 498 255.5 497Q267 496 279 494Q289 493 303.5 490Q318 487 324 486H471L470 415H390Q398 400 402.5 373.5Q407 347 407 319Q407 232 361 187Q315 142 227 142Q205 139 192.5 130Q180 121 180 109Q180 88 193.5 79.5Q207 71 244 71H334Q403 71 438 43.5Q473 16 473 -38ZM230 426Q184 426 165.5 401.5Q147 377 147 320Q147 264 165.5 239Q184 214 229 214Q275 214 293.5 238.5Q312 263 312 320Q312 350 307 375.5Q302 401 293 417Q282 421 263.5 423.5Q245 426 230 426ZM309 -9H179Q145 -15 129.5 -27.5Q114 -40 114 -61Q114 -95 141 -109Q168 -123 234 -123Q305 -123 339.5 -107Q374 -91 374 -58Q374 -33 358.5 -21Q343 -9 309 -9ZM159 560H145V618L340 720H353V633Z" glyph-name="gacute" horiz-adv-x="501" unicode="&#501;" /><glyph d="M473 -38Q473 -112 408.5 -151Q344 -190 223 -190Q119 -190 71.5 -163Q24 -136 24 -77Q24 -39 54.5 -13.5Q85 12 136 20Q116 27 104.5 43Q93 59 93 81Q93 107 111.5 126Q130 145 163 153Q108 165 79.5 207.5Q51 250 51 318Q51 406 97 452Q143 498 232 498Q244 498 255.5 497Q267 496 279 494Q289 493 303.5 490Q318 487 324 486H471L470 415H390Q398 400 402.5 373.5Q407 347 407 319Q407 232 361 187Q315 142 227 142Q205 139 192.5 130Q180 121 180 109Q180 88 193.5 79.5Q207 71 244 71H334Q403 71 438 43.5Q473 16 473 -38ZM230 426Q184 426 165.5 401.5Q147 377 147 320Q147 264 165.5 239Q184 214 229 214Q275 214 293.5 238.5Q312 263 312 320Q312 350 307 375.5Q302 401 293 417Q282 421 263.5 423.5Q245 426 230 426ZM309 -9H179Q145 -15 129.5 -27.5Q114 -40 114 -61Q114 -95 141 -109Q168 -123 234 -123Q305 -123 339.5 -107Q374 -91 374 -58Q374 -33 358.5 -21Q343 -9 309 -9ZM363 686V663Q363 606 330.5 579Q298 552 231 552Q166 552 133 580Q100 608 100 663V686H161Q162 645 178 628Q194 611 231 611Q268 611 284 627.5Q300 644 302 686Z" glyph-name="gbreve" horiz-adv-x="501" unicode="&#287;" /><glyph d="M473 -38Q473 -112 408.5 -151Q344 -190 223 -190Q119 -190 71.5 -163Q24 -136 24 -77Q24 -39 54.5 -13.5Q85 12 136 20Q116 27 104.5 43Q93 59 93 81Q93 107 111.5 126Q130 145 163 153Q108 165 79.5 207.5Q51 250 51 318Q51 406 97 452Q143 498 232 498Q244 498 255.5 497Q267 496 279 494Q289 493 303.5 490Q318 487 324 486H471L470 415H390Q398 400 402.5 373.5Q407 347 407 319Q407 232 361 187Q315 142 227 142Q205 139 192.5 130Q180 121 180 109Q180 88 193.5 79.5Q207 71 244 71H334Q403 71 438 43.5Q473 16 473 -38ZM230 426Q184 426 165.5 401.5Q147 377 147 320Q147 264 165.5 239Q184 214 229 214Q275 214 293.5 238.5Q312 263 312 320Q312 350 307 375.5Q302 401 293 417Q282 421 263.5 423.5Q245 426 230 426ZM309 -9H179Q145 -15 129.5 -27.5Q114 -40 114 -61Q114 -95 141 -109Q168 -123 234 -123Q305 -123 339.5 -107Q374 -91 374 -58Q374 -33 358.5 -21Q343 -9 309 -9ZM247 561H210L95 645V708H109L229 628L349 708H363V645Z" glyph-name="gcaron" horiz-adv-x="501" unicode="&#487;" /><glyph d="M473 -38Q473 -112 408.5 -151Q344 -190 223 -190Q119 -190 71.5 -163Q24 -136 24 -77Q24 -39 54.5 -13.5Q85 12 136 20Q116 27 104.5 43Q93 59 93 81Q93 107 111.5 126Q130 145 163 153Q108 165 79.5 207.5Q51 250 51 318Q51 406 97 452Q143 498 232 498Q244 498 255.5 497Q267 496 279 494Q289 493 303.5 490Q318 487 324 486H471L470 415H390Q398 400 402.5 373.5Q407 347 407 319Q407 232 361 187Q315 142 227 142Q205 139 192.5 130Q180 121 180 109Q180 88 193.5 79.5Q207 71 244 71H334Q403 71 438 43.5Q473 16 473 -38ZM230 426Q184 426 165.5 401.5Q147 377 147 320Q147 264 165.5 239Q184 214 229 214Q275 214 293.5 238.5Q312 263 312 320Q312 350 307 375.5Q302 401 293 417Q282 421 263.5 423.5Q245 426 230 426ZM309 -9H179Q145 -15 129.5 -27.5Q114 -40 114 -61Q114 -95 141 -109Q168 -123 234 -123Q305 -123 339.5 -107Q374 -91 374 -58Q374 -33 358.5 -21Q343 -9 309 -9ZM112 557H98V621L213 705H250L366 621V557H352L232 637Z" glyph-name="gcircumflex" horiz-adv-x="501" unicode="&#285;" /><glyph d="M228.0087 623.9924H235.0083Q256.007 623.9924 265.5064 613.993Q275.0059 603.9937 275.0059 583.9949Q275.0059 564.996 263.0066 553.9967Q251.0073 542.9974 231.0085 542.9974Q202.0103 542.9974 188.5111 560.4963Q175.012 577.9952 175.012 614.993Q175.012 652.9907 200.5104 678.4891Q226.0089 703.9875 274.0059 713.9869L287.0051 680.989Q252.0073 669.9896 240.008 658.9903Q228.0087 647.991 228.0087 631.9919ZM473 -38Q473 -112 408.5 -151Q344 -190 223 -190Q119 -190 71.5 -163Q24 -136 24 -77Q24 -39 54.5 -13.5Q85 12 136 20Q116 27 104.5 43Q93 59 93 81Q93 107 111.5 126Q130 145 163 153Q108 165 79.5 207.5Q51 250 51 318Q51 406 97 452Q143 498 232 498Q244 498 255.5 497Q267 496 279 494Q289 493 303.5 490Q318 487 324 486H471L470 415H390Q398 400 402.5 373.5Q407 347 407 319Q407 232 361 187Q315 142 227 142Q205 139 192.5 130Q180 121 180 109Q180 88 193.5 79.5Q207 71 244 71H334Q403 71 438 43.5Q473 16 473 -38ZM230 426Q184 426 165.5 401.5Q147 377 147 320Q147 264 165.5 239Q184 214 229 214Q275 214 293.5 238.5Q312 263 312 320Q312 350 307 375.5Q302 401 293 417Q282 421 263.5 423.5Q245 426 230 426ZM309 -9H179Q145 -15 129.5 -27.5Q114 -40 114 -61Q114 -95 141 -109Q168 -123 234 -123Q305 -123 339.5 -107Q374 -91 374 -58Q374 -33 358.5 -21Q343 -9 309 -9Z" glyph-name="gcommaaccent" horiz-adv-x="501" unicode="&#291;" /><glyph d="M230.0087 622.9924H237.0083Q258.007 622.9924 267.5064 612.993Q277.0059 602.9937 277.0059 582.9949Q277.0059 563.996 265.0066 552.9967Q253.0073 541.9974 233.0085 541.9974Q204.0103 541.9974 190.5111 559.4963Q177.012 576.9952 177.012 613.993Q177.012 651.9907 202.5104 677.4891Q228.0089 702.9875 276.0059 712.9869L289.0051 679.989Q254.0073 668.9896 242.008 657.9903Q230.0087 646.991 230.0087 630.9919ZM473 -38Q473 -112 408.5 -151Q344 -190 223 -190Q119 -190 71.5 -163Q24 -136 24 -77Q24 -39 54.5 -13.5Q85 12 136 20Q116 27 104.5 43Q93 59 93 81Q93 107 111.5 126Q130 145 163 153Q108 165 79.5 207.5Q51 250 51 318Q51 406 97 452Q143 498 232 498Q244 498 255.5 497Q267 496 279 494Q289 493 303.5 490Q318 487 324 486H471L470 415H390Q398 400 402.5 373.5Q407 347 407 319Q407 232 361 187Q315 142 227 142Q205 139 192.5 130Q180 121 180 109Q180 88 193.5 79.5Q207 71 244 71H334Q403 71 438 43.5Q473 16 473 -38ZM230 426Q184 426 165.5 401.5Q147 377 147 320Q147 264 165.5 239Q184 214 229 214Q275 214 293.5 238.5Q312 263 312 320Q312 350 307 375.5Q302 401 293 417Q282 421 263.5 423.5Q245 426 230 426ZM309 -9H179Q145 -15 129.5 -27.5Q114 -40 114 -61Q114 -95 141 -109Q168 -123 234 -123Q305 -123 339.5 -107Q374 -91 374 -58Q374 -33 358.5 -21Q343 -9 309 -9Z" glyph-name="gcommaturnedabove" horiz-adv-x="501" /><glyph d="M473 -38Q473 -112 408.5 -151Q344 -190 223 -190Q119 -190 71.5 -163Q24 -136 24 -77Q24 -39 54.5 -13.5Q85 12 136 20Q116 27 104.5 43Q93 59 93 81Q93 107 111.5 126Q130 145 163 153Q108 165 79.5 207.5Q51 250 51 318Q51 406 97 452Q143 498 232 498Q244 498 255.5 497Q267 496 279 494Q289 493 303.5 490Q318 487 324 486H471L470 415H390Q398 400 402.5 373.5Q407 347 407 319Q407 232 361 187Q315 142 227 142Q205 139 192.5 130Q180 121 180 109Q180 88 193.5 79.5Q207 71 244 71H334Q403 71 438 43.5Q473 16 473 -38ZM230 426Q184 426 165.5 401.5Q147 377 147 320Q147 264 165.5 239Q184 214 229 214Q275 214 293.5 238.5Q312 263 312 320Q312 350 307 375.5Q302 401 293 417Q282 421 263.5 423.5Q245 426 230 426ZM309 -9H179Q145 -15 129.5 -27.5Q114 -40 114 -61Q114 -95 141 -109Q168 -123 234 -123Q305 -123 339.5 -107Q374 -91 374 -58Q374 -33 358.5 -21Q343 -9 309 -9ZM285 631Q285 603 271 589Q257 575 229 575Q202 575 188 589Q174 603 174 631Q174 659 188 673Q202 687 229 687Q257 687 271 673Q285 659 285 631Z" glyph-name="gdotaccent" horiz-adv-x="501" unicode="&#289;" /><glyph d="M196 0H94V411H40V483L94 493V549Q94 625 149.5 667Q205 709 298 709Q404 709 462.5 669.5Q521 630 521 556Q521 516 501 488Q481 460 421 430Q378 408 365 393Q352 378 352 359Q352 331 365.5 317Q379 303 416 290L467 272Q525 253 551.5 221.5Q578 190 578 143Q578 71 530.5 30.5Q483 -10 398 -10Q355 -10 310.5 -0.5Q266 9 237 24L257 101Q308 82 338 75.5Q368 69 398 69Q436 69 456 85Q476 101 476 131Q476 155 463 168.5Q450 182 417 193L366 210Q309 230 282.5 262.5Q256 295 256 345Q256 385 273.5 413Q291 441 345 471Q387 495 399.5 511.5Q412 528 412 551Q412 590 382 610Q352 630 294 630Q243 630 218 607.5Q193 585 193 539Q193 533 194.5 507.5Q196 482 196 480Z" glyph-name="germandbls" horiz-adv-x="624" unicode="&#223;" /><glyph d="M279 560H266L71 633V720H85L279 618Z" glyph-name="grave" horiz-adv-x="350" unicode="`" /><glyph d="M291 695H277L54 769V856H67L291 758Z" glyph-name="grave.cap" horiz-adv-x="345" /><glyph d="M52 37H40V142L378 324V329L40 511V609H52L497 363V283Z" glyph-name="greater" horiz-adv-x="546" unicode="&gt;" /><glyph d="M519 192H28V275H399V280L28 516V618H40L519 296ZM520 0H28V82H520Z" glyph-name="greaterequal" horiz-adv-x="546" unicode="&#8805;" /><glyph d="M-24 -81V-47H29Q39 -21 67.5 -3.5Q96 14 136 20Q116 27 104.5 43Q93 59 93 81Q93 107 111.5 126Q130 145 163 153Q108 165 79.5 207.5Q51 250 51 318Q51 406 97 452Q143 498 232 498Q244 498 255.5 497Q267 496 279 494Q289 493 303.5 490Q318 487 324 486H471V415H390Q398 400 402.5 373.5Q407 347 407 319Q407 232 361 187Q315 142 227 142Q205 139 192.5 130Q180 121 180 109Q180 88 193.5 79.5Q207 71 244 71H334Q403 71 438 43.5Q473 16 473 -38V-47H519V-81H466Q449 -134 386.5 -162Q324 -190 223 -190Q121 -190 73 -163.5Q25 -137 24 -81ZM230 426Q184 426 165.5 401.5Q147 377 147 320Q147 264 165.5 239Q184 214 229 214Q275 214 293.5 238.5Q312 263 312 320Q312 350 307 375.5Q302 401 293 417Q282 421 263.5 423.5Q245 426 230 426ZM116 -47H373Q370 -28 354.5 -18.5Q339 -9 309 -9H179Q151 -13 136 -22.5Q121 -32 116 -47ZM234 -123Q290 -123 323.5 -112.5Q357 -102 368 -81H117Q124 -103 151 -113Q178 -123 234 -123Z" glyph-name="gstroke" horiz-adv-x="501" unicode="&#485;" /><glyph d="M473 -38Q473 -112 408.5 -151Q344 -190 223 -190Q119 -190 71.5 -163Q24 -136 24 -77Q24 -39 54.5 -13.5Q85 12 136 20Q116 27 104.5 43Q93 59 93 81Q93 107 111.5 126Q130 145 163 153Q108 165 79.5 207.5Q51 250 51 318Q51 406 97 452Q143 498 232 498Q244 498 255.5 497Q267 496 279 494Q289 493 303.5 490Q318 487 324 486H471L470 415H390Q398 400 402.5 373.5Q407 347 407 319Q407 232 361 187Q315 142 227 142Q205 139 192.5 130Q180 121 180 109Q180 88 193.5 79.5Q207 71 244 71H334Q403 71 438 43.5Q473 16 473 -38ZM230 426Q184 426 165.5 401.5Q147 377 147 320Q147 264 165.5 239Q184 214 229 214Q275 214 293.5 238.5Q312 263 312 320Q312 350 307 375.5Q302 401 293 417Q282 421 263.5 423.5Q245 426 230 426ZM309 -9H179Q145 -15 129.5 -27.5Q114 -40 114 -61Q114 -95 141 -109Q168 -123 234 -123Q305 -123 339.5 -107Q374 -91 374 -58Q374 -33 358.5 -21Q343 -9 309 -9ZM183 611Q169 611 158.5 603.5Q148 596 139 580L95 614Q111 648 132 664Q153 680 180 680Q191 680 203 677.5Q215 675 237 667Q258 660 268.5 657.5Q279 655 288 655Q302 655 314.5 663Q327 671 339 687L381 652Q367 620 343.5 602Q320 584 293 584Q280 584 265 587.5Q250 591 222 601Q204 607 196 609Q188 611 183 611Z" glyph-name="gtilde" horiz-adv-x="501" /><glyph d="M239 66H153L51 221V267L153 421H239V408L134 246V242L239 80ZM409 66H323L221 221V267L323 421H409V408L304 246V242L409 80Z" glyph-name="guillemotleft" horiz-adv-x="443" unicode="&#171;" /><glyph d="M119 66H33V80L138 242V246L33 408V421H119L221 267V221ZM300 66H214V80L319 242V246L214 408V421H300L402 267V221Z" glyph-name="guillemotright" horiz-adv-x="453" unicode="&#187;" /><glyph d="M239 66H153L51 221V267L153 421H239V408L134 246V242L239 80Z" glyph-name="guilsinglleft" horiz-adv-x="278" unicode="&#8249;" /><glyph d="M125 66H39V80L144 242V246L39 408V421H125L227 267V221Z" glyph-name="guilsinglright" horiz-adv-x="278" unicode="&#8250;" /><glyph d="M181 0H80V701L181 704V417Q205 459 237.5 478.5Q270 498 317 498Q397 498 435 455.5Q473 413 473 322V0H371V308Q371 369 351 393Q331 417 283 417Q249 417 223 395.5Q197 374 181 333Z" glyph-name="h" horiz-adv-x="548" unicode="h" /><glyph d="M181 0H80V570H18V625H80V701L181 704V625H267V570H181V417Q205 459 237.5 478.5Q270 498 317 498Q397 498 435 455.5Q473 413 473 322V0H371V308Q371 369 351 393Q331 417 283 417Q249 417 223 395.5Q197 374 181 333Z" glyph-name="hbar" horiz-adv-x="548" unicode="&#295;" /><glyph d="M186 0H85V701L186 704V417Q210 459 242.5 478.5Q275 498 322 498Q402 498 440 455.5Q478 413 478 322V0H376V308Q376 369 356 393Q336 417 288 417Q254 417 228 395.5Q202 374 186 333ZM149 751H112L-3 835V898H11L131 818L251 898H265V835Z" glyph-name="hcaron" horiz-adv-x="548" /><glyph d="M185 0H84V701L185 704V417Q209 459 241.5 478.5Q274 498 321 498Q401 498 439 455.5Q477 413 477 322V0H375V308Q375 369 355 393Q335 417 287 417Q253 417 227 395.5Q201 374 185 333ZM10 723H-4V787L111 871H148L264 787V723H250L130 803Z" glyph-name="hcircumflex" horiz-adv-x="548" unicode="&#293;" /><glyph d="M181 0H80V701L181 704V417Q205 459 237.5 478.5Q270 498 317 498Q397 498 435 455.5Q473 413 473 322V0H371V308Q371 369 351 393Q331 417 283 417Q249 417 223 395.5Q197 374 181 333ZM276 -181Q249 -181 235 -167Q221 -153 221 -125Q221 -97 235 -83Q249 -69 276 -69Q304 -69 318.5 -83Q333 -97 333 -125Q333 -153 318.5 -167Q304 -181 276 -181Z" glyph-name="hdotbelow" horiz-adv-x="548" unicode="&#7717;" /><glyph d="M181 0H80V701L181 704V417Q205 459 237.5 478.5Q270 498 317 498Q397 498 435 455.5Q473 413 473 322V0H371V308Q371 369 351 393Q331 417 283 417Q249 417 223 395.5Q197 374 181 333ZM402 -165H150V-93H402Z" glyph-name="hmacronbelow" horiz-adv-x="548" /><glyph d="M257 558H204V570L298 697H376V685ZM119 558H66V570L160 697H238V685Z" glyph-name="hungarumlaut" horiz-adv-x="447" unicode="&#733;" /><glyph d="M274 706H205V718L338 846H442V834ZM123 706H54V718L188 846H291V834Z" glyph-name="hungarumlaut.cap" horiz-adv-x="455" /><glyph d="M258 228H53V302H258Z" glyph-name="hyphen" horiz-adv-x="311" unicode="-" /><glyph d="M132 694Q162 694 176.5 679.5Q191 665 191 636Q191 606 176.5 591.5Q162 577 132 577Q101 577 87 591.5Q73 606 73 636Q73 666 87 680Q101 694 132 694ZM182 0H81V488H182Z" glyph-name="i" horiz-adv-x="263" unicode="i" /><glyph d="M180 0H81V488H180ZM55 560H41V618L236 720H249V633Z" glyph-name="iacute" horiz-adv-x="261" unicode="&#237;" /><glyph d="M180 0H81V488H180ZM262 686V663Q262 606 229.5 579Q197 552 130 552Q65 552 32 580Q-1 608 -1 663V686H60Q61 645 77 628Q93 611 130 611Q167 611 183 627.5Q199 644 201 686Z" glyph-name="ibreve" horiz-adv-x="261" unicode="&#301;" /><glyph d="M180 0H81V488H180ZM148 561H111L-4 645V708H10L130 628L250 708H264V645Z" glyph-name="icaron" horiz-adv-x="261" unicode="&#464;" /><glyph d="M180 0H81V488H180ZM10 557H-4V621L111 705H148L264 621V557H250L130 637Z" glyph-name="icircumflex" horiz-adv-x="261" unicode="&#238;" /><glyph d="M180 0H81V488H180ZM210 685Q235 685 248.5 671Q262 657 262 631Q262 605 248.5 591.5Q235 578 210 578Q186 578 173 591.5Q160 605 160 631Q160 658 173 671.5Q186 685 210 685ZM48 685Q74 685 87.5 671Q101 657 101 631Q101 605 87 591.5Q73 578 48 578Q24 578 11.5 591.5Q-1 605 -1 631Q-1 657 11.5 671Q24 685 48 685Z" glyph-name="idieresis" horiz-adv-x="261" unicode="&#239;" /><glyph d="M180 0H81V488H180ZM186 631Q186 603 172 589Q158 575 130 575Q103 575 89 589Q75 603 75 631Q75 659 89 673Q103 687 130 687Q158 687 172 673Q186 659 186 631Z" glyph-name="idotaccent" horiz-adv-x="261" /><glyph d="M132 694Q162 694 176.5 679.5Q191 665 191 636Q191 606 176.5 591.5Q162 577 132 577Q101 577 87 591.5Q73 606 73 636Q73 666 87 680Q101 694 132 694ZM182 0H81V488H182ZM130 -181Q103 -181 89 -167Q75 -153 75 -125Q75 -97 89 -83Q103 -69 130 -69Q158 -69 172.5 -83Q187 -97 187 -125Q187 -153 172.5 -167Q158 -181 130 -181Z" glyph-name="idotbelow" horiz-adv-x="263" unicode="&#7883;" /><glyph d="M180 0H81V488H180ZM232 558H179L60 685V697H138L232 570ZM94 558H41L-78 685V697H0L94 570Z" glyph-name="idoublegrave" horiz-adv-x="261" /><glyph d="M180 0H81V488H180ZM218 560H205L10 633V720H24L218 618Z" glyph-name="igrave" horiz-adv-x="261" unicode="&#236;" /><glyph d="M180 0H81V488H180ZM60 563H-1V586Q-1 641 32 669Q65 697 130 697Q197 697 229.5 670Q262 643 262 586V563H201Q199 605 183.5 621.5Q168 638 130 638Q93 638 77 621.5Q61 605 60 563Z" glyph-name="iinvertedbreve" horiz-adv-x="261" unicode="&#523;" /><glyph d="M450 636Q450 606 435.5 591.5Q421 577 390 577Q360 577 345.5 591.5Q331 606 331 636Q331 665 345.5 679.5Q360 694 390 694Q421 694 435.5 680Q450 666 450 636ZM198 -175 215 -102Q230 -106 245 -108.5Q260 -111 273 -111Q311 -111 328.5 -93.5Q346 -76 346 -39Q346 -37 345.5 -29Q345 -21 344 -9Q343 2 342.5 13.5Q342 25 341 33V488H443V-32Q443 -111 403 -150.5Q363 -190 282 -190Q257 -190 235.5 -186Q214 -182 198 -175ZM132 694Q162 694 176.5 679.5Q191 665 191 636Q191 606 176.5 591.5Q162 577 132 577Q101 577 87 591.5Q73 606 73 636Q73 666 87 680Q101 694 132 694ZM182 0H81V488H182Z" glyph-name="ij" horiz-adv-x="523" unicode="&#307;" /><glyph d="M180 0H81V488H180ZM256 589H4V661H256Z" glyph-name="imacron" horiz-adv-x="261" unicode="&#299;" /><glyph d="M587 102Q537 102 494.5 125.5Q452 149 408 201Q364 149 321 125Q278 101 229 101Q150 101 102 150Q54 199 54 276Q54 353 102 402Q150 451 229 451Q278 451 321 427Q364 403 408 351Q453 404 495.5 427.5Q538 451 587 451Q666 451 714 402.5Q762 354 762 276Q762 198 714 150Q666 102 587 102ZM231 353Q196 353 174 331Q152 309 152 273Q152 238 174 216.5Q196 195 231 195Q255 195 278 210.5Q301 226 340 273Q301 322 278 337.5Q255 353 231 353ZM664 273Q664 308 642 330Q620 352 586 352Q562 352 539.5 337Q517 322 476 273Q518 224 540 209.5Q562 195 586 195Q620 195 642 216.5Q664 238 664 273Z" glyph-name="infinity" horiz-adv-x="816" unicode="&#8734;" /><glyph d="M89 -193Q68 -193 47 -189.5Q26 -186 11 -180L33 -106Q51 -111 63.5 -113Q76 -115 83 -115Q122 -115 138.5 -91.5Q155 -68 155 -10V30L191 557Q196 633 236.5 671Q277 709 354 709Q376 709 396 705.5Q416 702 431 695L409 622Q389 627 379.5 628.5Q370 630 359 630Q320 630 303.5 607Q287 584 287 526V485L251 -42Q247 -118 206.5 -155.5Q166 -193 89 -193Z" glyph-name="integral" horiz-adv-x="436" unicode="&#8747;" /><glyph d="M111 563H50V586Q50 641 83 669Q116 697 181 697Q248 697 280.5 670Q313 643 313 586V563H252Q250 605 234.5 621.5Q219 638 181 638Q144 638 128 621.5Q112 605 111 563Z" glyph-name="invertedbreve" horiz-adv-x="366" /><glyph d="M114 703H54V739Q54 791 88 818Q122 845 188 845Q254 845 288 818Q322 791 322 739V703H264Q261 746 243.5 763Q226 780 188 780Q150 780 133 763Q116 746 114 703Z" glyph-name="invertedbreve.cap" horiz-adv-x="376" /><glyph d="M132 694Q162 694 176.5 679.5Q191 665 191 636Q191 606 176.5 591.5Q162 577 132 577Q101 577 87 591.5Q73 606 73 636Q73 666 87 680Q101 694 132 694ZM33 -93Q33 -60 45 -34.5Q57 -9 81 10V488H182V0H169Q138 -18 125 -36.5Q112 -55 112 -80Q112 -103 124 -116Q136 -129 157 -129Q173 -129 187.5 -123Q202 -117 218 -104L247 -148Q222 -173 196.5 -183Q171 -193 134 -193Q87 -193 60 -166Q33 -139 33 -93Z" glyph-name="iogonek" horiz-adv-x="263" unicode="&#303;" /><glyph d="M180 0H81V488H180ZM67 611Q53 611 42.5 603.5Q32 596 23 580L-21 614Q-5 648 16 664Q37 680 64 680Q75 680 87 677.5Q99 675 121 667Q142 660 152.5 657.5Q163 655 172 655Q186 655 198.5 663Q211 671 223 687L265 652Q251 620 227.5 602Q204 584 177 584Q164 584 149 587.5Q134 591 106 601Q88 607 80 609Q72 611 67 611Z" glyph-name="itilde" horiz-adv-x="261" unicode="&#297;" /><glyph d="M191 636Q191 606 176.5 591.5Q162 577 131 577Q101 577 86.5 591.5Q72 606 72 636Q72 665 86.5 679.5Q101 694 131 694Q162 694 176.5 680Q191 666 191 636ZM-61 -175 -44 -102Q-29 -106 -14 -108.5Q1 -111 14 -111Q52 -111 69.5 -93.5Q87 -76 87 -39Q87 -37 86.5 -29Q86 -21 85 -9Q84 2 83.5 13.5Q83 25 82 33V488H184V-32Q184 -111 144 -150.5Q104 -190 23 -190Q-2 -190 -23.5 -186Q-45 -182 -61 -175Z" glyph-name="j" horiz-adv-x="264" unicode="j" /><glyph d="M87 -39Q87 -34 87 -29.5Q87 -25 86 -19L82 33V488H184V-32Q184 -111 144 -150.5Q104 -190 23 -190Q-2 -190 -23.5 -186Q-45 -182 -61 -175L-45 -102Q-30 -106 -14.5 -108.5Q1 -111 14 -111Q52 -111 69.5 -93.5Q87 -76 87 -39ZM151 561H114L-1 645V708H13L133 628L253 708H267V645Z" glyph-name="jcaron" horiz-adv-x="264" unicode="&#496;" /><glyph d="M87 -39Q87 -34 87 -29.5Q87 -25 86 -19L82 33V488H184V-32Q184 -111 144 -150.5Q104 -190 23 -190Q-2 -190 -23.5 -186Q-45 -182 -61 -175L-45 -102Q-30 -106 -14.5 -108.5Q1 -111 14 -111Q52 -111 69.5 -93.5Q87 -76 87 -39ZM7 557H-7V621L108 705H145L261 621V557H247L127 637Z" glyph-name="jcircumflex" horiz-adv-x="264" unicode="&#309;" /><glyph d="M181 0H80V701L181 704V295L239 320L367 488H472V477L319 276L490 11V0H377L235 227L181 208Z" glyph-name="k" horiz-adv-x="506" unicode="k" /><glyph d="M185 0H84V701L185 704V295L243 320L371 488H476V477L323 276L494 11V0H381L239 227L185 208ZM153 755H116L1 839V902H15L135 822L255 902H269V839Z" glyph-name="kcaron" horiz-adv-x="506" unicode="&#489;" /><glyph d="M103 0H80V701L181 704V295L239 320L367 488H472V477L319 276L490 11V0H377L235 227L181 208V0H165L152 -46Q188 -52 207 -72Q226 -92 226 -125Q226 -166 198 -191.5Q170 -217 123 -217Q95 -217 71.5 -206.5Q48 -196 28 -174L53 -136Q73 -151 86 -156Q99 -161 111 -161Q133 -161 144 -152Q155 -143 155 -125Q155 -104 137 -93Q119 -82 82 -81Z" glyph-name="kcedilla" horiz-adv-x="506" unicode="&#57614;" /><glyph d="M262 -134H255Q234 -134 224.5 -124Q215 -114 215 -94Q215 -75 227 -64Q239 -53 259 -53Q288 -53 301.5 -70.5Q315 -88 315 -125Q315 -163 289.5 -188.5Q264 -214 216 -224L203 -191Q238 -180 250 -169Q262 -158 262 -142ZM181 0H80V701L181 704V295L239 320L367 488H472V477L319 276L490 11V0H377L235 227L181 208Z" glyph-name="kcommaaccent" horiz-adv-x="506" unicode="&#311;" /><glyph d="M181 0H80V701L181 704V292L242 318L310 436Q329 470 350 484.5Q371 499 399 499Q430 499 457 492.5Q484 486 503 474L476 396Q463 403 449.5 406.5Q436 410 419 410Q405 410 394 400.5Q383 391 367 361L321 278L498 11V0H383L235 227L181 208Z" glyph-name="kgreenlandic" horiz-adv-x="510" unicode="&#312;" /><glyph d="M181 0H80V555Q80 629 122 668.5Q164 708 242 708Q266 708 288 704.5Q310 701 326 694L309 621Q295 625 278.5 627.5Q262 630 248 630Q210 630 194 612.5Q178 595 178 552Q178 546 179 521.5Q180 497 181 484V295L238 319L367 488H472V477L319 277L490 11V0H376L234 227L181 208Z" glyph-name="khook" horiz-adv-x="506" unicode="&#409;" /><glyph d="M181 0H80V701L181 704Z" glyph-name="l" horiz-adv-x="261" unicode="l" /><glyph d="M186 0H85V701L186 704ZM57 749H43V807L238 909H251V822Z" glyph-name="lacute" horiz-adv-x="261" unicode="&#314;" /><glyph d="M261 516H213V527L256 701H332V690ZM181 0H80V701L181 704Z" glyph-name="lcaron" horiz-adv-x="286" unicode="&#318;" /><glyph d="M96 0H80V701L181 704V0H158L145 -46Q181 -52 200 -72Q219 -92 219 -125Q219 -166 191 -191.5Q163 -217 116 -217Q88 -217 64.5 -206.5Q41 -196 21 -174L46 -136Q66 -151 79 -156Q92 -161 104 -161Q126 -161 137 -152Q148 -143 148 -125Q148 -104 130 -93Q112 -82 75 -81Z" glyph-name="lcedilla" horiz-adv-x="261" unicode="&#57600;" /><glyph d="M124 -134H117Q96 -134 86.5 -124Q77 -114 77 -94Q77 -75 89 -64Q101 -53 121 -53Q150 -53 163.5 -70.5Q177 -88 177 -125Q177 -163 151.5 -188.5Q126 -214 78 -224L65 -191Q100 -180 112 -169Q124 -158 124 -142ZM183 0H82V701L183 704Z" glyph-name="lcommaaccent" horiz-adv-x="261" unicode="&#316;" /><glyph d="M181 0H80V701L181 704ZM496 0H395V701L496 704ZM344 351Q344 323 330 309Q316 295 288 295Q261 295 247 309Q233 323 233 351Q233 379 247 393Q261 407 288 407Q316 407 330 393Q344 379 344 351Z" glyph-name="ldot" horiz-adv-x="578" unicode="&#320;" /><glyph d="M129 -181Q102 -181 88 -167Q74 -153 74 -125Q74 -97 88 -83Q102 -69 129 -69Q157 -69 171.5 -83Q186 -97 186 -125Q186 -153 171.5 -167Q157 -181 129 -181ZM184 0H83V701L184 704Z" glyph-name="ldotbelow" horiz-adv-x="261" unicode="&#7735;" /><glyph d="M129 -181Q102 -181 88 -167Q74 -153 74 -125Q74 -97 88 -83Q102 -69 129 -69Q157 -69 171.5 -83Q186 -97 186 -125Q186 -153 171.5 -167Q157 -181 129 -181ZM182 0H81V701L182 704ZM256 751H4V823H256Z" glyph-name="ldotbelowmacron" horiz-adv-x="261" unicode="&#7737;" /><glyph d="M494 37 49 283V363L494 609H506V511L168 329V324L506 142V37Z" glyph-name="less" horiz-adv-x="546" unicode="&lt;" /><glyph d="M517 192H27V296L505 618H517V516L146 280V275H517ZM518 0H26V82H518Z" glyph-name="lessequal" horiz-adv-x="546" unicode="&#8804;" /><glyph d="M514 257H60V345H616V0H514Z" glyph-name="logicalnot" horiz-adv-x="682" unicode="&#172;" /><glyph d="M563 0H53V74H563Z" glyph-name="lowline" horiz-adv-x="616" /><glyph d="M318 -8H230L59 299V346L228 654H316L486 346V299ZM156 324 274 96 390 322 272 550Z" glyph-name="lozenge" horiz-adv-x="546" unicode="&#9674;" /><glyph d="M181 0H80V282L23 242H12V315L80 364V701L181 704V438L249 488H260V411L181 354Z" glyph-name="lslash" horiz-adv-x="261" unicode="&#322;" /><glyph d="M181 0H80V491H172L176 413Q200 456 234.5 477Q269 498 315 498Q375 498 410 474.5Q445 451 460 402Q484 450 520 474Q556 498 604 498Q684 498 722 455Q760 412 760 322V0H658V302Q658 367 638.5 392Q619 417 571 417Q538 417 511.5 394Q485 371 471 332V0H369V303Q369 369 349.5 393Q330 417 280 417Q249 417 222 394Q195 371 181 333Z" glyph-name="m" horiz-adv-x="834" unicode="m" /><glyph d="M323 589H71V661H323Z" glyph-name="macron" horiz-adv-x="394" unicode="&#175;" /><glyph d="M353 720H54V794H353Z" glyph-name="macron.cap" horiz-adv-x="407" /><glyph d="M181 0H80V491H172L176 413Q200 456 234.5 477Q269 498 315 498Q375 498 410 474.5Q445 451 460 402Q484 450 520 474Q556 498 604 498Q684 498 722 455Q760 412 760 322V0H658V302Q658 367 638.5 392Q619 417 571 417Q538 417 511.5 394Q485 371 471 332V0H450L437 -46Q473 -52 492 -72Q511 -92 511 -125Q511 -166 483 -191.5Q455 -217 408 -217Q380 -217 356.5 -206.5Q333 -196 313 -174L338 -136Q358 -151 371 -156Q384 -161 396 -161Q418 -161 429 -152Q440 -143 440 -125Q440 -104 422 -93Q404 -82 367 -81L388 0H369V303Q369 369 349.5 393Q330 417 280 417Q249 417 222 394Q195 371 181 333Z" glyph-name="mcedilla" horiz-adv-x="834" /><glyph d="M181 0H80V491H172L176 413Q200 456 234.5 477Q269 498 315 498Q375 498 410 474.5Q445 451 460 402Q484 450 520 474Q556 498 604 498Q684 498 722 455Q760 412 760 322V0H658V302Q658 367 638.5 392Q619 417 571 417Q538 417 511.5 394Q485 371 471 332V0H369V303Q369 369 349.5 393Q330 417 280 417Q249 417 222 394Q195 371 181 333ZM418 -181Q391 -181 377 -167Q363 -153 363 -125Q363 -97 377 -83Q391 -69 418 -69Q446 -69 460.5 -83Q475 -97 475 -125Q475 -153 460.5 -167Q446 -181 418 -181Z" glyph-name="mdotbelow" horiz-adv-x="834" unicode="&#7747;" /><glyph d="M484 221H62V308H484Z" glyph-name="minus" horiz-adv-x="546" unicode="&#8722;" /><glyph d="M181 0H80V491H172L176 413Q200 456 234.5 477Q269 498 315 498Q375 498 410 474.5Q445 451 460 402Q484 450 520 474Q556 498 604 498Q684 498 722 455Q760 412 760 322V0H658V302Q658 367 638.5 392Q619 417 571 417Q538 417 511.5 394Q485 371 471 332V0H369V303Q369 369 349.5 393Q330 417 280 417Q249 417 222 394Q195 371 181 333ZM545 589H293V661H545Z" glyph-name="mmacron" horiz-adv-x="834" /><glyph d="M9 -111Q48 -111 65 -92.5Q82 -74 82 -27L78 110L79 488H180V180Q180 119 198 94.5Q216 70 262 70Q294 70 320 92Q346 114 363 154V488H465V-6H372L367 75Q341 30 308.5 10Q276 -10 229 -10Q217 -10 204 -8.5Q191 -7 179 -5V-31Q179 -111 139 -150Q99 -189 18 -189Q-6 -189 -27.5 -185.5Q-49 -182 -65 -175L-50 -102Q-30 -107 -16.5 -109Q-3 -111 9 -111Z" glyph-name="mu" horiz-adv-x="549" unicode="&#181;" /><glyph d="M98 -2 36 57 213 245 36 433 100 492 273 308 445 491 507 435 331 247 510 58 446 -2 271 183Z" glyph-name="multiply" horiz-adv-x="546" unicode="&#215;" /><glyph d="M181 0H80V491H172L176 413Q199 455 233.5 476.5Q268 498 314 498Q394 498 432.5 455Q471 412 471 323V0H369V299Q369 368 349.5 392.5Q330 417 281 417Q249 417 222 394Q195 371 181 333Z" glyph-name="n" horiz-adv-x="545" unicode="n" /><glyph d="M181 0H80V491H172L176 413Q199 455 233.5 476.5Q268 498 314 498Q394 498 432.5 455Q471 412 471 323V0H369V299Q369 368 349.5 392.5Q330 417 281 417Q249 417 222 394Q195 371 181 333ZM202 560H188V618L383 720H396V633Z" glyph-name="nacute" horiz-adv-x="545" unicode="&#324;" /><glyph d="M102 642Q102 594 73 564Q44 534 -8 525L-22 562Q22 580 32.5 592Q43 604 43 621V630H36Q14 630 2.5 641.5Q-9 653 -9 676Q-9 699 4 711.5Q17 724 40 724Q73 724 87.5 704Q102 684 102 642ZM181 0H80V491H172L176 413Q199 455 233.5 476.5Q268 498 314 498Q394 498 432.5 455Q471 412 471 323V0H369V299Q369 368 349.5 392.5Q330 417 281 417Q249 417 222 394Q195 371 181 333Z" glyph-name="napostrophe" horiz-adv-x="545" unicode="&#329;" /><glyph d="M181 0H80V491H172L176 413Q199 455 233.5 476.5Q268 498 314 498Q394 498 432.5 455Q471 412 471 323V0H369V299Q369 368 349.5 392.5Q330 417 281 417Q249 417 222 394Q195 371 181 333ZM291 561H254L139 645V708H153L273 628L393 708H407V645Z" glyph-name="ncaron" horiz-adv-x="545" unicode="&#328;" /><glyph d="M181 0H80V491H172L176 413Q199 455 233.5 476.5Q268 498 314 498Q394 498 432.5 455Q471 412 471 323V0H369V299Q369 368 349.5 392.5Q330 417 281 417Q249 417 222 394Q195 371 181 333ZM289 -135Q289 -114 272 -104Q255 -94 215 -93L227 -45Q231 -45 236 -44.5Q241 -44 246 -44Q300 -44 330 -68Q360 -92 360 -135Q360 -177 332 -202Q304 -227 257 -227Q229 -227 204.5 -216Q180 -205 162 -184L187 -146Q204 -160 217.5 -165.5Q231 -171 245 -171Q267 -171 278 -162Q289 -153 289 -135Z" glyph-name="ncedilla" horiz-adv-x="545" unicode="&#57626;" /><glyph d="M268 -134H261Q240 -134 230.5 -124Q221 -114 221 -94Q221 -75 233 -64Q245 -53 265 -53Q294 -53 307.5 -70.5Q321 -88 321 -125Q321 -163 295.5 -188.5Q270 -214 222 -224L209 -191Q244 -180 256 -169Q268 -158 268 -142ZM181 0H80V491H172L176 413Q199 455 233.5 476.5Q268 498 314 498Q394 498 432.5 455Q471 412 471 323V0H369V299Q369 368 349.5 392.5Q330 417 281 417Q249 417 222 394Q195 371 181 333Z" glyph-name="ncommaaccent" horiz-adv-x="545" unicode="&#326;" /><glyph d="M181 0H80V488H176L179 411Q205 455 239 476.5Q273 498 315 498Q395 498 433 455.5Q471 413 471 323V-99H369V299Q369 372 351 395.5Q333 419 286 419Q254 419 226 398.5Q198 378 181 344Z" glyph-name="ndescender" horiz-adv-x="545" /><glyph d="M181 0H80V491H172L176 413Q199 455 233.5 476.5Q268 498 314 498Q394 498 432.5 455Q471 412 471 323V0H369V299Q369 368 349.5 392.5Q330 417 281 417Q249 417 222 394Q195 371 181 333ZM352 685Q377 685 390.5 671Q404 657 404 631Q404 605 390.5 591.5Q377 578 352 578Q328 578 315 591.5Q302 605 302 631Q302 658 315 671.5Q328 685 352 685ZM190 685Q216 685 229.5 671Q243 657 243 631Q243 605 229 591.5Q215 578 190 578Q166 578 153.5 591.5Q141 605 141 631Q141 657 153.5 671Q166 685 190 685Z" glyph-name="ndieresis" horiz-adv-x="545" /><glyph d="M181 0H80V491H172L176 413Q199 455 233.5 476.5Q268 498 314 498Q394 498 432.5 455Q471 412 471 323V0H369V299Q369 368 349.5 392.5Q330 417 281 417Q249 417 222 394Q195 371 181 333ZM337 631Q337 603 323 589Q309 575 281 575Q254 575 240 589Q226 603 226 631Q226 659 240 673Q254 687 281 687Q309 687 323 673Q337 659 337 631Z" glyph-name="ndotaccent" horiz-adv-x="545" unicode="&#7749;" /><glyph d="M181 0H80V491H172L176 413Q199 455 233.5 476.5Q268 498 314 498Q394 498 432.5 455Q471 412 471 323V0H369V299Q369 368 349.5 392.5Q330 417 281 417Q249 417 222 394Q195 371 181 333ZM273 -181Q246 -181 232 -167Q218 -153 218 -125Q218 -97 232 -83Q246 -69 273 -69Q301 -69 315.5 -83Q330 -97 330 -125Q330 -153 315.5 -167Q301 -181 273 -181Z" glyph-name="ndotbelow" horiz-adv-x="545" unicode="&#7751;" /><glyph d="M181 0H80V491H172L176 413Q199 455 233.5 476.5Q268 498 314 498Q394 498 432.5 455Q471 412 471 323V0H369V299Q369 368 349.5 392.5Q330 417 281 417Q249 417 222 394Q195 371 181 333ZM356 560H343L148 633V720H162L356 618Z" glyph-name="ngrave" horiz-adv-x="545" /><glyph d="M108 93Q116 90 128 88Q140 86 153.5 84Q167 82 180.5 81Q194 80 205 80Q250 80 281 91Q312 102 331.5 127Q351 152 360 192.5Q369 233 369 291Q348 271 313 256Q278 241 239 241Q197 241 162.5 251Q128 261 102.5 284Q77 307 63 344.5Q49 382 49 438Q49 542 104 599Q159 656 253 656Q362 656 419 577Q476 498 476 329Q476 251 461 188Q446 125 414 81Q382 37 332.5 13.5Q283 -10 214 -10Q179 -10 145 -4.5Q111 1 88 10ZM261 329Q300 329 325 342.5Q350 356 369 370Q369 470 343.5 518.5Q318 567 253 567Q203 567 177 539Q151 511 151 445Q151 384 175 356.5Q199 329 261 329Z" glyph-name="nine" horiz-adv-x="535" unicode="9" /><glyph d="M181 0H80V491H172L176 413Q199 455 233.5 476.5Q268 498 314 498Q394 498 432.5 455Q471 412 471 323V0H369V299Q369 368 349.5 392.5Q330 417 281 417Q249 417 222 394Q195 371 181 333ZM402 589H150V661H402Z" glyph-name="nmacron" horiz-adv-x="545" /><glyph glyph-name="nonmarkingreturn" horiz-adv-x="215" unicode="" /><glyph d="M135 0H67V12L159 174H50V261H208L268 365H50V452H317L428 646H496V633L393 452H496V365H343L284 261H496V174H234Z" glyph-name="notequal" horiz-adv-x="546" unicode="&#8800;" /><glyph d="M181 0H80V491H172L176 413Q199 455 233.5 476.5Q268 498 314 498Q394 498 432.5 455Q471 412 471 323V0H369V299Q369 368 349.5 392.5Q330 417 281 417Q249 417 222 394Q195 371 181 333ZM221 611Q207 611 196.5 603.5Q186 596 177 580L133 614Q149 648 170 664Q191 680 218 680Q229 680 241 677.5Q253 675 275 667Q296 660 306.5 657.5Q317 655 326 655Q340 655 352.5 663Q365 671 377 687L419 652Q405 620 381.5 602Q358 584 331 584Q318 584 303 587.5Q288 591 260 601Q242 607 234 609Q226 611 221 611Z" glyph-name="ntilde" horiz-adv-x="545" unicode="&#241;" /><glyph d="M231 0H149V165H67V240H149V414H67V486H149V646H231V486H352V646H434V486H517V414H434V240H517V165H434V0H352V165H231ZM231 414V240H352V414Z" glyph-name="numbersign" horiz-adv-x="594" unicode="#" /><glyph d="M469 244Q469 122 412 56Q355 -10 255 -10Q149 -10 95.5 53.5Q42 117 42 244Q42 366 98.5 432Q155 498 255 498Q362 498 415.5 434.5Q469 371 469 244ZM255 417Q194 417 169 377Q144 337 144 244Q144 151 169 111Q194 71 255 71Q316 71 341 111Q366 151 366 244Q366 337 341 377Q316 417 255 417Z" glyph-name="o" horiz-adv-x="511" unicode="o" /><glyph d="M469 244Q469 122 412 56Q355 -10 255 -10Q149 -10 95.5 53.5Q42 117 42 244Q42 366 98.5 432Q155 498 255 498Q362 498 415.5 434.5Q469 371 469 244ZM255 417Q194 417 169 377Q144 337 144 244Q144 151 169 111Q194 71 255 71Q316 71 341 111Q366 151 366 244Q366 337 341 377Q316 417 255 417ZM169 560H155V618L350 720H363V633Z" glyph-name="oacute" horiz-adv-x="511" unicode="&#243;" /><glyph d="M469 244Q469 122 412 56Q355 -10 255 -10Q149 -10 95.5 53.5Q42 117 42 244Q42 366 98.5 432Q155 498 255 498Q362 498 415.5 434.5Q469 371 469 244ZM255 417Q194 417 169 377Q144 337 144 244Q144 151 169 111Q194 71 255 71Q316 71 341 111Q366 151 366 244Q366 337 341 377Q316 417 255 417ZM387 686V663Q387 606 354.5 579Q322 552 255 552Q190 552 157 580Q124 608 124 663V686H185Q186 645 202 628Q218 611 255 611Q292 611 308 627.5Q324 644 326 686Z" glyph-name="obreve" horiz-adv-x="511" unicode="&#335;" /><glyph d="M469 244Q469 122 412 56Q355 -10 255 -10Q149 -10 95.5 53.5Q42 117 42 244Q42 366 98.5 432Q155 498 255 498Q362 498 415.5 434.5Q469 371 469 244ZM255 417Q194 417 169 377Q144 337 144 244Q144 151 169 111Q194 71 255 71Q316 71 341 111Q366 151 366 244Q366 337 341 377Q316 417 255 417ZM273 561H236L121 645V708H135L255 628L375 708H389V645Z" glyph-name="ocaron" horiz-adv-x="511" unicode="&#466;" /><glyph d="M269 -125Q269 -104 251 -93Q233 -82 196 -81L215 -7Q129 4 85.5 66.5Q42 129 42 244Q42 366 98.5 432Q155 498 255 498Q362 498 415.5 434.5Q469 371 469 244Q469 129 418.5 63.5Q368 -2 277 -9L266 -46Q302 -52 321 -72Q340 -92 340 -125Q340 -166 312 -191.5Q284 -217 237 -217Q209 -217 185.5 -206.5Q162 -196 142 -174L167 -136Q187 -151 200 -156Q213 -161 225 -161Q247 -161 258 -152Q269 -143 269 -125ZM366 244Q366 337 341 377Q316 417 255 417Q194 417 169 377Q144 337 144 244Q144 151 169 111Q194 71 255 71Q316 71 341 111Q366 151 366 244Z" glyph-name="ocedilla" horiz-adv-x="511" /><glyph d="M469 244Q469 122 412 56Q355 -10 255 -10Q149 -10 95.5 53.5Q42 117 42 244Q42 366 98.5 432Q155 498 255 498Q362 498 415.5 434.5Q469 371 469 244ZM255 417Q194 417 169 377Q144 337 144 244Q144 151 169 111Q194 71 255 71Q316 71 341 111Q366 151 366 244Q366 337 341 377Q316 417 255 417ZM135 557H121V621L236 705H273L389 621V557H375L255 637Z" glyph-name="ocircumflex" horiz-adv-x="511" unicode="&#244;" /><glyph d="M469 244Q469 122 412 56Q355 -10 255 -10Q149 -10 95.5 53.5Q42 117 42 244Q42 366 98.5 432Q155 498 255 498Q362 498 415.5 434.5Q469 371 469 244ZM255 417Q194 417 169 377Q144 337 144 244Q144 151 169 111Q194 71 255 71Q316 71 341 111Q366 151 366 244Q366 337 341 377Q316 417 255 417Z" glyph-name="ocommaturnedabove" horiz-adv-x="511" /><glyph d="M469 244Q469 122 412 56Q355 -10 255 -10Q149 -10 95.5 53.5Q42 117 42 244Q42 366 98.5 432Q155 498 255 498Q362 498 415.5 434.5Q469 371 469 244ZM255 417Q194 417 169 377Q144 337 144 244Q144 151 169 111Q194 71 255 71Q316 71 341 111Q366 151 366 244Q366 337 341 377Q316 417 255 417ZM335 685Q360 685 373.5 671Q387 657 387 631Q387 605 373.5 591.5Q360 578 335 578Q311 578 298 591.5Q285 605 285 631Q285 658 298 671.5Q311 685 335 685ZM173 685Q199 685 212.5 671Q226 657 226 631Q226 605 212 591.5Q198 578 173 578Q149 578 136.5 591.5Q124 605 124 631Q124 657 136.5 671Q149 685 173 685Z" glyph-name="odieresis" horiz-adv-x="511" unicode="&#246;" /><glyph d="M469 244Q469 122 412 56Q355 -10 255 -10Q149 -10 95.5 53.5Q42 117 42 244Q42 366 98.5 432Q155 498 255 498Q362 498 415.5 434.5Q469 371 469 244ZM255 417Q194 417 169 377Q144 337 144 244Q144 151 169 111Q194 71 255 71Q316 71 341 111Q366 151 366 244Q366 337 341 377Q316 417 255 417ZM311 631Q311 603 297 589Q283 575 255 575Q228 575 214 589Q200 603 200 631Q200 659 214 673Q228 687 255 687Q283 687 297 673Q311 659 311 631Z" glyph-name="odotabove" horiz-adv-x="511" /><glyph d="M469 244Q469 122 412 56Q355 -10 255 -10Q149 -10 95.5 53.5Q42 117 42 244Q42 366 98.5 432Q155 498 255 498Q362 498 415.5 434.5Q469 371 469 244ZM255 417Q194 417 169 377Q144 337 144 244Q144 151 169 111Q194 71 255 71Q316 71 341 111Q366 151 366 244Q366 337 341 377Q316 417 255 417ZM381 732H129V804H381ZM311 631Q311 603 297 589Q283 575 255 575Q228 575 214 589Q200 603 200 631Q200 659 214 673Q228 687 255 687Q283 687 297 673Q311 659 311 631Z" glyph-name="odotabovemacron" horiz-adv-x="511" /><glyph d="M469 244Q469 122 412 56Q355 -10 255 -10Q149 -10 95.5 53.5Q42 117 42 244Q42 366 98.5 432Q155 498 255 498Q362 498 415.5 434.5Q469 371 469 244ZM255 417Q194 417 169 377Q144 337 144 244Q144 151 169 111Q194 71 255 71Q316 71 341 111Q366 151 366 244Q366 337 341 377Q316 417 255 417ZM254 -181Q227 -181 213 -167Q199 -153 199 -125Q199 -97 213 -83Q227 -69 254 -69Q282 -69 296.5 -83Q311 -97 311 -125Q311 -153 296.5 -167Q282 -181 254 -181Z" glyph-name="odotbelow" horiz-adv-x="511" unicode="&#7885;" /><glyph d="M469 244Q469 122 412 56Q355 -10 255 -10Q149 -10 95.5 53.5Q42 117 42 244Q42 366 98.5 432Q155 498 255 498Q362 498 415.5 434.5Q469 371 469 244ZM255 417Q194 417 169 377Q144 337 144 244Q144 151 169 111Q194 71 255 71Q316 71 341 111Q366 151 366 244Q366 337 341 377Q316 417 255 417ZM357 558H304L185 685V697H263L357 570ZM219 558H166L47 685V697H125L219 570Z" glyph-name="odoublegrave" horiz-adv-x="511" /><glyph d="M719 117 754 54Q718 21 675.5 5.5Q633 -10 580 -10Q524 -10 483 9.5Q442 29 416 68Q389 30 347.5 10Q306 -10 255 -10Q149 -10 95.5 53.5Q42 117 42 244Q42 366 98.5 432Q155 498 255 498Q308 498 352 476.5Q396 455 420 418Q448 458 488.5 478Q529 498 581 498Q657 498 700 455Q743 412 750 329Q751 322 751.5 312Q752 302 752 281Q752 278 751.5 274Q751 270 751 262Q751 246 750.5 238.5Q750 231 749 225H468Q468 139 496.5 105.5Q525 72 595 72Q627 72 656 82.5Q685 93 719 117ZM574 421Q525 421 499.5 390.5Q474 360 471 299H661V314Q661 371 640.5 396Q620 421 574 421ZM144 244Q144 151 169 111Q194 71 255 71Q316 71 341 111Q366 151 366 244Q366 337 341 377Q316 417 255 417Q194 417 169 377Q144 337 144 244Z" glyph-name="oe" horiz-adv-x="801" unicode="&#339;" /><glyph d="M192 -195Q145 -195 118 -168Q91 -141 91 -95Q91 -42 123 -6.5Q155 29 217 46L231 0Q197 -19 183.5 -38Q170 -57 170 -82Q170 -105 182 -118Q194 -131 215 -131Q231 -131 245.5 -125Q260 -119 276 -106L305 -150Q280 -175 254.5 -185Q229 -195 192 -195Z" glyph-name="ogonek" horiz-adv-x="386" unicode="&#731;" /><glyph d="M469 244Q469 122 412 56Q355 -10 255 -10Q149 -10 95.5 53.5Q42 117 42 244Q42 366 98.5 432Q155 498 255 498Q362 498 415.5 434.5Q469 371 469 244ZM255 417Q194 417 169 377Q144 337 144 244Q144 151 169 111Q194 71 255 71Q316 71 341 111Q366 151 366 244Q366 337 341 377Q316 417 255 417ZM353 560H340L145 633V720H159L353 618Z" glyph-name="ograve" horiz-adv-x="511" unicode="&#242;" /><glyph d="M333 0H75V90H205Q161 113 138 175.5Q115 238 115 332Q115 493 180.5 574.5Q246 656 374 656Q508 656 571.5 576.5Q635 497 635 332Q635 241 610.5 177.5Q586 114 541 90H673V0H415V90Q472 104 498 160Q524 216 524 323Q524 451 489.5 508.5Q455 566 374 566Q291 566 258 510.5Q225 455 225 323Q225 218 251.5 161Q278 104 333 90Z" glyph-name="ohm" horiz-adv-x="749" unicode="&#8486;" /><glyph d="M469 244Q469 122 412 56Q355 -10 255 -10Q149 -10 95.5 53.5Q42 117 42 244Q42 366 98.5 432Q155 498 255 498Q362 498 415.5 434.5Q469 371 469 244ZM255 417Q194 417 169 377Q144 337 144 244Q144 151 169 111Q194 71 255 71Q316 71 341 111Q366 151 366 244Q366 337 341 377Q316 417 255 417ZM345 558H292V570L386 697H464V685ZM207 558H154V570L248 697H326V685Z" glyph-name="ohungarumlaut" horiz-adv-x="511" unicode="&#337;" /><glyph d="M469 244Q469 122 412 56Q355 -10 255 -10Q149 -10 95.5 53.5Q42 117 42 244Q42 366 98.5 432Q155 498 255 498Q362 498 415.5 434.5Q469 371 469 244ZM255 417Q194 417 169 377Q144 337 144 244Q144 151 169 111Q194 71 255 71Q316 71 341 111Q366 151 366 244Q366 337 341 377Q316 417 255 417ZM185 563H124V586Q124 641 157 669Q190 697 255 697Q322 697 354.5 670Q387 643 387 586V563H326Q324 605 308.5 621.5Q293 638 255 638Q218 638 202 621.5Q186 605 185 563Z" glyph-name="oinvertedbreve" horiz-adv-x="511" unicode="&#527;" /><glyph d="M469 244Q469 122 412 56Q355 -10 255 -10Q149 -10 95.5 53.5Q42 117 42 244Q42 366 98.5 432Q155 498 255 498Q362 498 415.5 434.5Q469 371 469 244ZM255 417Q194 417 169 377Q144 337 144 244Q144 151 169 111Q194 71 255 71Q316 71 341 111Q366 151 366 244Q366 337 341 377Q316 417 255 417ZM381 589H129V661H381Z" glyph-name="omacron" horiz-adv-x="511" unicode="&#333;" /><glyph d="M66 90H194V522Q183 513 166.5 502.5Q150 492 132 482Q114 472 96.5 464Q79 456 66 452H59V541Q77 549 100 562.5Q123 576 145.5 591.5Q168 607 188.5 622.5Q209 638 221 650H300V90H423V0H66Z" glyph-name="one" horiz-adv-x="463" unicode="1" /><glyph d="M319 295H115V356H182V568Q171 560 152 550Q133 540 115 533H110V593Q130 601 158.5 620Q187 639 202 653H255V356H319ZM302 0H232V13L587 646H658V633ZM773 -1H555V43Q567 73 584.5 99.5Q602 126 624 148Q664 187 675.5 206Q687 225 687 244Q687 271 673 285Q659 299 632 299Q617 299 603.5 295.5Q590 292 572 283L553 337Q568 347 594.5 353.5Q621 360 648 360Q707 360 738 333Q769 306 769 254Q769 223 753.5 194Q738 165 705 135Q667 99 656.5 86Q646 73 639 60H773Z" glyph-name="onehalf" horiz-adv-x="886" unicode="&#189;" /><glyph d="M319 295H115V356H182V568Q171 560 152 550Q133 540 115 533H110V593Q130 601 158.5 620Q187 639 202 653H255V356H319ZM302 0H232V13L587 646H658V633ZM644 59H501V110Q504 125 509.5 141Q515 157 523 175Q529 187 539 208.5Q549 230 553 238Q571 276 582.5 303.5Q594 331 602 357H666V350Q662 330 650 301Q638 272 618 233Q599 196 587 166Q575 136 572 117H644V186H710V117H750V59H710V0H644Z" glyph-name="onequarter" horiz-adv-x="853" unicode="&#188;" /><glyph d="M284 -195Q237 -195 210 -168Q183 -141 183 -95Q183 -69 191 -47Q199 -25 214 -7Q128 3 85 66Q42 129 42 244Q42 366 98.5 432Q155 498 255 498Q362 498 415.5 434.5Q469 371 469 244Q469 148 434 87.5Q399 27 327 0Q297 -12 279.5 -33.5Q262 -55 262 -82Q262 -105 274 -118Q286 -131 307 -131Q323 -131 337.5 -125Q352 -119 368 -106L397 -150Q372 -175 346.5 -185Q321 -195 284 -195ZM255 417Q194 417 169 377Q144 337 144 244Q144 151 169 111Q194 71 255 71Q316 71 341 111Q366 151 366 244Q366 337 341 377Q316 417 255 417Z" glyph-name="oogonek" horiz-adv-x="511" unicode="&#491;" /><glyph d="M284 -195Q237 -195 210 -168Q183 -141 183 -95Q183 -69 191 -47Q199 -25 214 -7Q128 3 85 66Q42 129 42 244Q42 366 98.5 432Q155 498 255 498Q362 498 415.5 434.5Q469 371 469 244Q469 148 434 87.5Q399 27 327 0Q297 -12 279.5 -33.5Q262 -55 262 -82Q262 -105 274 -118Q286 -131 307 -131Q323 -131 337.5 -125Q352 -119 368 -106L397 -150Q372 -175 346.5 -185Q321 -195 284 -195ZM255 417Q194 417 169 377Q144 337 144 244Q144 151 169 111Q194 71 255 71Q316 71 341 111Q366 151 366 244Q366 337 341 377Q316 417 255 417ZM381 589H129V661H381Z" glyph-name="oogonekmacron" horiz-adv-x="511" unicode="&#493;" /><glyph d="M212 335Q196 316 171.5 306Q147 296 118 296Q72 296 46.5 321.5Q21 347 21 393Q21 436 49 461.5Q77 487 140 500L204 513V531Q204 563 189.5 576Q175 589 138 589Q119 589 96.5 583.5Q74 578 51 568L36 624Q61 638 93 646Q125 654 158 654Q225 654 256.5 627Q288 600 288 543V382Q288 366 291.5 341.5Q295 317 299 303L222 297Q219 303 216.5 314Q214 325 212 335ZM99 398Q99 378 110.5 367.5Q122 357 144 357Q160 357 176.5 363.5Q193 370 204 380V457L161 447Q127 440 113 429Q99 418 99 398Z" glyph-name="ordfeminine" horiz-adv-x="359" unicode="&#170;" /><glyph d="M180 654Q257 654 296 609Q335 564 335 475Q335 389 293.5 342.5Q252 296 180 296Q103 296 64.5 341Q26 386 26 475Q26 561 67 607.5Q108 654 180 654ZM180 589Q141 589 126 563Q111 537 111 475Q111 414 126.5 388Q142 362 180 362Q219 362 235 388Q251 414 251 475Q251 537 235.5 563Q220 589 180 589Z" glyph-name="ordmasculine" horiz-adv-x="407" unicode="&#186;" /><glyph d="M64 -50V-39L108 40Q75 71 58.5 122Q42 173 42 244Q42 366 98.5 432Q155 498 255 498Q281 498 306 493.5Q331 489 353 480L385 538H443V527L400 450Q435 418 452 366.5Q469 315 469 244Q469 122 412 56Q355 -10 255 -10Q226 -10 201 -5Q176 0 154 9L121 -50ZM144 244Q144 207 147.5 179.5Q151 152 159 132L311 405Q299 411 285 414Q271 417 255 417Q194 417 169 377Q144 337 144 244ZM366 244Q366 281 361.5 310Q357 339 349 359L196 84Q208 77 222.5 74Q237 71 255 71Q316 71 341 111Q366 151 366 244Z" glyph-name="oslash" horiz-adv-x="511" unicode="&#248;" /><glyph d="M64 -50V-39L108 40Q75 71 58.5 122Q42 173 42 244Q42 366 98.5 432Q155 498 255 498Q281 498 306 493.5Q331 489 353 480L385 538H443V527L400 450Q435 418 452 366.5Q469 315 469 244Q469 122 412 56Q355 -10 255 -10Q226 -10 201 -5Q176 0 154 9L121 -50ZM144 244Q144 207 147.5 179.5Q151 152 159 132L311 405Q299 411 285 414Q271 417 255 417Q194 417 169 377Q144 337 144 244ZM366 244Q366 281 361.5 310Q357 339 349 359L196 84Q208 77 222.5 74Q237 71 255 71Q316 71 341 111Q366 151 366 244ZM192 560H178V618L373 720H386V633Z" glyph-name="oslashacute" horiz-adv-x="511" unicode="&#511;" /><glyph d="M469 244Q469 122 412 56Q355 -10 255 -10Q149 -10 95.5 53.5Q42 117 42 244Q42 366 98.5 432Q155 498 255 498Q362 498 415.5 434.5Q469 371 469 244ZM255 417Q194 417 169 377Q144 337 144 244Q144 151 169 111Q194 71 255 71Q316 71 341 111Q366 151 366 244Q366 337 341 377Q316 417 255 417ZM200 611Q186 611 175.5 603.5Q165 596 156 580L112 614Q128 648 149 664Q170 680 197 680Q208 680 220 677.5Q232 675 254 667Q275 660 285.5 657.5Q296 655 305 655Q319 655 331.5 663Q344 671 356 687L398 652Q384 620 360.5 602Q337 584 310 584Q297 584 282 587.5Q267 591 239 601Q221 607 213 609Q205 611 200 611Z" glyph-name="otilde" horiz-adv-x="511" unicode="&#245;" /><glyph d="M469 244Q469 122 412 56Q355 -10 255 -10Q149 -10 95.5 53.5Q42 117 42 244Q42 366 98.5 432Q155 498 255 498Q362 498 415.5 434.5Q469 371 469 244ZM255 417Q194 417 169 377Q144 337 144 244Q144 151 169 111Q194 71 255 71Q316 71 341 111Q366 151 366 244Q366 337 341 377Q316 417 255 417ZM200 611Q186 611 175.5 603.5Q165 596 156 580L112 614Q128 648 149 664Q170 680 197 680Q208 680 220 677.5Q232 675 254 667Q275 660 285.5 657.5Q296 655 305 655Q319 655 331.5 663Q344 671 356 687L398 652Q384 620 360.5 602Q337 584 310 584Q297 584 282 587.5Q267 591 239 601Q221 607 213 609Q205 611 200 611ZM381 737H129V809H381Z" glyph-name="otildemacron" horiz-adv-x="511" /><glyph d="M469 244Q469 122 412 56Q355 -10 255 -10Q149 -10 95.5 53.5Q42 117 42 244Q42 366 98.5 432Q155 498 255 498Q362 498 415.5 434.5Q469 371 469 244ZM255 417Q194 417 169 377Q144 337 144 244Q144 151 169 111Q194 71 255 71Q316 71 341 111Q366 151 366 244Q366 337 341 377Q316 417 255 417ZM381 -161H129V-89H381Z" glyph-name="ounderlineaccent" horiz-adv-x="511" /><glyph d="M271 -9Q243 -9 221.5 -4.5Q200 0 181 9V-180H79V491H170L175 434Q195 464 227.5 481Q260 498 298 498Q396 498 443.5 437Q491 376 491 250Q491 122 435 56.5Q379 -9 271 -9ZM275 416Q248 416 222.5 402.5Q197 389 181 366V95Q195 83 220 75.5Q245 68 273 68Q333 68 360 108Q387 148 387 243Q387 339 362 377.5Q337 416 275 416Z" glyph-name="p" horiz-adv-x="533" unicode="p" /><glyph d="M262 -189Q238 -189 216.5 -185.5Q195 -182 179 -175L194 -102Q214 -107 227.5 -109Q241 -111 253 -111Q290 -111 307.5 -94Q325 -77 325 -41Q325 -33 324.5 -14.5Q324 4 322 33V98H251Q161 98 112.5 153.5Q64 209 64 313Q64 433 116 492Q168 551 274 551H583V474H534V0H470V474H424V-31Q424 -110 383.5 -149.5Q343 -189 262 -189Z" glyph-name="paragraph" horiz-adv-x="639" unicode="&#182;" /><glyph d="M367 -138V-225Q220 -218 158.5 -101.5Q97 15 97 276Q97 531 160 650.5Q223 770 367 777V691Q308 682 272 640.5Q236 599 221 519Q213 478 209.5 422.5Q206 367 206 276Q206 185 209.5 129.5Q213 74 221 34Q237 -46 272.5 -87.5Q308 -129 367 -138Z" glyph-name="parenleft" horiz-adv-x="385" unicode="(" /><glyph d="M288 276Q288 15 226.5 -101.5Q165 -218 18 -225V-138Q77 -129 112.5 -87.5Q148 -46 164 34Q172 74 175.5 129.5Q179 185 179 276Q179 367 175.5 422.5Q172 478 164 519Q149 599 113 640.5Q77 682 18 691V777Q162 770 225 650.5Q288 531 288 276Z" glyph-name="parenright" horiz-adv-x="385" unicode=")" /><glyph d="M469 244Q469 122 412 56Q355 -10 255 -10Q149 -10 95.5 53.5Q42 117 42 244Q42 366 98.5 432Q155 498 255 498Q289 498 318 491Q347 484 371 471V506Q371 577 344.5 604Q318 631 247 631Q215 631 184.5 619.5Q154 608 123 584L87 651Q122 681 167 696Q212 711 267 711Q365 711 416.5 661.5Q468 612 468 519V279Q468 276 468 272.5Q468 269 468 262Q469 255 469 251Q469 247 469 244ZM255 417Q194 417 169 377Q144 337 144 244Q144 151 169 111Q194 71 255 71Q316 71 341 111Q366 151 366 244Q366 337 341 377Q316 417 255 417Z" glyph-name="partialdiff" horiz-adv-x="513" unicode="&#8706;" /><glyph d="M216 656Q281 656 311.5 611Q342 566 342 472Q342 380 310.5 334.5Q279 289 216 289Q151 289 120 334Q89 379 89 472Q89 566 120 611Q151 656 216 656ZM277 0H207V13L562 646H633V633ZM216 595Q185 595 173.5 571Q162 547 162 472Q162 398 173.5 373.5Q185 349 216 349Q246 349 257 372.5Q268 396 268 472Q268 547 257 571Q246 595 216 595ZM745 173Q745 81 713.5 35.5Q682 -10 619 -10Q554 -10 523 35Q492 80 492 173Q492 267 523 312Q554 357 619 357Q684 357 714.5 312Q745 267 745 173ZM671 173Q671 248 660 272Q649 296 619 296Q588 296 576.5 272Q565 248 565 173Q565 99 576.5 74.5Q588 50 619 50Q649 50 660 73.5Q671 97 671 173Z" glyph-name="percent" horiz-adv-x="840" unicode="%" /><glyph d="M191 53Q191 21 175 5.5Q159 -10 127 -10Q96 -10 80 6Q64 22 64 53Q64 85 80 101Q96 117 127 117Q159 117 175 101Q191 85 191 53Z" glyph-name="period" horiz-adv-x="255" unicode="." /><glyph d="M105 338Q137 338 153 322Q169 306 169 274Q169 242 153 226.5Q137 211 105 211Q74 211 58 227Q42 243 42 274Q42 306 58 322Q74 338 105 338Z" glyph-name="periodcentered" horiz-adv-x="212" unicode="&#183;" /><glyph d="M277 0H207V13L562 646H633V633ZM268 472Q268 547 257 571Q246 595 216 595Q185 595 173.5 571Q162 547 162 472Q162 398 173.5 373.5Q185 349 216 349Q246 349 257 372.5Q268 396 268 472ZM342 472Q342 380 310.5 334.5Q279 289 216 289Q151 289 120 334Q89 379 89 472Q89 566 120 611Q151 656 216 656Q281 656 311.5 611Q342 566 342 472ZM624 50Q654 50 665 73.5Q676 97 676 173Q676 248 665 272Q654 296 624 296Q593 296 581.5 272Q570 248 570 173Q570 99 581.5 74.5Q593 50 624 50ZM624 -10Q559 -10 528 35Q497 80 497 173Q497 267 528 312Q559 357 624 357Q689 357 719.5 312Q750 267 750 173Q750 81 718.5 35.5Q687 -10 624 -10ZM939 49Q969 49 980 72.5Q991 96 991 172Q991 247 980 271Q969 295 939 295Q908 295 896.5 271Q885 247 885 172Q885 98 896.5 73.5Q908 49 939 49ZM939 -11Q874 -11 843 34Q812 79 812 172Q812 266 843 311Q874 356 939 356Q1004 356 1034.5 311Q1065 266 1065 172Q1065 80 1033.5 34.5Q1002 -11 939 -11Z" glyph-name="perthousand" horiz-adv-x="1155" unicode="&#8240;" /><glyph d="M181 0H80V488H471V0H369V395H181Z" glyph-name="pi" horiz-adv-x="552" unicode="&#960;" /><glyph d="M220 220H42V309H220V506H325V309H504V220H325V0H220Z" glyph-name="plus" horiz-adv-x="546" unicode="+" /><glyph d="M316 138H230V285H101V353H230V487H316V353H444V285H316ZM444 0H101V64H444Z" glyph-name="plusminus" horiz-adv-x="546" unicode="&#177;" /><glyph d="M271 -9Q243 -9 221.5 -4.5Q200 0 181 9V-180H79V491H170L175 434Q195 464 227.5 481Q260 498 298 498Q396 498 443.5 437Q491 376 491 250Q491 122 435 56.5Q379 -9 271 -9ZM275 416Q248 416 222.5 402.5Q197 389 181 366V95Q195 83 220 75.5Q245 68 273 68Q333 68 360 108Q387 148 387 243Q387 339 362 377.5Q337 416 275 416ZM391 589H139V661H391Z" glyph-name="pmacron" horiz-adv-x="533" /><glyph d="M196 0H90V646H558V0H451V554H196Z" glyph-name="product" horiz-adv-x="648" unicode="&#8719;" /><glyph d="M747 323Q747 163 656 68.5Q565 -26 408 -26Q250 -26 159.5 67.5Q69 161 69 323Q69 484 159.5 577.5Q250 671 408 671Q566 671 656.5 577Q747 483 747 323ZM665 323Q665 458 599 530Q533 602 408 602Q283 602 217 530Q151 458 151 323Q151 187 217 115Q283 43 408 43Q533 43 599 115Q665 187 665 323ZM371 149H294V502H424Q486 502 517.5 473Q549 444 549 387Q549 331 517.5 302Q486 273 424 273H371ZM371 440V334H410Q442 334 455.5 346.5Q469 359 469 387Q469 416 455.5 428Q442 440 410 440Z" glyph-name="published" horiz-adv-x="816" /><glyph d="M351 -180V43Q328 18 296.5 4Q265 -10 230 -10Q136 -10 89 53Q42 116 42 243Q42 366 97.5 432Q153 498 255 498Q287 498 319 490.5Q351 483 374 470L378 497H453V-180ZM258 420Q195 420 170.5 379Q146 338 146 245Q146 148 170.5 109Q195 70 254 70Q281 70 306 81.5Q331 93 351 114V398Q333 408 308 414Q283 420 258 420Z" glyph-name="q" horiz-adv-x="532" unicode="q" /><glyph d="M226 184H129V235Q129 294 142.5 325Q156 356 198 385Q245 417 259 438.5Q273 460 273 486Q273 528 251.5 548Q230 568 184 568Q163 568 138 560Q113 552 84 537L55 614Q89 635 128 645.5Q167 656 211 656Q292 656 337.5 616Q383 576 383 503Q383 458 365.5 424.5Q348 391 306 361Q252 323 239 295.5Q226 268 226 222ZM249 53Q249 21 233 5.5Q217 -10 185 -10Q153 -10 137 5.5Q121 21 121 53Q121 85 137 101Q153 117 185 117Q217 117 233 101Q249 85 249 53Z" glyph-name="question" horiz-adv-x="480" unicode="?" /><glyph d="M248 304H345V253Q345 194 331.5 163Q318 132 276 103Q229 71 215 49.5Q201 28 201 2Q201 -40 222.5 -60Q244 -80 290 -80Q311 -80 336 -72Q361 -64 390 -49L419 -126Q385 -147 346 -157.5Q307 -168 263 -168Q182 -168 136.5 -128Q91 -88 91 -15Q91 30 108.5 63.5Q126 97 168 127Q222 165 235 192.5Q248 220 248 266ZM289 498Q321 498 337 482.5Q353 467 353 435Q353 403 337 387Q321 371 289 371Q257 371 241 387Q225 403 225 435Q225 467 241 482.5Q257 498 289 498Z" glyph-name="questiondown" horiz-adv-x="480" unicode="&#191;" /><glyph d="M129 409H59L37 619V646H150V619ZM290 409H220L198 619V646H311V619Z" glyph-name="quotedbl" horiz-adv-x="349" unicode="&quot;" /><glyph d="M113 4H104Q77 4 63 19Q49 34 49 62Q49 90 65 105Q81 120 110 120Q152 120 169.5 95Q187 70 187 17Q187 -47 150.5 -89.5Q114 -132 45 -149L24 -97Q70 -76 91.5 -54Q113 -32 113 -7ZM288 4H279Q252 4 238 19Q224 34 224 62Q224 90 240 105Q256 120 285 120Q327 120 344.5 95Q362 70 362 17Q362 -47 325.5 -89.5Q289 -132 220 -149L199 -97Q245 -76 266.5 -54Q288 -32 288 -7Z" glyph-name="quotedblbase" horiz-adv-x="401" unicode="&#8222;" /><glyph d="M172 523Q172 495 156 480Q140 465 111 465Q70 465 52 490Q34 515 34 569Q34 633 70.5 675Q107 717 176 734L197 682Q151 661 129.5 639Q108 617 108 592V581H117Q144 581 158 566Q172 551 172 523ZM353 523Q353 495 337 480Q321 465 292 465Q251 465 233 490Q215 515 215 569Q215 633 251.5 675Q288 717 357 734L378 682Q332 661 310.5 639Q289 617 289 592V581H298Q325 581 339 566Q353 551 353 523Z" glyph-name="quotedblleft" horiz-adv-x="396" unicode="&#8220;" /><glyph d="M180 622Q180 558 143.5 515.5Q107 473 38 456L17 508Q63 529 84.5 551Q106 573 106 598V609H97Q70 609 56 624Q42 639 42 667Q42 695 58 710Q74 725 103 725Q145 725 162.5 700Q180 675 180 622ZM362 622Q362 558 325.5 515.5Q289 473 220 456L199 508Q245 529 266.5 551Q288 573 288 598V609H279Q252 609 238 624Q224 639 224 667Q224 695 240 710Q256 725 285 725Q327 725 344.5 700Q362 675 362 622Z" glyph-name="quotedblright" horiz-adv-x="396" unicode="&#8221;" /><glyph d="M172 523Q172 495 156 480Q140 465 111 465Q70 465 52 490Q34 515 34 569Q34 633 70.5 675Q107 717 176 734L197 682Q151 661 129.5 639Q108 617 108 592V581H117Q144 581 158 566Q172 551 172 523Z" glyph-name="quoteleft" horiz-adv-x="215" unicode="&#8216;" /><glyph d="M180 622Q180 558 143.5 515.5Q107 473 38 456L17 508Q63 529 84.5 551Q106 573 106 598V609H97Q70 609 56 624Q42 639 42 667Q42 695 58 710Q74 725 103 725Q145 725 162.5 700Q180 675 180 622Z" glyph-name="quoteright" horiz-adv-x="215" unicode="&#8217;" /><glyph d="M119 4H110Q83 4 69 19Q55 34 55 62Q55 90 71 105Q87 120 116 120Q158 120 175.5 95Q193 70 193 17Q193 -47 156.5 -89.5Q120 -132 51 -149L30 -97Q76 -76 97.5 -54Q119 -32 119 -7Z" glyph-name="quotesinglbase" horiz-adv-x="250" unicode="&#8218;" /><glyph d="M129 409H59L37 619V646H150V619Z" glyph-name="quotesingle" horiz-adv-x="187" unicode="'" /><glyph d="M181 0H80V491H173L178 398Q198 446 231 472Q264 498 305 498Q320 498 333 496.5Q346 495 355 492L345 398Q335 400 322 401Q309 402 296 402Q256 402 229 382.5Q202 363 181 320Z" glyph-name="r" horiz-adv-x="366" unicode="r" /><glyph d="M181 0H80V491H173L178 398Q198 446 231 472Q264 498 305 498Q320 498 333 496.5Q346 495 355 492L345 398Q335 400 322 401Q309 402 296 402Q256 402 229 382.5Q202 363 181 320ZM116 560H102V618L297 720H310V633Z" glyph-name="racute" horiz-adv-x="366" unicode="&#341;" /><glyph d="M357 -2H239L106 411H24V488H185L300 103L496 750H586V739Z" glyph-name="radical" horiz-adv-x="596" unicode="&#8730;" /><glyph d="M187 0H86V491H179L184 398Q204 446 237 472Q270 498 311 498Q326 498 339 496.5Q352 495 361 492L351 398Q341 400 328 401Q315 402 302 402Q262 402 235 382.5Q208 363 187 320ZM234 561H197L82 645V708H96L216 628L336 708H350V645Z" glyph-name="rcaron" horiz-adv-x="368" unicode="&#345;" /><glyph d="M107 0H80V491H173L178 398Q198 446 231 472Q264 498 305 498Q320 498 333 496.5Q346 495 355 492L345 398Q335 400 322 401Q309 402 296 402Q256 402 229 382.5Q202 363 181 320V0H169L156 -46Q192 -52 211 -72Q230 -92 230 -125Q230 -166 202 -191.5Q174 -217 127 -217Q99 -217 75.5 -206.5Q52 -196 32 -174L57 -136Q77 -151 90 -156Q103 -161 115 -161Q137 -161 148 -152Q159 -143 159 -125Q159 -104 141 -93Q123 -82 86 -81Z" glyph-name="rcedilla" horiz-adv-x="366" unicode="&#57640;" /><glyph d="M163 -134H156Q135 -134 125.5 -124Q116 -114 116 -94Q116 -75 128 -64Q140 -53 160 -53Q189 -53 202.5 -70.5Q216 -88 216 -125Q216 -163 190.5 -188.5Q165 -214 117 -224L104 -191Q139 -180 151 -169Q163 -158 163 -142ZM181 0H80V491H173L178 398Q198 446 231 472Q264 498 305 498Q320 498 333 496.5Q346 495 355 492L345 398Q335 400 322 401Q309 402 296 402Q256 402 229 382.5Q202 363 181 320Z" glyph-name="rcommaaccent" horiz-adv-x="366" unicode="&#343;" /><glyph d="M181 0H80V491H173L178 398Q198 446 231 472Q264 498 305 498Q320 498 333 496.5Q346 495 355 492L345 398Q335 400 322 401Q309 402 296 402Q256 402 229 382.5Q202 363 181 320ZM179 -181Q152 -181 138 -167Q124 -153 124 -125Q124 -97 138 -83Q152 -69 179 -69Q207 -69 221.5 -83Q236 -97 236 -125Q236 -153 221.5 -167Q207 -181 179 -181Z" glyph-name="rdotbelow" horiz-adv-x="366" unicode="&#7771;" /><glyph d="M179 -181Q152 -181 138 -167Q124 -153 124 -125Q124 -97 138 -83Q152 -69 179 -69Q207 -69 221.5 -83Q236 -97 236 -125Q236 -153 221.5 -167Q207 -181 179 -181ZM177 0H76V491H169L174 398Q194 446 227 472Q260 498 301 498Q316 498 329 496.5Q342 495 351 492L341 398Q331 400 318 401Q305 402 292 402Q252 402 225 382.5Q198 363 177 320ZM323 589H71V661H323Z" glyph-name="rdotbelowmacron" horiz-adv-x="366" unicode="&#7773;" /><glyph d="M176 0H75V491H168L173 398Q193 446 226 472Q259 498 300 498Q315 498 328 496.5Q341 495 350 492L340 398Q330 400 317 401Q304 402 291 402Q251 402 224 382.5Q197 363 176 320ZM316 558H263L144 685V697H222L316 570ZM178 558H125L6 685V697H84L178 570Z" glyph-name="rdoublegrave" horiz-adv-x="366" /><glyph d="M747 323Q747 163 656 68.5Q565 -26 408 -26Q250 -26 159.5 67.5Q69 161 69 323Q69 484 159.5 577.5Q250 671 408 671Q566 671 656.5 577Q747 483 747 323ZM665 323Q665 458 599 530Q533 602 408 602Q283 602 217 530Q151 458 151 323Q151 187 217 115Q283 43 408 43Q533 43 599 115Q665 187 665 323ZM363 150H287V503H413Q475 503 507 474Q539 445 539 389Q539 353 524.5 328Q510 303 481 290L568 158V150H483L406 276H363ZM363 441V338H397Q430 338 444.5 350Q459 362 459 389Q459 416 444.5 428.5Q430 441 397 441Z" glyph-name="registered" horiz-adv-x="816" unicode="&#174;" /><glyph d="M297 673Q408 673 471.5 607Q535 541 535 429Q535 317 471 251Q407 185 297 185Q186 185 123 250.5Q60 316 60 429Q60 542 123 607.5Q186 673 297 673ZM297 624Q210 624 164 574Q118 524 118 429Q118 334 164 283.5Q210 233 297 233Q385 233 431 283.5Q477 334 477 429Q477 524 431 574Q385 624 297 624ZM266 308H213V555H301Q344 555 366.5 534.5Q389 514 389 475Q389 450 378.5 432.5Q368 415 348 406L409 314V308H350L296 396H266ZM266 512V440H290Q313 440 323 448Q333 456 333 475Q333 494 323 503Q313 512 290 512Z" glyph-name="registered.superior" horiz-adv-x="582" /><glyph d="M158 740Q211 740 236.5 716Q262 692 262 642Q262 593 235.5 568Q209 543 158 543Q105 543 79.5 567.5Q54 592 54 642Q54 690 81 715Q108 740 158 740ZM158 692Q136 692 127 680.5Q118 669 118 642Q118 615 127.5 603Q137 591 158 591Q180 591 189 602.5Q198 614 198 642Q198 668 188.5 680Q179 692 158 692Z" glyph-name="ring" horiz-adv-x="316" unicode="&#730;" /><glyph d="M155 876Q205 876 230 853Q255 830 255 783Q255 739 228.5 715Q202 691 155 691Q105 691 79.5 714Q54 737 54 783Q54 827 81 851.5Q108 876 155 876ZM155 831Q134 831 125.5 820.5Q117 810 117 783Q117 757 126 745.5Q135 734 155 734Q176 734 184.5 745Q193 756 193 783Q193 809 184.5 820Q176 831 155 831Z" glyph-name="ring.cap" horiz-adv-x="309" /><glyph d="M173 0H72V491H165L170 398Q190 446 223 472Q256 498 297 498Q312 498 325 496.5Q338 495 347 492L337 398Q327 400 314 401Q301 402 288 402Q248 402 221 382.5Q194 363 173 320ZM121 563H60V586Q60 641 93 669Q126 697 191 697Q258 697 290.5 670Q323 643 323 586V563H262Q260 605 244.5 621.5Q229 638 191 638Q154 638 138 621.5Q122 605 121 563Z" glyph-name="rinvertedbreve" horiz-adv-x="366" unicode="&#531;" /><glyph d="M197 -10Q154 -10 109.5 -0.5Q65 9 37 24L56 101Q106 82 136.5 75.5Q167 69 197 69Q236 69 256 84.5Q276 100 276 131Q276 155 263 168.5Q250 182 216 193L164 211Q102 232 73 266.5Q44 301 44 351Q44 418 89.5 458Q135 498 213 498Q253 498 292 490Q331 482 355 469L331 391Q296 406 268.5 412.5Q241 419 216 419Q179 419 160.5 404.5Q142 390 142 361Q142 335 155.5 320.5Q169 306 215 290L267 272Q325 253 351.5 221.5Q378 190 378 142Q378 70 330 30Q282 -10 197 -10Z" glyph-name="s" horiz-adv-x="420" unicode="s" /><glyph d="M197 -10Q154 -10 109.5 -0.5Q65 9 37 24L56 101Q106 82 136.5 75.5Q167 69 197 69Q236 69 256 84.5Q276 100 276 131Q276 155 263 168.5Q250 182 216 193L164 211Q102 232 73 266.5Q44 301 44 351Q44 418 89.5 458Q135 498 213 498Q253 498 292 490Q331 482 355 469L331 391Q296 406 268.5 412.5Q241 419 216 419Q179 419 160.5 404.5Q142 390 142 361Q142 335 155.5 320.5Q169 306 215 290L267 272Q325 253 351.5 221.5Q378 190 378 142Q378 70 330 30Q282 -10 197 -10ZM116 560H102V618L297 720H310V633Z" glyph-name="sacute" horiz-adv-x="420" unicode="&#347;" /><glyph d="M197 -10Q154 -10 109.5 -0.5Q65 9 37 24L56 101Q106 82 136.5 75.5Q167 69 197 69Q236 69 256 84.5Q276 100 276 131Q276 155 263 168.5Q250 182 216 193L164 211Q102 232 73 266.5Q44 301 44 351Q44 418 89.5 458Q135 498 213 498Q253 498 292 490Q331 482 355 469L331 391Q296 406 268.5 412.5Q241 419 216 419Q179 419 160.5 404.5Q142 390 142 361Q142 335 155.5 320.5Q169 306 215 290L267 272Q325 253 351.5 221.5Q378 190 378 142Q378 70 330 30Q282 -10 197 -10ZM229 561H192L77 645V708H91L211 628L331 708H345V645Z" glyph-name="scaron" horiz-adv-x="420" unicode="&#353;" /><glyph d="M37 24 56 101Q106 82 136.5 75.5Q167 69 197 69Q236 69 256 84.5Q276 100 276 131Q276 155 263 168.5Q250 182 216 193L164 211Q102 232 73 266.5Q44 301 44 351Q44 418 89.5 458Q135 498 213 498Q253 498 292 490Q331 482 355 469L331 391Q296 406 268.5 412.5Q241 419 216 419Q179 419 160.5 404.5Q142 390 142 361Q142 335 155.5 320.5Q169 306 215 290L267 272Q325 253 351.5 221.5Q378 190 378 142Q378 78 339 38.5Q300 -1 229 -8L218 -46Q254 -52 273 -72Q292 -92 292 -125Q292 -166 264 -191.5Q236 -217 189 -217Q161 -217 137.5 -206.5Q114 -196 94 -174L119 -136Q139 -151 152 -156Q165 -161 177 -161Q199 -161 210 -152Q221 -143 221 -125Q221 -104 203 -93Q185 -82 148 -81L167 -9Q131 -6 95 3Q59 12 37 24Z" glyph-name="scedilla" horiz-adv-x="420" unicode="&#351;" /><glyph d="M429 245Q429 125 372.5 58Q316 -9 216 -9Q131 -9 87.5 42Q44 93 44 190Q44 207 45 228Q46 249 47 264H328Q328 349 299.5 383Q271 417 201 417Q170 417 141 406.5Q112 396 78 372L42 435Q78 468 121 483.5Q164 499 217 499Q322 499 375.5 434.5Q429 370 429 245ZM326 191H136V175Q136 118 156.5 93Q177 68 222 68Q271 68 296.5 98.5Q322 129 326 191Z" glyph-name="schwa" horiz-adv-x="480" unicode="&#601;" /><glyph d="M197 -10Q154 -10 109.5 -0.5Q65 9 37 24L56 101Q106 82 136.5 75.5Q167 69 197 69Q236 69 256 84.5Q276 100 276 131Q276 155 263 168.5Q250 182 216 193L164 211Q102 232 73 266.5Q44 301 44 351Q44 418 89.5 458Q135 498 213 498Q253 498 292 490Q331 482 355 469L331 391Q296 406 268.5 412.5Q241 419 216 419Q179 419 160.5 404.5Q142 390 142 361Q142 335 155.5 320.5Q169 306 215 290L267 272Q325 253 351.5 221.5Q378 190 378 142Q378 70 330 30Q282 -10 197 -10ZM84 557H70V621L185 705H222L338 621V557H324L204 637Z" glyph-name="scircumflex" horiz-adv-x="420" unicode="&#349;" /><glyph d="M197 -134H190Q169 -134 159.5 -124Q150 -114 150 -94Q150 -75 162 -64Q174 -53 194 -53Q223 -53 236.5 -70.5Q250 -88 250 -125Q250 -163 224.5 -188.5Q199 -214 151 -224L138 -191Q173 -180 185 -169Q197 -158 197 -142ZM197 -10Q154 -10 109.5 -0.5Q65 9 37 24L56 101Q106 82 136.5 75.5Q167 69 197 69Q236 69 256 84.5Q276 100 276 131Q276 155 263 168.5Q250 182 216 193L164 211Q102 232 73 266.5Q44 301 44 351Q44 418 89.5 458Q135 498 213 498Q253 498 292 490Q331 482 355 469L331 391Q296 406 268.5 412.5Q241 419 216 419Q179 419 160.5 404.5Q142 390 142 361Q142 335 155.5 320.5Q169 306 215 290L267 272Q325 253 351.5 221.5Q378 190 378 142Q378 70 330 30Q282 -10 197 -10Z" glyph-name="scommaaccent" horiz-adv-x="420" unicode="&#537;" /><glyph d="M197 -10Q154 -10 109.5 -0.5Q65 9 37 24L56 101Q106 82 136.5 75.5Q167 69 197 69Q236 69 256 84.5Q276 100 276 131Q276 155 263 168.5Q250 182 216 193L164 211Q102 232 73 266.5Q44 301 44 351Q44 418 89.5 458Q135 498 213 498Q253 498 292 490Q331 482 355 469L331 391Q296 406 268.5 412.5Q241 419 216 419Q179 419 160.5 404.5Q142 390 142 361Q142 335 155.5 320.5Q169 306 215 290L267 272Q325 253 351.5 221.5Q378 190 378 142Q378 70 330 30Q282 -10 197 -10ZM206 -181Q179 -181 165 -167Q151 -153 151 -125Q151 -97 165 -83Q179 -69 206 -69Q234 -69 248.5 -83Q263 -97 263 -125Q263 -153 248.5 -167Q234 -181 206 -181Z" glyph-name="sdotbelow" horiz-adv-x="420" unicode="&#7779;" /><glyph d="M209 -155Q161 -155 111 -140.5Q61 -126 35 -106L65 -31Q99 -51 137 -62Q175 -73 213 -73Q262 -73 288 -51.5Q314 -30 314 10Q314 43 297.5 63Q281 83 240 98L174 124Q109 149 78.5 189.5Q48 230 48 291Q48 342 70 379Q92 416 133 435Q99 459 81.5 492.5Q64 526 64 569Q64 648 115 694Q166 740 252 740Q297 740 340.5 729.5Q384 719 416 702L388 623Q360 638 321 648.5Q282 659 252 659Q209 659 187 639.5Q165 620 165 582Q165 547 182 527Q199 507 239 492L317 461Q379 436 407.5 398Q436 360 436 305Q436 254 413.5 215.5Q391 177 349 155Q384 132 401.5 100.5Q419 69 419 27Q419 -59 363.5 -107Q308 -155 209 -155ZM146 306Q146 272 163.5 251Q181 230 222 216L260 202Q295 207 313.5 229.5Q332 252 332 289Q332 323 315.5 342.5Q299 362 257 377L225 388Q189 384 167.5 362Q146 340 146 306Z" glyph-name="section" horiz-adv-x="498" unicode="&#167;" /><glyph d="M125 498Q157 498 173 482Q189 466 189 434Q189 402 173 386.5Q157 371 125 371Q94 371 78 387Q62 403 62 434Q62 466 78 482Q94 498 125 498ZM129 4H120Q93 4 79 19Q65 34 65 62Q65 90 81 105Q97 120 126 120Q167 120 185 95Q203 70 203 17Q203 -47 166.5 -89.5Q130 -132 61 -149L40 -97Q86 -76 107.5 -54Q129 -32 129 -7Z" glyph-name="semicolon" horiz-adv-x="260" unicode=";" /><glyph d="M244 468Q244 428 217 406.5Q190 385 140 385Q116 385 94.5 391Q73 397 60 406L77 448Q93 441 109 437Q125 433 140 433Q157 433 166 439.5Q175 446 176 459Q176 470 170 477Q164 484 150 489L126 499Q97 510 83.5 528.5Q70 547 70 573Q70 610 93.5 631.5Q117 653 157 653Q179 653 200.5 648Q222 643 236 635L221 589Q208 595 191 599Q174 603 163 603Q150 603 143 596.5Q136 590 136 578Q136 567 142 559Q148 551 159 547L189 536Q217 525 230.5 508Q244 491 244 468ZM365 387H307V645H386L443 502L501 645H570V387H513V561L461 421H417L365 561Z" glyph-name="servicemark" horiz-adv-x="632" unicode="&#8480;" /><glyph d="M61 11Q78 83 109.5 157Q141 231 178 309Q210 376 240 439Q270 502 284 553H17V646H400V577Q389 528 355.5 454Q322 380 271 276Q239 211 211 138.5Q183 66 164 0H61Z" glyph-name="seven" horiz-adv-x="431" unicode="7" /><glyph d="M282 -10Q172 -10 115.5 69Q59 148 59 317Q59 395 74 458Q89 521 121 565Q153 609 202.5 632.5Q252 656 321 656Q356 656 390 650.5Q424 645 447 636L427 553Q419 556 407 558Q395 560 381.5 562Q368 564 354 565Q340 566 330 566Q285 566 254 555Q223 544 203.5 519Q184 494 175 453.5Q166 413 166 355Q187 375 222 390Q257 405 296 405Q338 405 372.5 395Q407 385 432.5 362Q458 339 472 301.5Q486 264 486 208Q486 104 431 47Q376 -10 282 -10ZM282 79Q332 79 358 107Q384 135 384 201Q384 262 360 289.5Q336 317 274 317Q235 317 210 303.5Q185 290 166 276Q166 175 191.5 127Q217 79 282 79Z" glyph-name="six" horiz-adv-x="535" unicode="6" /><glyph d="M51 -120V-107L366 750H441V737L126 -120Z" glyph-name="slash" horiz-adv-x="492" unicode="/" /><glyph glyph-name="space" horiz-adv-x="215" unicode=" " /><glyph d="M113 0H27V73L106 82Q124 118 138.5 174.5Q153 231 164 312H68L74 386H174Q175 390 177.5 412Q180 434 182 445Q199 563 248 609.5Q297 656 405 656Q429 656 456 651Q483 646 503 637L477 554Q458 560 438.5 563.5Q419 567 401 567Q342 567 318.5 537Q295 507 286 428Q283 405 282 398Q281 391 281 386H436L435 312H272Q260 220 245 165.5Q230 111 208 77Q219 75 232 72Q245 69 269 64Q312 53 333 50Q354 47 374 47Q417 47 440 69Q463 91 467 135L546 129Q540 45 500.5 1.5Q461 -42 390 -42Q353 -42 321.5 -38Q290 -34 241 -20Q197 -8 170 -4Q143 0 113 0Z" glyph-name="sterling" horiz-adv-x="573" unicode="&#163;" /><glyph d="M485 0H35V65L219 335L35 576V646H485V556H167L327 360V314L165 90H485Z" glyph-name="summation" horiz-adv-x="516" unicode="&#8721;" /><glyph d="M210 -10Q154 -10 123 19.5Q92 49 92 103V411H30V483L95 499L122 600L194 603V488H325V411H193V136Q193 102 206 87.5Q219 73 251 73Q264 73 279 79Q294 85 310 97L338 33Q315 12 282.5 1Q250 -10 210 -10Z" glyph-name="t" horiz-adv-x="362" unicode="t" /><glyph d="M210 -10Q154 -10 123 19.5Q92 49 92 103V229H33V284H92V411H30V483L95 499L122 600L194 603V488H325V411H193V284H315V229H193V136Q193 102 206 87.5Q219 73 251 73Q264 73 279 79Q294 85 310 97L338 33Q315 12 282.5 1Q250 -10 210 -10Z" glyph-name="tbar" horiz-adv-x="362" unicode="&#359;" /><glyph d="M210 -10Q154 -10 123 19.5Q92 49 92 103V411H30V483L95 499L122 600L194 603V488H325V411H193V136Q193 102 206 87.5Q219 73 251 73Q264 73 279 79Q294 85 310 97L338 33Q315 12 282.5 1Q250 -10 210 -10ZM270 522H222V533L265 707H341V696Z" glyph-name="tcaron" horiz-adv-x="362" unicode="&#357;" /><glyph d="M92 103V411H30V483L95 499L122 600L194 603V488H325V411H193V136Q193 102 206 87.5Q219 73 251 73Q264 73 279 79Q294 85 310 97L338 33Q317 14 289 3.5Q261 -7 226 -9L216 -46Q252 -52 271 -72Q290 -92 290 -125Q290 -166 262 -191.5Q234 -217 187 -217Q159 -217 135.5 -206.5Q112 -196 92 -174L117 -136Q137 -151 150 -156Q163 -161 175 -161Q197 -161 208 -152Q219 -143 219 -125Q219 -104 201 -93Q183 -82 146 -81L166 -4Q130 5 111 32.5Q92 60 92 103Z" glyph-name="tcedilla" horiz-adv-x="362" unicode="&#57642;" /><glyph d="M92 103V411H30V483L95 499L122 600L194 603V488H325V411H193V136Q193 102 206 87.5Q219 73 251 73Q264 73 279 79Q294 85 310 97L338 33Q317 14 289 3.5Q261 -7 226 -9L216 -46Q252 -52 271 -72Q290 -92 290 -125Q290 -166 262 -191.5Q234 -217 187 -217Q159 -217 135.5 -206.5Q112 -196 92 -174L117 -136Q137 -151 150 -156Q163 -161 175 -161Q197 -161 208 -152Q219 -143 219 -125Q219 -104 201 -93Q183 -82 146 -81L166 -4Q130 5 111 32.5Q92 60 92 103Z" glyph-name="tcommaaccent" horiz-adv-x="362" unicode="&#355;" /><glyph d="M210 -10Q154 -10 123 19.5Q92 49 92 103V411H30V483L95 499L122 600L194 603V488H325V411H193V136Q193 102 206 87.5Q219 73 251 73Q264 73 279 79Q294 85 310 97L338 33Q315 12 282.5 1Q250 -10 210 -10ZM193 -181Q166 -181 152 -167Q138 -153 138 -125Q138 -97 152 -83Q166 -69 193 -69Q221 -69 235.5 -83Q250 -97 250 -125Q250 -153 235.5 -167Q221 -181 193 -181Z" glyph-name="tdotbelow" horiz-adv-x="362" unicode="&#7789;" /><glyph d="M270 -9Q243 -9 221.5 -4Q200 1 181 12V-180H79V701L181 704V442Q200 468 231 483Q262 498 297 498Q396 498 444 436Q492 374 492 248Q492 121 436 56Q380 -9 270 -9ZM275 416Q248 416 223 402.5Q198 389 181 366V95Q197 83 221.5 75.5Q246 68 272 68Q334 68 361 107.5Q388 147 388 242Q388 340 362.5 378Q337 416 275 416Z" glyph-name="thorn" horiz-adv-x="534" unicode="&#254;" /><glyph d="M57 115Q86 102 120 90.5Q154 79 195 79Q227 79 249 87Q271 95 284.5 109.5Q298 124 304 144Q310 164 310 187Q310 241 277 263Q244 285 178 287L149 288V372L177 373Q236 375 261 401.5Q286 428 286 479Q286 520 260.5 543Q235 566 190 566Q155 566 125 555.5Q95 545 71 531L42 610Q74 633 115 644Q156 655 201 655Q240 655 275 645.5Q310 636 335.5 616.5Q361 597 376 567.5Q391 538 391 498Q391 429 362 391Q333 353 285 341V338Q348 329 382.5 291Q417 253 417 185Q417 129 398.5 92Q380 55 349 32Q318 9 277.5 -0.5Q237 -10 194 -10Q139 -10 97 3Q55 16 26 36Z" glyph-name="three" horiz-adv-x="482" unicode="3" /><glyph d="M199 288Q172 288 147.5 294.5Q123 301 105 312L124 366Q148 356 165 352.5Q182 349 199 349Q227 349 241 361Q255 373 255 399Q255 423 239.5 434Q224 445 186 446H172V503H185Q215 504 228.5 515.5Q242 527 242 554Q242 572 229 583Q216 594 195 594Q180 594 165 590.5Q150 587 133 579L114 632Q130 643 154 649Q178 655 204 655Q253 655 282.5 631.5Q312 608 312 567Q312 532 297 510.5Q282 489 254 482V480Q290 475 308 454Q326 433 326 396Q326 344 293 316Q260 288 199 288ZM302 0H232V13L587 646H658V633ZM644 59H501V110Q504 125 509.5 141Q515 157 523 175Q529 187 539 208.5Q549 230 553 238Q571 276 582.5 303.5Q594 331 602 357H666V350Q662 330 650 301Q638 272 618 233Q599 196 587 166Q575 136 572 117H644V186H710V117H750V59H710V0H644Z" glyph-name="threequarters" horiz-adv-x="853" unicode="&#190;" /><glyph d="M157 611Q143 611 132.5 603.5Q122 596 113 580L69 614Q85 648 106 664Q127 680 154 680Q165 680 177 677.5Q189 675 211 667Q232 660 242.5 657.5Q253 655 262 655Q276 655 288.5 663Q301 671 313 687L355 652Q341 620 317.5 602Q294 584 267 584Q254 584 239 587.5Q224 591 196 601Q178 607 170 609Q162 611 157 611Z" glyph-name="tilde" horiz-adv-x="429" unicode="&#732;" /><glyph d="M142 745Q129 745 117.5 736.5Q106 728 95 711L47 746Q65 782 88 799Q111 816 143 816Q152 816 163.5 813.5Q175 811 198 803Q221 795 232.5 792.5Q244 790 254 790Q270 790 282 797Q294 804 307 823L353 787Q338 752 313.5 735Q289 718 253 718Q239 718 226 721Q213 724 190 733Q171 740 161 742.5Q151 745 142 745Z" glyph-name="tilde.cap" horiz-adv-x="403" /><glyph d="M341 387H284V645H362L419 502L477 645H547V387H489V561L438 421H394L341 561ZM169 387H104V590H38V645H236V590H169Z" glyph-name="trademark" horiz-adv-x="625" unicode="&#8482;" /><glyph d="M45 66Q69 129 104.5 179Q140 229 180 267Q202 288 223.5 310Q245 332 261.5 354.5Q278 377 288.5 401.5Q299 426 299 453Q299 486 290 508Q281 530 266 542.5Q251 555 231 560.5Q211 566 189 566Q152 566 126 557Q100 548 71 532L43 610Q66 625 110.5 640.5Q155 656 211 656Q257 656 294.5 645Q332 634 358.5 611Q385 588 399.5 552Q414 516 414 467Q414 434 404 403.5Q394 373 377 344.5Q360 316 338 290Q316 264 291 241Q253 206 218 168.5Q183 131 162 90H431V0H45Z" glyph-name="two" horiz-adv-x="490" unicode="2" /><glyph d="M225 -10Q149 -10 112 31.5Q75 73 75 159V488H176V180Q176 119 194 94.5Q212 70 258 70Q290 70 316 92Q342 114 359 154V488H461V-6H368L363 75Q337 30 304.5 10Q272 -10 225 -10Z" glyph-name="u" horiz-adv-x="540" unicode="u" /><glyph d="M225 -10Q149 -10 112 31.5Q75 73 75 159V488H176V180Q176 119 194 94.5Q212 70 258 70Q290 70 316 92Q342 114 359 154V488H461V-6H368L363 75Q337 30 304.5 10Q272 -10 225 -10ZM207 560H193V618L388 720H401V633Z" glyph-name="uacute" horiz-adv-x="540" unicode="&#250;" /><glyph d="M225 -10Q149 -10 112 31.5Q75 73 75 159V488H176V180Q176 119 194 94.5Q212 70 258 70Q290 70 316 92Q342 114 359 154V488H461V-6H368L363 75Q337 30 304.5 10Q272 -10 225 -10ZM393 686V663Q393 606 360.5 579Q328 552 261 552Q196 552 163 580Q130 608 130 663V686H191Q192 645 208 628Q224 611 261 611Q298 611 314 627.5Q330 644 332 686Z" glyph-name="ubreve" horiz-adv-x="540" unicode="&#365;" /><glyph d="M225 -10Q149 -10 112 31.5Q75 73 75 159V488H176V180Q176 119 194 94.5Q212 70 258 70Q290 70 316 92Q342 114 359 154V488H461V-6H368L363 75Q337 30 304.5 10Q272 -10 225 -10ZM284 561H247L132 645V708H146L266 628L386 708H400V645Z" glyph-name="ucaron" horiz-adv-x="540" unicode="&#468;" /><glyph d="M225 -10Q149 -10 112 31.5Q75 73 75 159V488H176V180Q176 119 194 94.5Q212 70 258 70Q290 70 316 92Q342 114 359 154V488H461V-6H368L363 75Q337 30 304.5 10Q272 -10 225 -10ZM139 557H125V621L240 705H277L393 621V557H379L259 637Z" glyph-name="ucircumflex" horiz-adv-x="540" unicode="&#251;" /><glyph d="M225 -10Q149 -10 112 31.5Q75 73 75 159V488H176V180Q176 119 194 94.5Q212 70 258 70Q290 70 316 92Q342 114 359 154V488H461V-6H368L363 75Q337 30 304.5 10Q272 -10 225 -10ZM342 685Q367 685 380.5 671Q394 657 394 631Q394 605 380.5 591.5Q367 578 342 578Q318 578 305 591.5Q292 605 292 631Q292 658 305 671.5Q318 685 342 685ZM180 685Q206 685 219.5 671Q233 657 233 631Q233 605 219 591.5Q205 578 180 578Q156 578 143.5 591.5Q131 605 131 631Q131 657 143.5 671Q156 685 180 685Z" glyph-name="udieresis" horiz-adv-x="540" unicode="&#252;" /><glyph d="M225 -10Q149 -10 112 31.5Q75 73 75 159V488H176V180Q176 119 194 94.5Q212 70 258 70Q290 70 316 92Q342 114 359 154V488H461V-6H368L363 75Q337 30 304.5 10Q272 -10 225 -10ZM260 -181Q233 -181 219 -167Q205 -153 205 -125Q205 -97 219 -83Q233 -69 260 -69Q288 -69 302.5 -83Q317 -97 317 -125Q317 -153 302.5 -167Q288 -181 260 -181Z" glyph-name="udotbelow" horiz-adv-x="540" unicode="&#7909;" /><glyph d="M230 -10Q154 -10 117 31.5Q80 73 80 159V488H181V180Q181 119 199 94.5Q217 70 263 70Q295 70 321 92Q347 114 364 154V488H466V-6H373L368 75Q342 30 309.5 10Q277 -10 230 -10ZM375 558H322L203 685V697H281L375 570ZM237 558H184L65 685V697H143L237 570Z" glyph-name="udoublegrave" horiz-adv-x="540" /><glyph d="M225 -10Q149 -10 112 31.5Q75 73 75 159V488H176V180Q176 119 194 94.5Q212 70 258 70Q290 70 316 92Q342 114 359 154V488H461V-6H368L363 75Q337 30 304.5 10Q272 -10 225 -10ZM343 560H330L135 633V720H149L343 618Z" glyph-name="ugrave" horiz-adv-x="540" unicode="&#249;" /><glyph d="M225 -10Q149 -10 112 31.5Q75 73 75 159V488H176V180Q176 119 194 94.5Q212 70 258 70Q290 70 316 92Q342 114 359 154V488H461V-6H368L363 75Q337 30 304.5 10Q272 -10 225 -10ZM352 558H299V570L393 697H471V685ZM214 558H161V570L255 697H333V685Z" glyph-name="uhungarumlaut" horiz-adv-x="540" unicode="&#369;" /><glyph d="M225 -10Q149 -10 112 31.5Q75 73 75 159V488H176V180Q176 119 194 94.5Q212 70 258 70Q290 70 316 92Q342 114 359 154V488H461V-6H368L363 75Q337 30 304.5 10Q272 -10 225 -10ZM195 563H134V586Q134 641 167 669Q200 697 265 697Q332 697 364.5 670Q397 643 397 586V563H336Q334 605 318.5 621.5Q303 638 265 638Q228 638 212 621.5Q196 605 195 563Z" glyph-name="uinvertedbreve" horiz-adv-x="540" unicode="&#535;" /><glyph d="M225 -10Q149 -10 112 31.5Q75 73 75 159V488H176V180Q176 119 194 94.5Q212 70 258 70Q290 70 316 92Q342 114 359 154V488H461V-6H368L363 75Q337 30 304.5 10Q272 -10 225 -10ZM387 589H135V661H387Z" glyph-name="umacron" horiz-adv-x="540" unicode="&#363;" /><glyph d="M225 -10Q149 -10 112 31.5Q75 73 75 159V488H176V180Q176 119 194 94.5Q212 70 258 70Q290 70 316 92Q342 114 359 154V488H461V-6H368L363 75Q337 30 304.5 10Q272 -10 225 -10ZM388 -171H136V-99H388Z" glyph-name="umacronbelow" horiz-adv-x="540" /><glyph d="M509 -134H-1V-60H509Z" glyph-name="underscore" horiz-adv-x="508" unicode="_" /><glyph d="M509 -134H-1V-60H509Z" glyph-name="underscoremonospace" horiz-adv-x="508" unicode="&#65343;" /><glyph d="M120 0H18V11L222 648H351L553 12V0H444L395 160H169ZM282 533 195 248H369ZM372 813Q400 813 413.5 799.5Q427 786 427 759Q427 733 413 719.5Q399 706 372 706Q345 706 331 719.5Q317 733 317 759Q317 786 330.5 799.5Q344 813 372 813ZM199 813Q227 813 241 799.5Q255 786 255 759Q255 733 241 719.5Q227 706 199 706Q172 706 158.5 719Q145 732 145 759Q145 786 158.5 799.5Q172 813 199 813ZM435 865H136V939H435Z" glyph-name="uni004100A800AF" horiz-adv-x="572" /><glyph d="M381 779Q381 736 357.5 713.5Q334 691 289 691Q242 691 219.5 712.5Q197 734 197 779Q197 810 210 830.5Q223 851 248 860L416 956H428V888L345 854Q363 844 372 825.5Q381 807 381 779ZM289 827Q268 827 259 816Q250 805 250 779Q250 753 259 741.5Q268 730 289 730Q310 730 318.5 741Q327 752 327 779Q327 804 318 815.5Q309 827 289 827ZM120 0H18V11L222 648H351L553 12V0H444L395 160H169ZM282 533 195 248H369Z" glyph-name="uni004102DA00B4" horiz-adv-x="572" /><glyph d="M296 -181Q269 -181 255 -167Q241 -153 241 -125Q241 -97 255 -83Q269 -69 296 -69Q324 -69 338.5 -83Q353 -97 353 -125Q353 -153 338.5 -167Q324 -181 296 -181ZM504 0H90V646H491V556H196V374H402V285H196V90H504ZM381 695H367L144 769V856H157L381 758Z" glyph-name="uni004500600323" horiz-adv-x="539" /><glyph d="M504 0H90V646H491V556H196V374H402V285H196V90H504ZM296 -181Q269 -181 255 -167Q241 -153 241 -125Q241 -97 255 -83Q269 -69 296 -69Q324 -69 338.5 -83Q353 -97 353 -125Q353 -153 338.5 -167Q324 -181 296 -181ZM192 695H179V758L402 856H416V769Z" glyph-name="uni004500B40323" horiz-adv-x="539" /><glyph d="M261 -181Q234 -181 220 -167Q206 -153 206 -125Q206 -97 220 -83Q234 -69 261 -69Q289 -69 303.5 -83Q318 -97 318 -125Q318 -153 303.5 -167Q289 -181 261 -181ZM463 0H89V646H195V92H463ZM297 720H-2V794H297Z" glyph-name="uni004C032300AF" horiz-adv-x="481" /><glyph d="M313 656Q444 656 508.5 573Q573 490 573 323Q573 160 505.5 75Q438 -10 313 -10Q182 -10 117.5 73Q53 156 53 323Q53 486 120.5 571Q188 656 313 656ZM313 566Q230 566 197 510.5Q164 455 164 323Q164 195 198.5 137.5Q233 80 313 80Q396 80 429.5 136Q463 192 463 323Q463 451 428.5 508.5Q394 566 313 566ZM313 817Q341 817 355 802.5Q369 788 369 760Q369 732 355 718.5Q341 705 313 705Q285 705 271.5 719Q258 733 258 760Q258 788 272 802.5Q286 817 313 817ZM463 863H164V937H463Z" glyph-name="uni004F02D900AF" horiz-adv-x="627" /><glyph d="M382 -185Q335 -185 308 -158Q281 -131 281 -85Q281 -63 286.5 -44Q292 -25 302 -10Q300 -10 297.5 -10Q295 -10 293 -10Q172 -3 112.5 79.5Q53 162 53 323Q53 486 120.5 571Q188 656 313 656Q444 656 508.5 573Q573 490 573 323Q573 202 535 123.5Q497 45 423 10Q391 -5 375.5 -25.5Q360 -46 360 -72Q360 -95 372 -108Q384 -121 405 -121Q421 -121 435.5 -115Q450 -109 466 -96L495 -140Q470 -165 444.5 -175Q419 -185 382 -185ZM164 323Q164 195 198.5 137.5Q233 80 313 80Q396 80 429.5 136Q463 192 463 323Q463 451 428.5 508.5Q394 566 313 566Q230 566 197 510.5Q164 455 164 323ZM463 720H164V794H463Z" glyph-name="uni004F02DB00AF" horiz-adv-x="627" /><glyph d="M254 -10Q149 -10 95.5 54.5Q42 119 42 244Q42 364 98.5 431Q155 498 255 498Q340 498 383.5 447Q427 396 427 299Q427 282 426 261Q425 240 424 225H143Q143 140 171.5 106Q200 72 270 72Q301 72 330 82.5Q359 93 393 117L429 54Q393 21 350 5.5Q307 -10 254 -10ZM249 421Q200 421 174.5 390.5Q149 360 145 298H335V314Q335 371 314.5 396Q294 421 249 421ZM252 -181Q225 -181 211 -167Q197 -153 197 -125Q197 -97 211 -83Q225 -69 252 -69Q280 -69 294.5 -83Q309 -97 309 -125Q309 -153 294.5 -167Q280 -181 252 -181ZM350 560H337L142 633V720H156L350 618Z" glyph-name="uni006500600323" horiz-adv-x="475" /><glyph d="M254 -10Q149 -10 95.5 54.5Q42 119 42 244Q42 364 98.5 431Q155 498 255 498Q340 498 383.5 447Q427 396 427 299Q427 282 426 261Q425 240 424 225H143Q143 140 171.5 106Q200 72 270 72Q301 72 330 82.5Q359 93 393 117L429 54Q393 21 350 5.5Q307 -10 254 -10ZM249 421Q200 421 174.5 390.5Q149 360 145 298H335V314Q335 371 314.5 396Q294 421 249 421ZM171 560H157V618L352 720H365V633ZM252 -181Q225 -181 211 -167Q197 -153 197 -125Q197 -97 211 -83Q225 -69 252 -69Q280 -69 294.5 -83Q309 -97 309 -125Q309 -153 294.5 -167Q280 -181 252 -181Z" glyph-name="uni006500B40323" horiz-adv-x="475" /><glyph glyph-name="uni00A0" horiz-adv-x="215" unicode="&#160;" /><glyph d="M482 0H36V70L173 289H102V370H223L340 556H44V646H476V572L347 370H421V289H295L168 90H482Z" glyph-name="uni01B5" horiz-adv-x="518" unicode="&#437;" /><glyph d="M396 0H34V59L137 218H79V273H172L262 411H44V488H385V428L283 273H328V218H247L154 77H396Z" glyph-name="uni01B6" horiz-adv-x="430" unicode="&#438;" /><glyph d="M292 0H185V555H13V646H467V555H292ZM243 -134H236Q215 -134 205.5 -124Q196 -114 196 -94Q196 -75 208 -64Q220 -53 240 -53Q269 -53 282.5 -70.5Q296 -88 296 -125Q296 -163 270.5 -188.5Q245 -214 197 -224L184 -191Q219 -180 231 -169Q243 -158 243 -142Z" glyph-name="uni021A" horiz-adv-x="480" unicode="&#538;" /><glyph d="M122 762H129Q150 762 159.5 752Q169 742 169 722Q169 703 157 692Q145 681 125 681Q96 681 82.5 698.5Q69 716 69 753Q69 791 94.5 816.5Q120 842 168 852L181 819Q146 808 134 797Q122 786 122 770Z" glyph-name="uni0312" horiz-adv-x="235" unicode="&#786;" /><glyph d="M363 0H53V58H363Z" glyph-name="uni0331" horiz-adv-x="416" unicode="&#817;" /><glyph d="M9 -111Q48 -111 65 -92.5Q82 -74 82 -27L78 110L79 488H180V180Q180 119 198 94.5Q216 70 262 70Q294 70 320 92Q346 114 363 154V488H465V-6H372L367 75Q341 30 308.5 10Q276 -10 229 -10Q217 -10 204 -8.5Q191 -7 179 -5V-31Q179 -111 139 -150Q99 -189 18 -189Q-6 -189 -27.5 -185.5Q-49 -182 -65 -175L-50 -102Q-30 -107 -16.5 -109Q-3 -111 9 -111Z" glyph-name="uni03BC" horiz-adv-x="549" unicode="&#956;" /><glyph d="M120 0H8V11L214 332L25 635V646H140L285 416L432 646H543V635L345 334L551 11V0H430L275 246ZM337 789Q337 761 323 747Q309 733 281 733Q254 733 240 747Q226 761 226 789Q226 817 240 831Q254 845 281 845Q309 845 323 831Q337 817 337 789Z" glyph-name="uni1E8A" horiz-adv-x="564" unicode="&#7818;" /><glyph d="M113 0H13V9L174 255L29 479V488H137L242 321L350 488H450V479L295 248L450 9V0H339L228 180ZM294 631Q294 603 280 589Q266 575 238 575Q211 575 197 589Q183 603 183 631Q183 659 197 673Q211 687 238 687Q266 687 280 673Q294 659 294 631Z" glyph-name="uni1E8B" horiz-adv-x="476" unicode="&#7819;" /><glyph d="M225 -10Q149 -10 112 31.5Q75 73 75 159V488H176V180Q176 119 194 94.5Q212 70 258 70Q290 70 316 92Q342 114 359 154V488H461V-6H446Q419 -22 407 -40.5Q395 -59 395 -82Q395 -105 407 -118Q419 -131 440 -131Q456 -131 470.5 -125Q485 -119 501 -106L530 -150Q505 -175 479.5 -185Q454 -195 417 -195Q370 -195 343 -168Q316 -141 316 -95Q316 -61 329 -34.5Q342 -8 367 11L363 75Q337 30 304.5 10Q272 -10 225 -10Z" glyph-name="uogonek" horiz-adv-x="540" unicode="&#371;" /><glyph d="M225 -10Q149 -10 112 31.5Q75 73 75 159V488H176V180Q176 119 194 94.5Q212 70 258 70Q290 70 316 92Q342 114 359 154V488H461V-6H368L363 75Q337 30 304.5 10Q272 -10 225 -10ZM268 740Q321 740 346.5 716Q372 692 372 642Q372 593 345.5 568Q319 543 268 543Q215 543 189.5 567.5Q164 592 164 642Q164 690 191 715Q218 740 268 740ZM268 692Q246 692 237 680.5Q228 669 228 642Q228 615 237.5 603Q247 591 268 591Q290 591 299 602.5Q308 614 308 642Q308 668 298.5 680Q289 692 268 692Z" glyph-name="uring" horiz-adv-x="540" unicode="&#367;" /><glyph d="M225 -10Q149 -10 112 31.5Q75 73 75 159V488H176V180Q176 119 194 94.5Q212 70 258 70Q290 70 316 92Q342 114 359 154V488H461V-6H368L363 75Q337 30 304.5 10Q272 -10 225 -10ZM202 611Q188 611 177.5 603.5Q167 596 158 580L114 614Q130 648 151 664Q172 680 199 680Q210 680 222 677.5Q234 675 256 667Q277 660 287.5 657.5Q298 655 307 655Q321 655 333.5 663Q346 671 358 687L400 652Q386 620 362.5 602Q339 584 312 584Q299 584 284 587.5Q269 591 241 601Q223 607 215 609Q207 611 202 611Z" glyph-name="utilde" horiz-adv-x="540" unicode="&#361;" /><glyph d="M296 -2H176L22 477V488H122L238 103L354 488H450V477Z" glyph-name="v" horiz-adv-x="472" unicode="v" /><glyph d="M268 -2H157L34 476V488H132L224 104L327 465H411L517 103L608 488H702V476L579 -2H463L365 342Z" glyph-name="w" horiz-adv-x="735" unicode="w" /><glyph d="M268 -2H157L34 476V488H132L224 104L327 465H411L517 103L608 488H702V476L579 -2H463L365 342ZM300 560H286V618L481 720H494V633Z" glyph-name="wacute" horiz-adv-x="735" unicode="&#7811;" /><glyph d="M268 -2H157L34 476V488H132L224 104L327 465H411L517 103L608 488H702V476L579 -2H463L365 342ZM247 557H233V621L348 705H385L501 621V557H487L367 637Z" glyph-name="wcircumflex" horiz-adv-x="735" unicode="&#373;" /><glyph d="M268 -2H157L34 476V488H132L224 104L327 465H411L517 103L608 488H702V476L579 -2H463L365 342ZM448 685Q473 685 486.5 671Q500 657 500 631Q500 605 486.5 591.5Q473 578 448 578Q424 578 411 591.5Q398 605 398 631Q398 658 411 671.5Q424 685 448 685ZM286 685Q312 685 325.5 671Q339 657 339 631Q339 605 325 591.5Q311 578 286 578Q262 578 249.5 591.5Q237 605 237 631Q237 657 249.5 671Q262 685 286 685Z" glyph-name="wdieresis" horiz-adv-x="735" unicode="&#7813;" /><glyph d="M268 -2H157L34 476V488H132L224 104L327 465H411L517 103L608 488H702V476L579 -2H463L365 342ZM454 560H441L246 633V720H260L454 618Z" glyph-name="wgrave" horiz-adv-x="735" unicode="&#7809;" /><glyph d="M113 0H13V9L174 255L29 479V488H137L242 321L350 488H450V479L295 248L450 9V0H339L228 180Z" glyph-name="x" horiz-adv-x="476" unicode="x" /><glyph d="M141 -190Q118 -190 97.5 -186.5Q77 -183 62 -176L81 -102Q94 -107 105.5 -109Q117 -111 131 -111Q148 -111 159.5 -98.5Q171 -86 178 -61L196 -2L13 477V488H115L244 134L340 488H437V477L274 -65Q252 -138 223 -164Q194 -190 141 -190Z" glyph-name="y" horiz-adv-x="461" unicode="y" /><glyph d="M141 -190Q118 -190 97.5 -186.5Q77 -183 62 -176L81 -102Q94 -107 105.5 -109Q117 -111 131 -111Q148 -111 159.5 -98.5Q171 -86 178 -61L196 -2L13 477V488H115L244 134L340 488H437V477L274 -65Q252 -138 223 -164Q194 -190 141 -190ZM159 560H145V618L340 720H353V633Z" glyph-name="yacute" horiz-adv-x="461" unicode="&#253;" /><glyph d="M141 -190Q118 -190 97.5 -186.5Q77 -183 62 -176L81 -102Q94 -107 105.5 -109Q117 -111 131 -111Q148 -111 159.5 -98.5Q171 -86 178 -61L196 -2L13 477V488H115L244 134L340 488H437V477L274 -65Q252 -138 223 -164Q194 -190 141 -190ZM102 557H88V621L203 705H240L356 621V557H342L222 637Z" glyph-name="ycircumflex" horiz-adv-x="461" unicode="&#375;" /></font>
</defs>
</svg>
