<svg xmlns="http://www.w3.org/2000/svg" width="174" height="176" viewBox="0 0 174 176">
  <path fill="#FFF" fill-rule="evenodd" d="M87,100.3 C80.212,100.261 74.742,94.728 74.78,87.941 C74.819,81.153 80.353,75.682 87.14,75.72 C93.896,75.759 99.354,81.244 99.36,88 C99.338,94.808 93.808,100.311 87,100.3 M123.31,74.93 L121.86,71.41 C127.68,57.95 127.27,57.54 125.86,56.1 L118.5,48.78 C117.939,48.251 117.201,47.951 116.43,47.94 C115.84,47.94 114.52,47.94 103.43,53.06 L99.84,51.58 C94.5,38 93.91,38 91.94,38 L81.57,38 C79.6,38 79,38 74,51.63 L70.43,53.11 C59.18,48.27 57.79,48.27 57.27,48.27 C56.506,48.285 55.775,48.585 55.22,49.11 L47.88,56.43 C46.42,57.91 45.99,58.34 52.12,71.53 L50.61,75 C37,80.42 37,81 37,83 L37,93.41 C37,95.5 37,96.11 50.67,101.09 L52.12,104.59 C46.3,118 46.69,118.41 48.13,119.87 L55.45,127.191 C56.003,127.734 56.745,128.042 57.52,128.05 C58.09,128.05 59.41,128.05 70.52,122.93 L74.11,124.41 C79.48,138 80,138 82,138 L92.39,138 C94.39,138 95.01,138 100.01,124.35 L103.6,122.87 C109.22,125.29 112.39,126.5 114.21,127.111 C115.022,127.458 115.888,127.664 116.77,127.72 C117.535,127.712 118.269,127.411 118.82,126.88 L126.18,119.56 C127.64,118.08 128.07,117.651 121.92,104.46 L123.37,101 C137,95.58 137,95.05 137,93 L137,82.61 C137,80.52 137,79.91 123.31,74.93"/>
</svg>
