<svg id="Ebene_1" data-name="Ebene 1" xmlns="http://www.w3.org/2000/svg" xmlns:xlink="http://www.w3.org/1999/xlink" viewBox="0 0 580 222"><defs><style>.cls-1{fill:url(#Unbenannter_Verlauf_5);}</style><linearGradient id="Unbenannter_Verlauf_5" x1="74.66" y1="150.24" x2="464.09" y2="78.06" gradientUnits="userSpaceOnUse"><stop offset="0" stop-color="#ff6000"/><stop offset="1" stop-color="#ff5800"/></linearGradient></defs><title>KUKA-Logo-Orange-Gradient-RGB-37x216-RetinaSZ</title><path class="cls-1" d="M97.18,146.65H74V74H97.18v72.65Zm75.08,0-44.83-36.93L172.26,74H139.48l-42.3,35.72,42.3,36.93h32.78Zm105.61-25.36V74H254.65v43.08c0,9.23-3.45,12-13,12h-23c-9.52,0-13-2.73-13-12V74H182.5v47.29c0,18.07,9.72,26.7,31.06,26.7h33.25C268.14,148,277.87,139.37,277.87,121.29Zm41.38,25.36H296.06V74h23.18v72.65Zm75.08,0-44.83-36.93L394.32,74H361.54l-42.3,35.72,42.3,36.93h32.78ZM460.41,74h-20.5l-45.59,72.65H421L428.67,134h43l7.68,12.64H506Zm-23.77,45.53,13.52-23.16,13.52,23.16h-27Z"/></svg>