<?xml version="1.0" encoding="utf-8"?>
<!-- Generator: Adobe Illustrator 23.0.4, SVG Export Plug-In . SVG Version: 6.00 Build 0)  -->
<svg version="1.1" id="Ebene_1" xmlns="http://www.w3.org/2000/svg" xmlns:xlink="http://www.w3.org/1999/xlink" x="0px" y="0px"
	 viewBox="0 0 298 79" style="enable-background:new 0 0 298 79;" xml:space="preserve">
<style type="text/css">
	.st0{fill:#003D6A;}
	.st1{fill:#FFFFFF;}
	.st2{fill:#009EE0;}
</style>
<title>SCHUNK_Typenschildlogo_RGB</title>
<path class="st0" d="M258.5,76.6c20.6,0.3,37.6-16.1,37.9-36.7S280.3,2.3,259.7,2c-0.4,0-0.8,0-1.2,0L39.2,1.9
	c-20.6,0.3-37,17.3-36.7,38C2.8,60,19.1,76.3,39.2,76.6H258.5z"/>
<path class="st1" d="M51.1,44.9c1.7,1.4,3.9,2.2,6.1,2.4c1.4,0,2.2-0.7,2.2-1.6c0-2.6-8.4-2.9-8.4-9.8c0-3,2-7.1,7.9-7.1
	c2.6,0,5.1,0.9,7.1,2.5v6.2c-2.2-2.1-3.9-3.1-5.6-3.1c-1.3,0-2.2,0.6-2.2,1.6c0,2.9,8.7,3.2,8.7,9.9c0,3.4-2.3,7-8.1,7
	c-2.7,0.1-5.3-0.5-7.8-1.6L51.1,44.9L51.1,44.9z"/>
<path class="st1" d="M89.2,50.9c-2.6,1.4-5.4,2.1-8.4,2.1c-9.4,0-12.6-6.6-12.6-12c0-6.9,4.8-12.2,13-12.2c2.7-0.1,5.3,0.5,7.8,1.6
	v6.9c-1.9-1.4-4.2-2.2-6.5-2.2c-4,0-6.4,2.2-6.4,5.8s2.5,5.8,6.5,5.8c2.4,0,4.7-0.8,6.6-2.1V50.9L89.2,50.9z"/>
<polygon class="st1" points="91,29 98.9,29 98.9,37.6 107.5,37.6 107.5,29 115.4,29 115.4,52.7 107.5,52.7 107.5,43.7 98.9,43.7 
	98.9,52.7 91,52.7 "/>
<path class="st1" d="M141.2,41.8c0,6.9-4.1,11.2-11.9,11.2s-12.2-3.8-12.2-10.3V29h7.9v12.7c0,3.3,1.7,4.9,4.1,4.9
	c2.4,0,4.2-1.6,4.2-5.3V29h7.9V41.8L141.2,41.8z"/>
<polygon class="st1" points="143.2,29 149.9,29 161.3,41.2 161.3,29 168.8,29 168.8,52.7 162.1,52.7 150.8,40.5 150.8,52.7 
	143.2,52.7 "/>
<polygon class="st1" points="170.9,29 178.7,29 178.7,39.7 187.7,29 196,29 186.8,40 196.3,52.7 186.9,52.7 178.8,41.6 178.7,41.6 
	178.7,52.7 170.9,52.7 "/>
<path class="st1" d="M221.3,46.4c3.9,0,7.1-3.2,7.1-7.1s-3.2-7.1-7.1-7.1c-3.9,0-7.1,3.2-7.1,7.1l0,0
	C214.2,43.3,217.4,46.4,221.3,46.4"/>
<path class="st2" d="M198.8,69.5V52.3l0.2-0.1l14.9-8l0.2,0.3c2.9,4,8.5,4.8,12.5,1.9c2.3-1.7,3.6-4.4,3.6-7.2c0-1-0.2-2-0.5-3
	l-0.1-0.3l12.3-6.6l0.2,0.4c5.3,11.5,0.2,25-11.2,30.3c-5.1,2.3-10.8,2.7-16.2,1.1L198.8,69.5z"/>
<path class="st2" d="M200.7,49.2l-0.2-0.4c-5.3-11.4-0.3-25,11.2-30.3c5.1-2.3,10.9-2.7,16.2-1.1L243.8,9v17.2l-15.1,8l-0.2-0.3
	c-2.9-4-8.5-4.9-12.5-1.9c-3.2,2.3-4.5,6.5-3.2,10.2l0.1,0.3l-0.3,0.2L200.7,49.2z"/>
</svg>
