<?xml version="1.0" encoding="UTF-8" standalone="no"?>
<svg
   xmlns:dc="http://purl.org/dc/elements/1.1/"
   xmlns:cc="http://creativecommons.org/ns#"
   xmlns:rdf="http://www.w3.org/1999/02/22-rdf-syntax-ns#"
   xmlns:svg="http://www.w3.org/2000/svg"
   xmlns="http://www.w3.org/2000/svg"
   xmlns:sodipodi="http://sodipodi.sourceforge.net/DTD/sodipodi-0.dtd"
   xmlns:inkscape="http://www.inkscape.org/namespaces/inkscape"
   id="Ebene_1"
   data-name="Ebene 1"
   viewBox="0 0 715.14 191.75"
   version="1.1"
   sodipodi:docname="logo_matrixvision.svg"
   inkscape:version="0.92.5 (2060ec1f9f, 2020-04-08)">
  <metadata
     id="metadata75">
    <rdf:RDF>
      <cc:Work
         rdf:about="">
        <dc:format>image/svg+xml</dc:format>
        <dc:type
           rdf:resource="http://purl.org/dc/dcmitype/StillImage" />
        <dc:title></dc:title>
      </cc:Work>
    </rdf:RDF>
  </metadata>
  <sodipodi:namedview
     pagecolor="#ffffff"
     bordercolor="#666666"
     borderopacity="1"
     objecttolerance="10"
     gridtolerance="10"
     guidetolerance="10"
     inkscape:pageopacity="0"
     inkscape:pageshadow="2"
     inkscape:window-width="1219"
     inkscape:window-height="480"
     id="namedview73"
     showgrid="false"
     inkscape:pagecheckerboard="true"
     inkscape:zoom="0.48521967"
     inkscape:cx="306.03544"
     inkscape:cy="108.21283"
     inkscape:window-x="307"
     inkscape:window-y="407"
     inkscape:window-maximized="0"
     inkscape:current-layer="Ebene_1" />
  <defs
     id="defs4">
    <style
       id="style2">.cls-1{fill:none;}.cls-2{fill:#fff;}</style>
  </defs>
  <g
     id="g1696"
     transform="matrix(7.4097798,0,0,7.4097798,-5.5092029,-15.642186)"
     style="stroke-width:0.13495679">
    <g
       id="g1656"
       style="stroke-width:0.13495679">
      <path
         id="path1626"
         d="m 4.7,2.3 h 0.7 l 2,5.1 H 6.6 L 6.1,5.8 H 4 L 3.4,7.4 H 2.7 Z m -0.5,3 H 5.9 L 5,2.9 v 0 z"
         class="st0"
         inkscape:connector-curvature="0"
         style="fill:#ffffff;stroke-width:0.13495679" />
      <path
         id="path1628"
         d="m 10.1,2.3 h 0.6 v 1.9 0 c 0.2,-0.4 0.7,-0.6 1.2,-0.6 1.1,0 1.7,0.9 1.7,1.9 0,1 -0.6,1.9 -1.7,1.9 -0.4,0 -0.9,-0.1 -1.2,-0.6 v 0 0.5 h -0.6 z m 1.7,1.9 C 11,4.2 10.7,4.9 10.7,5.6 10.7,6.3 11,7 11.9,7 12.7,7 13,6.3 13,5.6 12.9,4.8 12.6,4.2 11.8,4.2 Z"
         class="st0"
         inkscape:connector-curvature="0"
         style="fill:#ffffff;stroke-width:0.13495679" />
      <path
         id="path1630"
         d="M 14.4,3.7 H 15 v 0.8 0 c 0.3,-0.6 0.7,-0.9 1.3,-0.9 v 0.6 c -1,0 -1.3,0.5 -1.3,1.5 v 1.6 h -0.6 z"
         class="st0"
         inkscape:connector-curvature="0"
         style="fill:#ffffff;stroke-width:0.13495679" />
      <path
         id="path1632"
         d="M 20.2,7.4 C 20.1,7.5 19.9,7.5 19.8,7.5 19.5,7.5 19.3,7.3 19.3,6.9 19,7.3 18.5,7.5 18,7.5 c -0.7,0 -1.2,-0.3 -1.2,-1 0,-0.8 0.6,-1 1.2,-1.1 0.7,-0.1 1.2,-0.1 1.2,-0.5 0,-0.5 -0.4,-0.6 -0.8,-0.6 -0.5,0 -0.9,0.2 -0.9,0.7 h -0.6 c 0,-0.9 0.7,-1.2 1.6,-1.2 0.7,0 1.4,0.1 1.4,1 v 1.9 c 0,0.3 0,0.4 0.2,0.4 0.1,0 0.1,0 0.2,0 V 7.4 Z M 19.3,5.5 c -0.5,0.3 -1.8,0 -1.8,0.9 0,0.4 0.3,0.5 0.7,0.5 0.8,0 1.1,-0.5 1.1,-0.8 z"
         class="st0"
         inkscape:connector-curvature="0"
         style="fill:#ffffff;stroke-width:0.13495679" />
      <path
         id="path1634"
         d="m 21,3.7 h 0.6 v 0.6 0 c 0.3,-0.5 0.7,-0.7 1.2,-0.7 1,0 1.3,0.6 1.3,1.3 V 7.3 H 23.5 V 4.9 c 0,-0.5 -0.3,-0.7 -0.7,-0.7 -0.7,0 -1.1,0.5 -1.1,1.1 V 7.4 H 21 Z"
         class="st0"
         inkscape:connector-curvature="0"
         style="fill:#ffffff;stroke-width:0.13495679" />
      <path
         id="path1636"
         d="m 28.4,7.4 h -0.6 v -0.5 0 c -0.2,0.4 -0.7,0.6 -1.2,0.6 -1.1,0 -1.7,-0.9 -1.7,-1.9 0,-1 0.6,-1.9 1.7,-1.9 0.4,0 0.9,0.1 1.2,0.6 v 0 -2 h 0.6 z M 26.7,6.9 c 0.8,0 1.1,-0.7 1.1,-1.4 0,-0.7 -0.3,-1.4 -1.2,-1.4 -0.8,0 -1.1,0.7 -1.1,1.4 0,0.8 0.4,1.4 1.2,1.4 z"
         class="st0"
         inkscape:connector-curvature="0"
         style="fill:#ffffff;stroke-width:0.13495679" />
      <path
         id="path1638"
         d="m 33.2,3.6 c 1.2,0 1.8,0.8 1.8,1.9 0,1.1 -0.6,1.9 -1.8,1.9 -1.2,0 -1.8,-0.8 -1.8,-1.9 0,-1 0.6,-1.9 1.8,-1.9 z m 0,3.3 c 0.6,0 1.1,-0.5 1.1,-1.4 0,-0.9 -0.5,-1.4 -1.1,-1.4 -0.6,0 -1.1,0.5 -1.1,1.4 0,0.9 0.5,1.4 1.1,1.4 z"
         class="st0"
         inkscape:connector-curvature="0"
         style="fill:#ffffff;stroke-width:0.13495679" />
      <path
         id="path1640"
         d="M 36.1,4.2 H 35.5 V 3.7 h 0.6 V 3.2 c 0,-0.6 0.4,-0.9 1,-0.9 0.1,0 0.3,0 0.4,0.1 v 0.5 c -0.1,0 -0.2,0 -0.3,0 -0.3,0 -0.5,0.1 -0.5,0.4 v 0.5 h 0.7 v 0.5 h -0.7 v 3.1 h -0.6 z"
         class="st0"
         inkscape:connector-curvature="0"
         style="fill:#ffffff;stroke-width:0.13495679" />
      <path
         id="path1642"
         d="m 40.4,2.3 h 1.8 c 0.4,0 1,0 1.3,0.2 0.3,0.2 0.6,0.6 0.6,1.1 0,0.5 -0.3,0.9 -0.8,1.1 v 0 c 0.6,0.1 1,0.6 1,1.2 0,0.7 -0.5,1.5 -1.5,1.5 H 40.4 Z M 41,4.5 h 1.3 c 0.8,0 1.1,-0.3 1.1,-0.8 C 43.4,3 42.9,2.9 42.3,2.9 H 41 Z m 0,2.3 h 1.7 c 0.6,0 0.9,-0.3 0.9,-0.9 0,-0.7 -0.5,-0.8 -1.1,-0.8 H 41 Z"
         class="st0"
         inkscape:connector-curvature="0"
         style="fill:#ffffff;stroke-width:0.13495679" />
      <path
         id="path1644"
         d="m 48.5,7.4 c -0.1,0.1 -0.3,0.1 -0.4,0.1 -0.3,0 -0.5,-0.2 -0.5,-0.6 -0.3,0.4 -0.8,0.6 -1.3,0.6 -0.7,0 -1.2,-0.3 -1.2,-1 0,-0.8 0.6,-1 1.2,-1.1 0.7,-0.1 1.2,-0.1 1.2,-0.5 0,-0.5 -0.4,-0.6 -0.8,-0.6 -0.5,0 -0.9,0.2 -0.9,0.7 h -0.6 c 0,-0.9 0.7,-1.2 1.6,-1.2 0.7,0 1.4,0.1 1.4,1 v 1.9 c 0,0.3 0,0.4 0.2,0.4 0.1,0 0.1,0 0.2,0 V 7.4 Z M 47.6,5.5 c -0.5,0.3 -1.8,0 -1.8,0.9 0,0.4 0.3,0.5 0.7,0.5 0.8,0 1.1,-0.5 1.1,-0.8 V 5.5 Z"
         class="st0"
         inkscape:connector-curvature="0"
         style="fill:#ffffff;stroke-width:0.13495679" />
      <path
         id="path1646"
         d="m 49.3,2.3 h 0.6 v 5.1 h -0.6 z"
         class="st0"
         inkscape:connector-curvature="0"
         style="fill:#ffffff;stroke-width:0.13495679" />
      <path
         id="path1648"
         d="m 51.1,2.3 h 0.6 v 5.1 h -0.6 z"
         class="st0"
         inkscape:connector-curvature="0"
         style="fill:#ffffff;stroke-width:0.13495679" />
      <path
         id="path1650"
         d="m 55.8,7.4 h -0.6 v -0.6 0 C 55,7.2 54.6,7.5 54,7.5 53,7.5 52.7,6.9 52.7,6.2 V 3.7 h 0.6 v 2.5 c 0,0.5 0.3,0.7 0.7,0.7 0.7,0 1.1,-0.5 1.1,-1.1 V 3.7 h 0.6 v 3.7 z"
         class="st0"
         inkscape:connector-curvature="0"
         style="fill:#ffffff;stroke-width:0.13495679" />
      <path
         id="path1652"
         d="M 57.1,4.2 H 56.5 V 3.7 h 0.6 V 3.2 c 0,-0.6 0.4,-0.9 1,-0.9 0.1,0 0.3,0 0.4,0.1 v 0.5 c -0.1,0 -0.2,0 -0.3,0 -0.3,0 -0.5,0.1 -0.5,0.4 v 0.5 h 0.7 v 0.5 h -0.7 v 3.1 h -0.6 z"
         class="st0"
         inkscape:connector-curvature="0"
         style="fill:#ffffff;stroke-width:0.13495679" />
      <path
         id="path1654"
         d="M 59.3,4.2 H 58.7 V 3.7 h 0.6 V 3.2 c 0,-0.6 0.4,-0.9 1,-0.9 0.1,0 0.3,0 0.4,0.1 v 0.5 c -0.1,0 -0.2,0 -0.3,0 -0.3,0 -0.5,0.1 -0.5,0.4 v 0.5 h 0.7 v 0.5 h -0.7 v 3.1 h -0.6 z"
         class="st0"
         inkscape:connector-curvature="0"
         style="fill:#ffffff;stroke-width:0.13495679" />
    </g>
    <g
       id="g1694"
       style="stroke-width:0.13495679">
      <polygon
         id="polygon1658"
         points="25.4,14.2 27,8.8 23.9,8.8 "
         class="st0"
         style="fill:#ffffff;stroke-width:0.13495679" />
      <g
         id="g1666"
         style="stroke-width:0.13495679">
        <path
           id="path1660"
           d="m 8.7,15.4 c -0.9,0 -1.7,0.3 -2.4,1 -0.7,0.7 -1.1,1.9 -1.1,3.7 v 7.4 H 11 v -9.1 c 0,-0.9 -0.1,-1.6 -0.3,-2.1 -0.3,-0.5 -1,-0.9 -2,-0.9 z"
           class="st0"
           inkscape:connector-curvature="0"
           style="fill:#ffffff;stroke-width:0.13495679" />
        <path
           id="path1662"
           d="m 16.8,15.5 c -0.9,0 -1.7,0.3 -2.4,0.9 -0.7,0.6 -1,1.6 -1,3.1 v 8.1 h 5.8 V 18 c 0,-0.9 -0.2,-1.6 -0.7,-1.9 -0.5,-0.4 -1,-0.6 -1.7,-0.6 z"
           class="st0"
           inkscape:connector-curvature="0"
           style="fill:#ffffff;stroke-width:0.13495679" />
        <path
           id="path1664"
           d="m 28.7,8.8 -2.6,7.1 H 24.6 L 22,8.8 H 2.9 v 4.9 h 2.3 v 2 c 0.6,-0.7 1.1,-1.2 1.5,-1.5 0.8,-0.5 1.6,-0.8 2.6,-0.8 1.1,0 2,0.3 2.7,0.8 0.4,0.3 0.7,0.8 1,1.4 0.5,-0.7 1.1,-1.3 1.8,-1.7 0.7,-0.4 1.5,-0.5 2.4,-0.5 1.9,0 3.2,0.7 3.8,2 0.4,0.7 0.5,1.7 0.5,2.9 v 9.2 H 49.8 V 8.8 Z"
           class="st0"
           inkscape:connector-curvature="0"
           style="fill:#ffffff;stroke-width:0.13495679" />
      </g>
      <polygon
         id="polygon1668"
         points="59.2,17.4 59.2,10.7 56.8,17.4 55.6,17.4 53.2,10.7 53.2,17.4 51.7,17.4 51.7,8.8 53.9,8.8 56.2,15.5 56.3,15.5 58.6,8.8 60.7,8.8 60.7,17.4 "
         class="st0"
         style="fill:#ffffff;stroke-width:0.13495679" />
      <path
         id="path1670"
         d="m 64.8,8.8 h 1.6 l 3.3,8.6 H 68.1 L 67.3,15.1 H 63.9 L 63,17.4 h -1.6 z m -0.6,5.1 h 2.6 l -1.3,-3.7 v 0 z"
         class="st0"
         inkscape:connector-curvature="0"
         style="fill:#ffffff;stroke-width:0.13495679" />
      <polygon
         id="polygon1672"
         points="68.6,10.1 68.6,8.8 75.5,8.8 75.5,10.1 72.8,10.1 72.8,17.4 71.3,17.4 71.3,10.1 "
         class="st0"
         style="fill:#ffffff;stroke-width:0.13495679" />
      <path
         id="path1674"
         d="m 76.5,8.8 h 4.1 c 1.9,0 2.8,0.9 2.8,2.3 0,1.7 -1.1,2.1 -1.4,2.2 v 0 c 0.5,0.1 1.3,0.5 1.3,1.8 0,1 0.1,1.9 0.5,2.3 H 82.2 C 82,17 82,16.5 82,16.1 82,14.5 81.7,13.8 80.3,13.8 H 78 v 3.5 h -1.5 z m 1.5,3.9 h 2.5 c 1,0 1.5,-0.5 1.5,-1.4 C 82,10.2 81.3,10 80.5,10 H 78 Z"
         class="st0"
         inkscape:connector-curvature="0"
         style="fill:#ffffff;stroke-width:0.13495679" />
      <polygon
         id="polygon1676"
         points="85,17.4 85,8.8 86.5,8.8 86.5,17.4 "
         class="st0"
         style="fill:#ffffff;stroke-width:0.13495679" />
      <polygon
         id="polygon1678"
         points="90.5,12.9 87.6,8.8 89.4,8.8 91.4,11.8 93.4,8.8 95.1,8.8 92.3,12.9 95.3,17.4 93.5,17.4 91.3,14.1 89.1,17.4 87.4,17.4 "
         class="st0"
         style="fill:#ffffff;stroke-width:0.13495679" />
      <g
         id="g1688"
         style="stroke-width:0.13495679">
        <polygon
           id="polygon1680"
           points="55.4,25.8 55.5,25.8 57.7,19 59.2,19 56.2,27.6 54.6,27.6 51.7,19 53.3,19 "
           class="st0"
           style="fill:#ffffff;stroke-width:0.13495679" />
        <path
           id="path1682"
           d="m 66.2,24.7 c 0,1.3 1,1.8 2.2,1.8 1.3,0 1.8,-0.7 1.8,-1.3 0,-0.7 -0.4,-0.9 -0.7,-1.1 C 68.9,23.9 68.1,23.7 66.9,23.4 65.4,23 65,22.1 65,21.2 c 0,-1.7 1.6,-2.5 3.1,-2.5 1.8,0 3.3,1 3.3,2.7 h -1.5 c -0.1,-1.1 -0.8,-1.5 -1.9,-1.5 -0.7,0 -1.6,0.3 -1.6,1.1 0,0.6 0.4,0.9 1,1.1 0.1,0 2,0.5 2.5,0.7 1.1,0.3 1.7,1.3 1.7,2.2 0,1.9 -1.7,2.7 -3.4,2.7 -2,0 -3.6,-0.9 -3.6,-3.1 h 1.6 z"
           class="st0"
           inkscape:connector-curvature="0"
           style="fill:#ffffff;stroke-width:0.13495679" />
        <polygon
           id="polygon1684"
           points="75.5,27.6 74,27.6 74,19 75.5,19 "
           class="st0"
           style="fill:#ffffff;stroke-width:0.13495679" />
        <path
           id="path1686"
           d="m 85.7,23.3 c 0,2.5 -1.5,4.5 -4.1,4.5 -2.6,0 -4.1,-2 -4.1,-4.5 0,-2.5 1.5,-4.5 4.1,-4.5 2.6,0 4.1,2 4.1,4.5 z m -6.7,0 c 0,1.7 0.8,3.3 2.6,3.3 1.8,0 2.6,-1.6 2.6,-3.3 0,-1.7 -0.8,-3.3 -2.6,-3.3 -1.8,0 -2.6,1.6 -2.6,3.3 z"
           class="st0"
           inkscape:connector-curvature="0"
           style="fill:#ffffff;stroke-width:0.13495679" />
      </g>
      <polygon
         id="polygon1690"
         points="89.6,19 93.5,25.3 93.5,19 94.9,19 94.9,27.6 93.4,27.6 89.4,21.3 89.4,27.6 88,27.6 88,19 "
         class="st0"
         style="fill:#ffffff;stroke-width:0.13495679" />
      <polygon
         id="polygon1692"
         points="60.9,27.6 60.9,19 62.4,19 62.4,27.6 "
         class="st0"
         style="fill:#ffffff;stroke-width:0.13495679" />
    </g>
  </g>
</svg>
