<?xml version="1.0" encoding="utf-8"?>
<!-- Generator: Adobe Illustrator 19.1.0, SVG Export Plug-In . SVG Version: 6.00 Build 0)  -->
<svg version="1.1" id="Ebene_1" xmlns="http://www.w3.org/2000/svg" xmlns:xlink="http://www.w3.org/1999/xlink" x="0px" y="0px"
	 viewBox="44 8 128 26" style="enable-background:new 44 8 128 26;" xml:space="preserve">
<style type="text/css">
	.st0{fill:#FFFFFF;}
</style>
<g>
	<path class="st0" d="M48.8,18.6c-0.5,0-1.3,0-1.7,0.1v7.8c0,0.2-0.2,0.4-0.4,0.4h-2.3c-0.2,0-0.4-0.2-0.4-0.4v-9.3
		c0-0.3,0.1-0.4,0.6-0.6c1.3-0.4,2.4-0.6,4.2-0.6c0.2,0,0.5,0.1,0.5,0.4v1.8C49.3,18.4,49.1,18.6,48.8,18.6z"/>
	<path class="st0" d="M54.9,27c-3,0-4.7-1.9-4.7-4.8v-1.3c0-3,1.7-4.8,4.7-4.8s4.7,1.9,4.7,4.8v1.3C59.6,25.2,57.9,27,54.9,27z
		 M56.6,20.9c0-1.5-0.6-2.3-1.7-2.3s-1.7,0.8-1.7,2.3v1.3c0,1.5,0.6,2.3,1.7,2.3s1.7-0.8,1.7-2.3V20.9z"/>
	<path class="st0" d="M77.1,27c-3,0-4.7-1.9-4.7-4.8v-1.3c0-3,1.7-4.9,4.7-4.9s4.7,1.9,4.7,4.8v1.3C81.7,25.2,80.1,27,77.1,27z
		 M78.7,20.9c0-1.5-0.6-2.3-1.7-2.3c-1.1,0-1.7,0.8-1.7,2.3v1.3c0,1.5,0.6,2.3,1.7,2.3c1.1,0,1.7-0.8,1.7-2.3V20.9z"/>
	<path class="st0" d="M90.3,26.8c-0.5,0.1-1.4,0.3-2.5,0.3c-2.6,0-4.3-1.7-4.3-4.7v-1.6c0-3,1.7-4.7,4.3-4.7c1.1,0,2,0.1,2.5,0.3
		c0.3,0.1,0.4,0.1,0.4,0.4v1.7c0,0.2-0.2,0.3-0.4,0.3l0,0c-0.7-0.1-1.2-0.1-2.3-0.1c-0.8,0-1.5,0.5-1.5,2.2v1.6
		c0,1.7,0.7,2.2,1.5,2.2c1.1,0,1.6-0.1,2.3-0.1l0,0c0.2,0,0.4,0.1,0.4,0.3v1.7C90.7,26.6,90.6,26.7,90.3,26.8z"/>
	<path class="st0" d="M101,22.5h-5.9l0,0c0,1.1,0.4,2,1.9,2c1.2,0,2.8-0.1,3.6-0.2c0,0,0,0,0.1,0c0.2,0,0.4,0.1,0.4,0.3V26
		c0,0.3-0.1,0.4-0.4,0.5c-1.2,0.3-2.2,0.4-3.8,0.4c-2.3,0-4.7-1.2-4.7-4.8v-1.3c0-3,1.8-4.9,4.7-4.9c3.1,0,4.6,2.1,4.6,4.9V22
		C101.4,22.3,101.2,22.5,101,22.5z M98.4,20.5c0-1.4-0.6-2.1-1.7-2.1c-1,0-1.7,0.7-1.7,2.1v0.1L98.4,20.5L98.4,20.5z"/>
	<path class="st0" d="M107.9,27c-0.4,0-1-0.1-1.5-0.1v3.7c0,0.2-0.2,0.4-0.4,0.4h-2.3c-0.2,0-0.4-0.2-0.4-0.4V17.1
		c0-0.3,0.1-0.4,0.6-0.5c1.1-0.3,2.5-0.5,4-0.5c3,0,4.7,1.8,4.7,4.8v1.5C112.6,25.2,111.1,27,107.9,27z M109.6,20.8
		c0-1.3-0.3-2.3-1.7-2.3c-0.6,0-1.2,0-1.5,0.1v5.8c0.4,0.1,1.1,0.1,1.5,0.1c1.3,0,1.7-1,1.7-2.3V20.8z"/>
	<path class="st0" d="M132.3,27c-3,0-4.7-1.9-4.7-4.8v-1.3c0-3,1.7-4.8,4.7-4.8s4.7,1.9,4.7,4.8v1.3C137,25.2,135.3,27,132.3,27z
		 M134,20.9c0-1.5-0.6-2.3-1.7-2.3s-1.7,0.8-1.7,2.3v1.3c0,1.5,0.6,2.3,1.7,2.3s1.7-0.8,1.7-2.3V20.9z"/>
	<path class="st0" d="M147.6,26.9h-2.3c-0.2,0-0.4-0.2-0.4-0.4v-6.6c0-0.8-0.1-1.4-1.1-1.4h-0.9c-1,0-1.1,0.6-1.1,1.4v6.6
		c0,0.2-0.2,0.4-0.4,0.4h-2.3c-0.2,0-0.4-0.2-0.4-0.4v-6.6c0-2.6,1.4-3.9,4.1-3.9h0.9c2.7,0,4.1,1.3,4.1,3.9v6.6
		C148,26.7,147.8,26.9,147.6,26.9z"/>
	<g>
		<path class="st0" d="M66,16c-0.4,0-1,0.1-1.5,0.1v-3.7c0-0.2-0.2-0.4-0.4-0.4c-0.6,0-1.4,0.2-2.1,0.4c-0.4,0.2-0.6,0.4-0.6,0.7
			v12.7c0,0.3,0.1,1,0.7,1c7.1,1,8.5-1.5,8.5-4.5v-1.5C70.7,17.9,69.1,16,66,16z M67.7,22.3c0,1.3-0.3,2.1-1.7,2.3
			c-0.6,0.1-1.2,0.1-1.5,0v-6c0.4-0.1,1.1-0.1,1.5-0.1c1.3,0,1.7,1,1.7,2.3V22.3z"/>
	</g>
	<path class="st0" d="M114.5,13.3V24c0,2.4,1.2,3.1,3.3,3.1c0.8,0,1.7-0.1,2.2-0.2c0.2,0,0.4-0.2,0.4-0.4v-1.4
		c0-0.2-0.1-0.3-0.4-0.3h-1.4c-0.8,0-1.1-0.1-1.1-0.8v-5.5h2.6c0.2,0,0.4-0.2,0.4-0.4v-1.5c0-0.2-0.2-0.4-0.4-0.4h-2.6v-3.6
		c0-0.2-0.2-0.4-0.4-0.4c-0.6,0-1.4,0.2-2.1,0.4C114.7,12.8,114.5,13.1,114.5,13.3z"/>
	<path class="st0" d="M125.6,16.6c0-0.2-0.2-0.4-0.4-0.4c-0.6,0-1.4,0.2-2.1,0.4c-0.4,0.2-0.6,0.4-0.6,0.7v9.2
		c0,0.2,0.2,0.4,0.4,0.4h2.3c0.2,0,0.4-0.2,0.4-0.4C125.6,26.5,125.6,16.6,125.6,16.6z"/>
</g>
</svg>
